<?xml version="1.0" encoding="UTF-8" ?>
<svg version="1.1" width="64" height="24" xmlns="http://www.w3.org/2000/svg" shape-rendering="crispEdges">
<rect x="52" y="3" width="1" height="1" fill="#222222" />
<rect x="60" y="3" width="1" height="1" fill="#222222" />
<rect x="51" y="4" width="1" height="1" fill="#222222" />
<rect x="52" y="4" width="1" height="1" fill="#FDF7ED" />
<rect x="53" y="4" width="1" height="1" fill="#222222" />
<rect x="59" y="4" width="1" height="1" fill="#222222" />
<rect x="60" y="4" width="1" height="1" fill="#FDF7ED" />
<rect x="61" y="4" width="1" height="1" fill="#222222" />
<rect x="51" y="5" width="1" height="1" fill="#222222" />
<rect x="52" y="5" width="1" height="1" fill="#FDF7ED" />
<rect x="53" y="5" width="1" height="1" fill="#FDF7ED" />
<rect x="54" y="5" width="1" height="1" fill="#222222" />
<rect x="58" y="5" width="1" height="1" fill="#222222" />
<rect x="59" y="5" width="1" height="1" fill="#FDF7ED" />
<rect x="60" y="5" width="1" height="1" fill="#FDF7ED" />
<rect x="61" y="5" width="1" height="1" fill="#222222" />
<rect x="4" y="6" width="1" height="1" fill="#222222" />
<rect x="12" y="6" width="1" height="1" fill="#222222" />
<rect x="51" y="6" width="1" height="1" fill="#222222" />
<rect x="52" y="6" width="1" height="1" fill="#FDF7ED" />
<rect x="53" y="6" width="1" height="1" fill="#FDF7ED" />
<rect x="54" y="6" width="1" height="1" fill="#222222" />
<rect x="55" y="6" width="1" height="1" fill="#222222" />
<rect x="56" y="6" width="1" height="1" fill="#222222" />
<rect x="57" y="6" width="1" height="1" fill="#222222" />
<rect x="58" y="6" width="1" height="1" fill="#222222" />
<rect x="59" y="6" width="1" height="1" fill="#FDF7ED" />
<rect x="60" y="6" width="1" height="1" fill="#FDF7ED" />
<rect x="61" y="6" width="1" height="1" fill="#222222" />
<rect x="3" y="7" width="1" height="1" fill="#222222" />
<rect x="4" y="7" width="1" height="1" fill="#FDF7ED" />
<rect x="5" y="7" width="1" height="1" fill="#222222" />
<rect x="11" y="7" width="1" height="1" fill="#222222" />
<rect x="12" y="7" width="1" height="1" fill="#FDF7ED" />
<rect x="13" y="7" width="1" height="1" fill="#222222" />
<rect x="51" y="7" width="1" height="1" fill="#222222" />
<rect x="52" y="7" width="1" height="1" fill="#222222" />
<rect x="53" y="7" width="1" height="1" fill="#222222" />
<rect x="54" y="7" width="1" height="1" fill="#DA4E38" />
<rect x="55" y="7" width="1" height="1" fill="#DA4E38" />
<rect x="56" y="7" width="1" height="1" fill="#DA4E38" />
<rect x="57" y="7" width="1" height="1" fill="#DA4E38" />
<rect x="58" y="7" width="1" height="1" fill="#DA4E38" />
<rect x="59" y="7" width="1" height="1" fill="#222222" />
<rect x="60" y="7" width="1" height="1" fill="#222222" />
<rect x="3" y="8" width="1" height="1" fill="#222222" />
<rect x="4" y="8" width="1" height="1" fill="#FDF7ED" />
<rect x="5" y="8" width="1" height="1" fill="#FDF7ED" />
<rect x="6" y="8" width="1" height="1" fill="#222222" />
<rect x="10" y="8" width="1" height="1" fill="#222222" />
<rect x="11" y="8" width="1" height="1" fill="#FDF7ED" />
<rect x="12" y="8" width="1" height="1" fill="#FDF7ED" />
<rect x="13" y="8" width="1" height="1" fill="#222222" />
<rect x="51" y="8" width="1" height="1" fill="#222222" />
<rect x="52" y="8" width="1" height="1" fill="#9F294E" />
<rect x="53" y="8" width="1" height="1" fill="#DA4E38" />
<rect x="54" y="8" width="1" height="1" fill="#DA4E38" />
<rect x="55" y="8" width="1" height="1" fill="#DA4E38" />
<rect x="56" y="8" width="1" height="1" fill="#DA4E38" />
<rect x="57" y="8" width="1" height="1" fill="#DA4E38" />
<rect x="58" y="8" width="1" height="1" fill="#DA4E38" />
<rect x="59" y="8" width="1" height="1" fill="#DA4E38" />
<rect x="60" y="8" width="1" height="1" fill="#222222" />
<rect x="3" y="9" width="1" height="1" fill="#222222" />
<rect x="4" y="9" width="1" height="1" fill="#FDF7ED" />
<rect x="5" y="9" width="1" height="1" fill="#FDF7ED" />
<rect x="6" y="9" width="1" height="1" fill="#222222" />
<rect x="7" y="9" width="1" height="1" fill="#222222" />
<rect x="8" y="9" width="1" height="1" fill="#222222" />
<rect x="9" y="9" width="1" height="1" fill="#222222" />
<rect x="10" y="9" width="1" height="1" fill="#222222" />
<rect x="11" y="9" width="1" height="1" fill="#FDF7ED" />
<rect x="12" y="9" width="1" height="1" fill="#FDF7ED" />
<rect x="13" y="9" width="1" height="1" fill="#222222" />
<rect x="36" y="9" width="1" height="1" fill="#222222" />
<rect x="44" y="9" width="1" height="1" fill="#222222" />
<rect x="51" y="9" width="1" height="1" fill="#222222" />
<rect x="52" y="9" width="1" height="1" fill="#9F294E" />
<rect x="53" y="9" width="1" height="1" fill="#DA4E38" />
<rect x="54" y="9" width="1" height="1" fill="#FDF7ED" />
<rect x="55" y="9" width="1" height="1" fill="#FDF7ED" />
<rect x="56" y="9" width="1" height="1" fill="#DA4E38" />
<rect x="57" y="9" width="1" height="1" fill="#DA4E38" />
<rect x="58" y="9" width="1" height="1" fill="#DA4E38" />
<rect x="59" y="9" width="1" height="1" fill="#FDF7ED" />
<rect x="60" y="9" width="1" height="1" fill="#222222" />
<rect x="3" y="10" width="1" height="1" fill="#222222" />
<rect x="4" y="10" width="1" height="1" fill="#222222" />
<rect x="5" y="10" width="1" height="1" fill="#222222" />
<rect x="6" y="10" width="1" height="1" fill="#DA4E38" />
<rect x="7" y="10" width="1" height="1" fill="#DA4E38" />
<rect x="8" y="10" width="1" height="1" fill="#DA4E38" />
<rect x="9" y="10" width="1" height="1" fill="#DA4E38" />
<rect x="10" y="10" width="1" height="1" fill="#DA4E38" />
<rect x="11" y="10" width="1" height="1" fill="#222222" />
<rect x="12" y="10" width="1" height="1" fill="#222222" />
<rect x="13" y="10" width="1" height="1" fill="#222222" />
<rect x="20" y="10" width="1" height="1" fill="#222222" />
<rect x="28" y="10" width="1" height="1" fill="#222222" />
<rect x="35" y="10" width="1" height="1" fill="#222222" />
<rect x="36" y="10" width="1" height="1" fill="#FDF7ED" />
<rect x="37" y="10" width="1" height="1" fill="#222222" />
<rect x="43" y="10" width="1" height="1" fill="#222222" />
<rect x="44" y="10" width="1" height="1" fill="#FDF7ED" />
<rect x="45" y="10" width="1" height="1" fill="#222222" />
<rect x="51" y="10" width="1" height="1" fill="#222222" />
<rect x="52" y="10" width="1" height="1" fill="#9F294E" />
<rect x="53" y="10" width="1" height="1" fill="#DA4E38" />
<rect x="54" y="10" width="1" height="1" fill="#FDF7ED" />
<rect x="55" y="10" width="1" height="1" fill="#FDF7ED" />
<rect x="56" y="10" width="1" height="1" fill="#DA4E38" />
<rect x="57" y="10" width="1" height="1" fill="#DA4E38" />
<rect x="58" y="10" width="1" height="1" fill="#DA4E38" />
<rect x="59" y="10" width="1" height="1" fill="#FDF7ED" />
<rect x="60" y="10" width="1" height="1" fill="#222222" />
<rect x="3" y="11" width="1" height="1" fill="#222222" />
<rect x="4" y="11" width="1" height="1" fill="#9F294E" />
<rect x="5" y="11" width="1" height="1" fill="#DA4E38" />
<rect x="6" y="11" width="1" height="1" fill="#DA4E38" />
<rect x="7" y="11" width="1" height="1" fill="#DA4E38" />
<rect x="8" y="11" width="1" height="1" fill="#DA4E38" />
<rect x="9" y="11" width="1" height="1" fill="#DA4E38" />
<rect x="10" y="11" width="1" height="1" fill="#DA4E38" />
<rect x="11" y="11" width="1" height="1" fill="#DA4E38" />
<rect x="12" y="11" width="1" height="1" fill="#222222" />
<rect x="19" y="11" width="1" height="1" fill="#222222" />
<rect x="20" y="11" width="1" height="1" fill="#FDF7ED" />
<rect x="21" y="11" width="1" height="1" fill="#222222" />
<rect x="27" y="11" width="1" height="1" fill="#222222" />
<rect x="28" y="11" width="1" height="1" fill="#FDF7ED" />
<rect x="29" y="11" width="1" height="1" fill="#222222" />
<rect x="35" y="11" width="1" height="1" fill="#222222" />
<rect x="36" y="11" width="1" height="1" fill="#FDF7ED" />
<rect x="37" y="11" width="1" height="1" fill="#FDF7ED" />
<rect x="38" y="11" width="1" height="1" fill="#222222" />
<rect x="39" y="11" width="1" height="1" fill="#222222" />
<rect x="40" y="11" width="1" height="1" fill="#222222" />
<rect x="41" y="11" width="1" height="1" fill="#222222" />
<rect x="42" y="11" width="1" height="1" fill="#222222" />
<rect x="43" y="11" width="1" height="1" fill="#FDF7ED" />
<rect x="44" y="11" width="1" height="1" fill="#FDF7ED" />
<rect x="45" y="11" width="1" height="1" fill="#222222" />
<rect x="51" y="11" width="1" height="1" fill="#222222" />
<rect x="52" y="11" width="1" height="1" fill="#9F294E" />
<rect x="53" y="11" width="1" height="1" fill="#DA4E38" />
<rect x="54" y="11" width="1" height="1" fill="#5F2D56" />
<rect x="55" y="11" width="1" height="1" fill="#5F2D56" />
<rect x="56" y="11" width="1" height="1" fill="#DA4E38" />
<rect x="57" y="11" width="1" height="1" fill="#DA4E38" />
<rect x="58" y="11" width="1" height="1" fill="#DA4E38" />
<rect x="59" y="11" width="1" height="1" fill="#5F2D56" />
<rect x="60" y="11" width="1" height="1" fill="#222222" />
<rect x="3" y="12" width="1" height="1" fill="#222222" />
<rect x="4" y="12" width="1" height="1" fill="#9F294E" />
<rect x="5" y="12" width="1" height="1" fill="#DA4E38" />
<rect x="6" y="12" width="1" height="1" fill="#DA4E38" />
<rect x="7" y="12" width="1" height="1" fill="#DA4E38" />
<rect x="8" y="12" width="1" height="1" fill="#DA4E38" />
<rect x="9" y="12" width="1" height="1" fill="#DA4E38" />
<rect x="10" y="12" width="1" height="1" fill="#DA4E38" />
<rect x="11" y="12" width="1" height="1" fill="#DA4E38" />
<rect x="12" y="12" width="1" height="1" fill="#222222" />
<rect x="19" y="12" width="1" height="1" fill="#222222" />
<rect x="20" y="12" width="1" height="1" fill="#FDF7ED" />
<rect x="21" y="12" width="1" height="1" fill="#FDF7ED" />
<rect x="22" y="12" width="1" height="1" fill="#222222" />
<rect x="23" y="12" width="1" height="1" fill="#222222" />
<rect x="24" y="12" width="1" height="1" fill="#222222" />
<rect x="25" y="12" width="1" height="1" fill="#222222" />
<rect x="26" y="12" width="1" height="1" fill="#222222" />
<rect x="27" y="12" width="1" height="1" fill="#FDF7ED" />
<rect x="28" y="12" width="1" height="1" fill="#FDF7ED" />
<rect x="29" y="12" width="1" height="1" fill="#222222" />
<rect x="35" y="12" width="1" height="1" fill="#222222" />
<rect x="36" y="12" width="1" height="1" fill="#FDF7ED" />
<rect x="37" y="12" width="1" height="1" fill="#FDF7ED" />
<rect x="38" y="12" width="1" height="1" fill="#222222" />
<rect x="39" y="12" width="1" height="1" fill="#DA4E38" />
<rect x="40" y="12" width="1" height="1" fill="#DA4E38" />
<rect x="41" y="12" width="1" height="1" fill="#DA4E38" />
<rect x="42" y="12" width="1" height="1" fill="#222222" />
<rect x="43" y="12" width="1" height="1" fill="#FDF7ED" />
<rect x="44" y="12" width="1" height="1" fill="#FDF7ED" />
<rect x="45" y="12" width="1" height="1" fill="#222222" />
<rect x="51" y="12" width="1" height="1" fill="#222222" />
<rect x="52" y="12" width="1" height="1" fill="#9F294E" />
<rect x="53" y="12" width="1" height="1" fill="#DA4E38" />
<rect x="54" y="12" width="1" height="1" fill="#DA4E38" />
<rect x="55" y="12" width="1" height="1" fill="#DA4E38" />
<rect x="56" y="12" width="1" height="1" fill="#DA4E38" />
<rect x="57" y="12" width="1" height="1" fill="#DA4E38" />
<rect x="58" y="12" width="1" height="1" fill="#DA4E38" />
<rect x="59" y="12" width="1" height="1" fill="#DA4E38" />
<rect x="60" y="12" width="1" height="1" fill="#222222" />
<rect x="3" y="13" width="1" height="1" fill="#222222" />
<rect x="4" y="13" width="1" height="1" fill="#9F294E" />
<rect x="5" y="13" width="1" height="1" fill="#DA4E38" />
<rect x="6" y="13" width="1" height="1" fill="#FDF7ED" />
<rect x="7" y="13" width="1" height="1" fill="#FDF7ED" />
<rect x="8" y="13" width="1" height="1" fill="#DA4E38" />
<rect x="9" y="13" width="1" height="1" fill="#DA4E38" />
<rect x="10" y="13" width="1" height="1" fill="#DA4E38" />
<rect x="11" y="13" width="1" height="1" fill="#FDF7ED" />
<rect x="12" y="13" width="1" height="1" fill="#222222" />
<rect x="19" y="13" width="1" height="1" fill="#222222" />
<rect x="20" y="13" width="1" height="1" fill="#FDF7ED" />
<rect x="21" y="13" width="1" height="1" fill="#FDF7ED" />
<rect x="22" y="13" width="1" height="1" fill="#222222" />
<rect x="23" y="13" width="1" height="1" fill="#DA4E38" />
<rect x="24" y="13" width="1" height="1" fill="#DA4E38" />
<rect x="25" y="13" width="1" height="1" fill="#DA4E38" />
<rect x="26" y="13" width="1" height="1" fill="#222222" />
<rect x="27" y="13" width="1" height="1" fill="#FDF7ED" />
<rect x="28" y="13" width="1" height="1" fill="#FDF7ED" />
<rect x="29" y="13" width="1" height="1" fill="#222222" />
<rect x="35" y="13" width="1" height="1" fill="#222222" />
<rect x="36" y="13" width="1" height="1" fill="#222222" />
<rect x="37" y="13" width="1" height="1" fill="#222222" />
<rect x="38" y="13" width="1" height="1" fill="#DA4E38" />
<rect x="39" y="13" width="1" height="1" fill="#DA4E38" />
<rect x="40" y="13" width="1" height="1" fill="#DA4E38" />
<rect x="41" y="13" width="1" height="1" fill="#DA4E38" />
<rect x="42" y="13" width="1" height="1" fill="#DA4E38" />
<rect x="43" y="13" width="1" height="1" fill="#222222" />
<rect x="44" y="13" width="1" height="1" fill="#222222" />
<rect x="51" y="13" width="1" height="1" fill="#222222" />
<rect x="52" y="13" width="1" height="1" fill="#222222" />
<rect x="53" y="13" width="1" height="1" fill="#FDF7ED" />
<rect x="54" y="13" width="1" height="1" fill="#222222" />
<rect x="55" y="13" width="1" height="1" fill="#FDF7ED" />
<rect x="56" y="13" width="1" height="1" fill="#222222" />
<rect x="57" y="13" width="1" height="1" fill="#FDF7ED" />
<rect x="58" y="13" width="1" height="1" fill="#222222" />
<rect x="59" y="13" width="1" height="1" fill="#FDF7ED" />
<rect x="60" y="13" width="1" height="1" fill="#222222" />
<rect x="3" y="14" width="1" height="1" fill="#222222" />
<rect x="4" y="14" width="1" height="1" fill="#9F294E" />
<rect x="5" y="14" width="1" height="1" fill="#DA4E38" />
<rect x="6" y="14" width="1" height="1" fill="#FDF7ED" />
<rect x="7" y="14" width="1" height="1" fill="#FDF7ED" />
<rect x="8" y="14" width="1" height="1" fill="#DA4E38" />
<rect x="9" y="14" width="1" height="1" fill="#DA4E38" />
<rect x="10" y="14" width="1" height="1" fill="#DA4E38" />
<rect x="11" y="14" width="1" height="1" fill="#FDF7ED" />
<rect x="12" y="14" width="1" height="1" fill="#222222" />
<rect x="19" y="14" width="1" height="1" fill="#222222" />
<rect x="20" y="14" width="1" height="1" fill="#222222" />
<rect x="21" y="14" width="1" height="1" fill="#222222" />
<rect x="22" y="14" width="1" height="1" fill="#DA4E38" />
<rect x="23" y="14" width="1" height="1" fill="#DA4E38" />
<rect x="24" y="14" width="1" height="1" fill="#DA4E38" />
<rect x="25" y="14" width="1" height="1" fill="#DA4E38" />
<rect x="26" y="14" width="1" height="1" fill="#DA4E38" />
<rect x="27" y="14" width="1" height="1" fill="#222222" />
<rect x="28" y="14" width="1" height="1" fill="#222222" />
<rect x="35" y="14" width="1" height="1" fill="#222222" />
<rect x="36" y="14" width="1" height="1" fill="#9F294E" />
<rect x="37" y="14" width="1" height="1" fill="#DA4E38" />
<rect x="38" y="14" width="1" height="1" fill="#DA4E38" />
<rect x="39" y="14" width="1" height="1" fill="#DA4E38" />
<rect x="40" y="14" width="1" height="1" fill="#DA4E38" />
<rect x="41" y="14" width="1" height="1" fill="#DA4E38" />
<rect x="42" y="14" width="1" height="1" fill="#DA4E38" />
<rect x="43" y="14" width="1" height="1" fill="#DA4E38" />
<rect x="44" y="14" width="1" height="1" fill="#222222" />
<rect x="53" y="14" width="1" height="1" fill="#222222" />
<rect x="54" y="14" width="1" height="1" fill="#222222" />
<rect x="55" y="14" width="1" height="1" fill="#222222" />
<rect x="56" y="14" width="1" height="1" fill="#222222" />
<rect x="57" y="14" width="1" height="1" fill="#222222" />
<rect x="58" y="14" width="1" height="1" fill="#222222" />
<rect x="3" y="15" width="1" height="1" fill="#222222" />
<rect x="4" y="15" width="1" height="1" fill="#9F294E" />
<rect x="5" y="15" width="1" height="1" fill="#DA4E38" />
<rect x="6" y="15" width="1" height="1" fill="#5F2D56" />
<rect x="7" y="15" width="1" height="1" fill="#5F2D56" />
<rect x="8" y="15" width="1" height="1" fill="#DA4E38" />
<rect x="9" y="15" width="1" height="1" fill="#DA4E38" />
<rect x="10" y="15" width="1" height="1" fill="#DA4E38" />
<rect x="11" y="15" width="1" height="1" fill="#5F2D56" />
<rect x="12" y="15" width="1" height="1" fill="#222222" />
<rect x="19" y="15" width="1" height="1" fill="#222222" />
<rect x="20" y="15" width="1" height="1" fill="#9F294E" />
<rect x="21" y="15" width="1" height="1" fill="#DA4E38" />
<rect x="22" y="15" width="1" height="1" fill="#DA4E38" />
<rect x="23" y="15" width="1" height="1" fill="#DA4E38" />
<rect x="24" y="15" width="1" height="1" fill="#DA4E38" />
<rect x="25" y="15" width="1" height="1" fill="#DA4E38" />
<rect x="26" y="15" width="1" height="1" fill="#DA4E38" />
<rect x="27" y="15" width="1" height="1" fill="#DA4E38" />
<rect x="28" y="15" width="1" height="1" fill="#222222" />
<rect x="35" y="15" width="1" height="1" fill="#222222" />
<rect x="36" y="15" width="1" height="1" fill="#9F294E" />
<rect x="37" y="15" width="1" height="1" fill="#DA4E38" />
<rect x="38" y="15" width="1" height="1" fill="#FDF7ED" />
<rect x="39" y="15" width="1" height="1" fill="#FDF7ED" />
<rect x="40" y="15" width="1" height="1" fill="#DA4E38" />
<rect x="41" y="15" width="1" height="1" fill="#DA4E38" />
<rect x="42" y="15" width="1" height="1" fill="#DA4E38" />
<rect x="43" y="15" width="1" height="1" fill="#FDF7ED" />
<rect x="44" y="15" width="1" height="1" fill="#222222" />
<rect x="54" y="15" width="1" height="1" fill="#222222" />
<rect x="55" y="15" width="1" height="1" fill="#222222" />
<rect x="56" y="15" width="1" height="1" fill="#222222" />
<rect x="57" y="15" width="1" height="1" fill="#222222" />
<rect x="3" y="16" width="1" height="1" fill="#222222" />
<rect x="4" y="16" width="1" height="1" fill="#222222" />
<rect x="5" y="16" width="1" height="1" fill="#FDF7ED" />
<rect x="6" y="16" width="1" height="1" fill="#222222" />
<rect x="7" y="16" width="1" height="1" fill="#FDF7ED" />
<rect x="8" y="16" width="1" height="1" fill="#222222" />
<rect x="9" y="16" width="1" height="1" fill="#FDF7ED" />
<rect x="10" y="16" width="1" height="1" fill="#222222" />
<rect x="11" y="16" width="1" height="1" fill="#FDF7ED" />
<rect x="12" y="16" width="1" height="1" fill="#222222" />
<rect x="19" y="16" width="1" height="1" fill="#222222" />
<rect x="20" y="16" width="1" height="1" fill="#9F294E" />
<rect x="21" y="16" width="1" height="1" fill="#DA4E38" />
<rect x="22" y="16" width="1" height="1" fill="#FDF7ED" />
<rect x="23" y="16" width="1" height="1" fill="#FDF7ED" />
<rect x="24" y="16" width="1" height="1" fill="#DA4E38" />
<rect x="25" y="16" width="1" height="1" fill="#DA4E38" />
<rect x="26" y="16" width="1" height="1" fill="#DA4E38" />
<rect x="27" y="16" width="1" height="1" fill="#FDF7ED" />
<rect x="28" y="16" width="1" height="1" fill="#222222" />
<rect x="35" y="16" width="1" height="1" fill="#222222" />
<rect x="36" y="16" width="1" height="1" fill="#9F294E" />
<rect x="37" y="16" width="1" height="1" fill="#DA4E38" />
<rect x="38" y="16" width="1" height="1" fill="#FDF7ED" />
<rect x="39" y="16" width="1" height="1" fill="#FDF7ED" />
<rect x="40" y="16" width="1" height="1" fill="#DA4E38" />
<rect x="41" y="16" width="1" height="1" fill="#DA4E38" />
<rect x="42" y="16" width="1" height="1" fill="#DA4E38" />
<rect x="43" y="16" width="1" height="1" fill="#FDF7ED" />
<rect x="44" y="16" width="1" height="1" fill="#222222" />
<rect x="55" y="16" width="1" height="1" fill="#222222" />
<rect x="56" y="16" width="1" height="1" fill="#222222" />
<rect x="4" y="17" width="1" height="1" fill="#222222" />
<rect x="5" y="17" width="1" height="1" fill="#222222" />
<rect x="6" y="17" width="1" height="1" fill="#222222" />
<rect x="7" y="17" width="1" height="1" fill="#222222" />
<rect x="8" y="17" width="1" height="1" fill="#222222" />
<rect x="9" y="17" width="1" height="1" fill="#222222" />
<rect x="10" y="17" width="1" height="1" fill="#222222" />
<rect x="11" y="17" width="1" height="1" fill="#222222" />
<rect x="19" y="17" width="1" height="1" fill="#222222" />
<rect x="20" y="17" width="1" height="1" fill="#9F294E" />
<rect x="21" y="17" width="1" height="1" fill="#DA4E38" />
<rect x="22" y="17" width="1" height="1" fill="#FDF7ED" />
<rect x="23" y="17" width="1" height="1" fill="#FDF7ED" />
<rect x="24" y="17" width="1" height="1" fill="#DA4E38" />
<rect x="25" y="17" width="1" height="1" fill="#DA4E38" />
<rect x="26" y="17" width="1" height="1" fill="#DA4E38" />
<rect x="27" y="17" width="1" height="1" fill="#FDF7ED" />
<rect x="28" y="17" width="1" height="1" fill="#222222" />
<rect x="35" y="17" width="1" height="1" fill="#222222" />
<rect x="36" y="17" width="1" height="1" fill="#9F294E" />
<rect x="37" y="17" width="1" height="1" fill="#DA4E38" />
<rect x="38" y="17" width="1" height="1" fill="#5F2D56" />
<rect x="39" y="17" width="1" height="1" fill="#5F2D56" />
<rect x="40" y="17" width="1" height="1" fill="#DA4E38" />
<rect x="41" y="17" width="1" height="1" fill="#DA4E38" />
<rect x="42" y="17" width="1" height="1" fill="#DA4E38" />
<rect x="43" y="17" width="1" height="1" fill="#5F2D56" />
<rect x="44" y="17" width="1" height="1" fill="#222222" />
<rect x="54" y="17" width="1" height="1" fill="#222222" />
<rect x="55" y="17" width="1" height="1" fill="#222222" />
<rect x="56" y="17" width="1" height="1" fill="#222222" />
<rect x="57" y="17" width="1" height="1" fill="#222222" />
<rect x="5" y="18" width="1" height="1" fill="#222222" />
<rect x="6" y="18" width="1" height="1" fill="#222222" />
<rect x="7" y="18" width="1" height="1" fill="#222222" />
<rect x="8" y="18" width="1" height="1" fill="#222222" />
<rect x="9" y="18" width="1" height="1" fill="#222222" />
<rect x="10" y="18" width="1" height="1" fill="#222222" />
<rect x="19" y="18" width="1" height="1" fill="#222222" />
<rect x="20" y="18" width="1" height="1" fill="#9F294E" />
<rect x="21" y="18" width="1" height="1" fill="#DA4E38" />
<rect x="22" y="18" width="1" height="1" fill="#5F2D56" />
<rect x="23" y="18" width="1" height="1" fill="#5F2D56" />
<rect x="24" y="18" width="1" height="1" fill="#DA4E38" />
<rect x="25" y="18" width="1" height="1" fill="#DA4E38" />
<rect x="26" y="18" width="1" height="1" fill="#DA4E38" />
<rect x="27" y="18" width="1" height="1" fill="#5F2D56" />
<rect x="28" y="18" width="1" height="1" fill="#222222" />
<rect x="35" y="18" width="1" height="1" fill="#222222" />
<rect x="36" y="18" width="1" height="1" fill="#222222" />
<rect x="37" y="18" width="1" height="1" fill="#FDF7ED" />
<rect x="38" y="18" width="1" height="1" fill="#222222" />
<rect x="39" y="18" width="1" height="1" fill="#FDF7ED" />
<rect x="40" y="18" width="1" height="1" fill="#222222" />
<rect x="41" y="18" width="1" height="1" fill="#FDF7ED" />
<rect x="42" y="18" width="1" height="1" fill="#222222" />
<rect x="43" y="18" width="1" height="1" fill="#FDF7ED" />
<rect x="44" y="18" width="1" height="1" fill="#222222" />
<rect x="53" y="18" width="1" height="1" fill="#222222" />
<rect x="54" y="18" width="1" height="1" fill="#222222" />
<rect x="55" y="18" width="1" height="1" fill="#222222" />
<rect x="56" y="18" width="1" height="1" fill="#222222" />
<rect x="57" y="18" width="1" height="1" fill="#222222" />
<rect x="58" y="18" width="1" height="1" fill="#222222" />
<rect x="4" y="19" width="1" height="1" fill="#222222" />
<rect x="5" y="19" width="1" height="1" fill="#222222" />
<rect x="6" y="19" width="1" height="1" fill="#222222" />
<rect x="7" y="19" width="1" height="1" fill="#222222" />
<rect x="8" y="19" width="1" height="1" fill="#222222" />
<rect x="9" y="19" width="1" height="1" fill="#222222" />
<rect x="10" y="19" width="1" height="1" fill="#222222" />
<rect x="11" y="19" width="1" height="1" fill="#222222" />
<rect x="19" y="19" width="1" height="1" fill="#222222" />
<rect x="20" y="19" width="1" height="1" fill="#222222" />
<rect x="21" y="19" width="1" height="1" fill="#FDF7ED" />
<rect x="22" y="19" width="1" height="1" fill="#222222" />
<rect x="23" y="19" width="1" height="1" fill="#FDF7ED" />
<rect x="24" y="19" width="1" height="1" fill="#222222" />
<rect x="25" y="19" width="1" height="1" fill="#FDF7ED" />
<rect x="26" y="19" width="1" height="1" fill="#222222" />
<rect x="27" y="19" width="1" height="1" fill="#FDF7ED" />
<rect x="28" y="19" width="1" height="1" fill="#222222" />
<rect x="35" y="19" width="1" height="1" fill="#222222" />
<rect x="36" y="19" width="1" height="1" fill="#222222" />
<rect x="37" y="19" width="1" height="1" fill="#222222" />
<rect x="38" y="19" width="1" height="1" fill="#222222" />
<rect x="39" y="19" width="1" height="1" fill="#222222" />
<rect x="40" y="19" width="1" height="1" fill="#222222" />
<rect x="41" y="19" width="1" height="1" fill="#222222" />
<rect x="42" y="19" width="1" height="1" fill="#222222" />
<rect x="43" y="19" width="1" height="1" fill="#222222" />
<rect x="44" y="19" width="1" height="1" fill="#222222" />
<rect x="51" y="19" width="1" height="1" fill="#222222" />
<rect x="52" y="19" width="1" height="1" fill="#FDF7ED" />
<rect x="53" y="19" width="1" height="1" fill="#222222" />
<rect x="54" y="19" width="1" height="1" fill="#FDF7ED" />
<rect x="55" y="19" width="1" height="1" fill="#222222" />
<rect x="56" y="19" width="1" height="1" fill="#FDF7ED" />
<rect x="57" y="19" width="1" height="1" fill="#222222" />
<rect x="58" y="19" width="1" height="1" fill="#FDF7ED" />
<rect x="59" y="19" width="1" height="1" fill="#222222" />
<rect x="60" y="19" width="1" height="1" fill="#FDF7ED" />
<rect x="3" y="20" width="1" height="1" fill="#222222" />
<rect x="4" y="20" width="1" height="1" fill="#FDF7ED" />
<rect x="5" y="20" width="1" height="1" fill="#222222" />
<rect x="6" y="20" width="1" height="1" fill="#FDF7ED" />
<rect x="7" y="20" width="1" height="1" fill="#222222" />
<rect x="8" y="20" width="1" height="1" fill="#FDF7ED" />
<rect x="9" y="20" width="1" height="1" fill="#222222" />
<rect x="10" y="20" width="1" height="1" fill="#FDF7ED" />
<rect x="11" y="20" width="1" height="1" fill="#222222" />
<rect x="12" y="20" width="1" height="1" fill="#FDF7ED" />
<rect x="19" y="20" width="1" height="1" fill="#222222" />
<rect x="20" y="20" width="1" height="1" fill="#222222" />
<rect x="21" y="20" width="1" height="1" fill="#222222" />
<rect x="22" y="20" width="1" height="1" fill="#222222" />
<rect x="23" y="20" width="1" height="1" fill="#222222" />
<rect x="24" y="20" width="1" height="1" fill="#222222" />
<rect x="25" y="20" width="1" height="1" fill="#222222" />
<rect x="26" y="20" width="1" height="1" fill="#222222" />
<rect x="27" y="20" width="1" height="1" fill="#222222" />
<rect x="28" y="20" width="1" height="1" fill="#222222" />
<rect x="35" y="20" width="1" height="1" fill="#222222" />
<rect x="36" y="20" width="1" height="1" fill="#FDF7ED" />
<rect x="37" y="20" width="1" height="1" fill="#222222" />
<rect x="38" y="20" width="1" height="1" fill="#FDF7ED" />
<rect x="39" y="20" width="1" height="1" fill="#222222" />
<rect x="40" y="20" width="1" height="1" fill="#FDF7ED" />
<rect x="41" y="20" width="1" height="1" fill="#222222" />
<rect x="42" y="20" width="1" height="1" fill="#FDF7ED" />
<rect x="43" y="20" width="1" height="1" fill="#222222" />
<rect x="44" y="20" width="1" height="1" fill="#FDF7ED" />
<rect x="51" y="20" width="1" height="1" fill="#222222" />
<rect x="52" y="20" width="1" height="1" fill="#9F294E" />
<rect x="53" y="20" width="1" height="1" fill="#DA4E38" />
<rect x="54" y="20" width="1" height="1" fill="#DA4E38" />
<rect x="55" y="20" width="1" height="1" fill="#DA4E38" />
<rect x="56" y="20" width="1" height="1" fill="#DA4E38" />
<rect x="57" y="20" width="1" height="1" fill="#DA4E38" />
<rect x="58" y="20" width="1" height="1" fill="#DA4E38" />
<rect x="59" y="20" width="1" height="1" fill="#DA4E38" />
<rect x="60" y="20" width="1" height="1" fill="#222222" />
<rect x="3" y="21" width="1" height="1" fill="#222222" />
<rect x="4" y="21" width="1" height="1" fill="#9F294E" />
<rect x="5" y="21" width="1" height="1" fill="#DA4E38" />
<rect x="6" y="21" width="1" height="1" fill="#DA4E38" />
<rect x="7" y="21" width="1" height="1" fill="#DA4E38" />
<rect x="8" y="21" width="1" height="1" fill="#DA4E38" />
<rect x="9" y="21" width="1" height="1" fill="#DA4E38" />
<rect x="10" y="21" width="1" height="1" fill="#DA4E38" />
<rect x="11" y="21" width="1" height="1" fill="#DA4E38" />
<rect x="12" y="21" width="1" height="1" fill="#222222" />
<rect x="19" y="21" width="1" height="1" fill="#222222" />
<rect x="20" y="21" width="1" height="1" fill="#FDF7ED" />
<rect x="21" y="21" width="1" height="1" fill="#222222" />
<rect x="22" y="21" width="1" height="1" fill="#FDF7ED" />
<rect x="23" y="21" width="1" height="1" fill="#222222" />
<rect x="24" y="21" width="1" height="1" fill="#FDF7ED" />
<rect x="25" y="21" width="1" height="1" fill="#222222" />
<rect x="26" y="21" width="1" height="1" fill="#FDF7ED" />
<rect x="27" y="21" width="1" height="1" fill="#222222" />
<rect x="28" y="21" width="1" height="1" fill="#FDF7ED" />
<rect x="35" y="21" width="1" height="1" fill="#222222" />
<rect x="36" y="21" width="1" height="1" fill="#9F294E" />
<rect x="37" y="21" width="1" height="1" fill="#DA4E38" />
<rect x="38" y="21" width="1" height="1" fill="#DA4E38" />
<rect x="39" y="21" width="1" height="1" fill="#DA4E38" />
<rect x="40" y="21" width="1" height="1" fill="#DA4E38" />
<rect x="41" y="21" width="1" height="1" fill="#DA4E38" />
<rect x="42" y="21" width="1" height="1" fill="#DA4E38" />
<rect x="43" y="21" width="1" height="1" fill="#DA4E38" />
<rect x="44" y="21" width="1" height="1" fill="#222222" />
<rect x="51" y="21" width="1" height="1" fill="#222222" />
<rect x="52" y="21" width="1" height="1" fill="#9F294E" />
<rect x="53" y="21" width="1" height="1" fill="#9F294E" />
<rect x="54" y="21" width="1" height="1" fill="#222222" />
<rect x="55" y="21" width="1" height="1" fill="#222222" />
<rect x="56" y="21" width="1" height="1" fill="#222222" />
<rect x="57" y="21" width="1" height="1" fill="#222222" />
<rect x="58" y="21" width="1" height="1" fill="#9F294E" />
<rect x="59" y="21" width="1" height="1" fill="#9F294E" />
<rect x="60" y="21" width="1" height="1" fill="#222222" />
<rect x="3" y="22" width="1" height="1" fill="#222222" />
<rect x="4" y="22" width="1" height="1" fill="#9F294E" />
<rect x="5" y="22" width="1" height="1" fill="#9F294E" />
<rect x="6" y="22" width="1" height="1" fill="#222222" />
<rect x="7" y="22" width="1" height="1" fill="#222222" />
<rect x="8" y="22" width="1" height="1" fill="#222222" />
<rect x="9" y="22" width="1" height="1" fill="#222222" />
<rect x="10" y="22" width="1" height="1" fill="#9F294E" />
<rect x="11" y="22" width="1" height="1" fill="#9F294E" />
<rect x="12" y="22" width="1" height="1" fill="#222222" />
<rect x="19" y="22" width="1" height="1" fill="#222222" />
<rect x="20" y="22" width="1" height="1" fill="#9F294E" />
<rect x="21" y="22" width="1" height="1" fill="#DA4E38" />
<rect x="22" y="22" width="1" height="1" fill="#DA4E38" />
<rect x="23" y="22" width="1" height="1" fill="#DA4E38" />
<rect x="24" y="22" width="1" height="1" fill="#DA4E38" />
<rect x="25" y="22" width="1" height="1" fill="#DA4E38" />
<rect x="26" y="22" width="1" height="1" fill="#DA4E38" />
<rect x="27" y="22" width="1" height="1" fill="#DA4E38" />
<rect x="28" y="22" width="1" height="1" fill="#222222" />
<rect x="35" y="22" width="1" height="1" fill="#222222" />
<rect x="36" y="22" width="1" height="1" fill="#9F294E" />
<rect x="37" y="22" width="1" height="1" fill="#9F294E" />
<rect x="38" y="22" width="1" height="1" fill="#222222" />
<rect x="39" y="22" width="1" height="1" fill="#222222" />
<rect x="40" y="22" width="1" height="1" fill="#222222" />
<rect x="41" y="22" width="1" height="1" fill="#222222" />
<rect x="42" y="22" width="1" height="1" fill="#9F294E" />
<rect x="43" y="22" width="1" height="1" fill="#9F294E" />
<rect x="44" y="22" width="1" height="1" fill="#222222" />
<rect x="51" y="22" width="1" height="1" fill="#222222" />
<rect x="52" y="22" width="1" height="1" fill="#9F294E" />
<rect x="53" y="22" width="1" height="1" fill="#9F294E" />
<rect x="54" y="22" width="1" height="1" fill="#222222" />
<rect x="57" y="22" width="1" height="1" fill="#222222" />
<rect x="58" y="22" width="1" height="1" fill="#9F294E" />
<rect x="59" y="22" width="1" height="1" fill="#9F294E" />
<rect x="60" y="22" width="1" height="1" fill="#222222" />
<rect x="3" y="23" width="1" height="1" fill="#222222" />
<rect x="4" y="23" width="1" height="1" fill="#222222" />
<rect x="5" y="23" width="1" height="1" fill="#222222" />
<rect x="10" y="23" width="1" height="1" fill="#222222" />
<rect x="11" y="23" width="1" height="1" fill="#222222" />
<rect x="12" y="23" width="1" height="1" fill="#222222" />
<rect x="19" y="23" width="1" height="1" fill="#222222" />
<rect x="20" y="23" width="1" height="1" fill="#222222" />
<rect x="21" y="23" width="1" height="1" fill="#222222" />
<rect x="26" y="23" width="1" height="1" fill="#222222" />
<rect x="27" y="23" width="1" height="1" fill="#222222" />
<rect x="28" y="23" width="1" height="1" fill="#222222" />
<rect x="35" y="23" width="1" height="1" fill="#222222" />
<rect x="36" y="23" width="1" height="1" fill="#222222" />
<rect x="37" y="23" width="1" height="1" fill="#222222" />
<rect x="42" y="23" width="1" height="1" fill="#222222" />
<rect x="43" y="23" width="1" height="1" fill="#222222" />
<rect x="44" y="23" width="1" height="1" fill="#222222" />
<rect x="51" y="23" width="1" height="1" fill="#222222" />
<rect x="52" y="23" width="1" height="1" fill="#222222" />
<rect x="53" y="23" width="1" height="1" fill="#222222" />
<rect x="58" y="23" width="1" height="1" fill="#222222" />
<rect x="59" y="23" width="1" height="1" fill="#222222" />
<rect x="60" y="23" width="1" height="1" fill="#222222" />
</svg>