<?xml version="1.0" encoding="UTF-8" ?>
<svg version="1.1" width="88" height="11" xmlns="http://www.w3.org/2000/svg" shape-rendering="crispEdges">
<rect x="47" y="0" width="1" height="1" fill="#FDF5F1" />
<rect x="48" y="0" width="1" height="1" fill="#FDF5F1" />
<rect x="49" y="0" width="1" height="1" fill="#FDF5F1" />
<rect x="50" y="0" width="1" height="1" fill="#FDF5F1" />
<rect x="51" y="0" width="1" height="1" fill="#FDF5F1" />
<rect x="57" y="0" width="1" height="1" fill="#FDF5F1" />
<rect x="58" y="0" width="1" height="1" fill="#FDF5F1" />
<rect x="59" y="0" width="1" height="1" fill="#FDF5F1" />
<rect x="60" y="0" width="1" height="1" fill="#FDF5F1" />
<rect x="61" y="0" width="1" height="1" fill="#FDF5F1" />
<rect x="62" y="0" width="1" height="1" fill="#FDF5F1" />
<rect x="63" y="0" width="1" height="1" fill="#FDF5F1" />
<rect x="68" y="0" width="1" height="1" fill="#FDF5F1" />
<rect x="69" y="0" width="1" height="1" fill="#FDF5F1" />
<rect x="70" y="0" width="1" height="1" fill="#FDF5F1" />
<rect x="71" y="0" width="1" height="1" fill="#FDF5F1" />
<rect x="72" y="0" width="1" height="1" fill="#FDF5F1" />
<rect x="73" y="0" width="1" height="1" fill="#FDF5F1" />
<rect x="74" y="0" width="1" height="1" fill="#FDF5F1" />
<rect x="79" y="0" width="1" height="1" fill="#FDF5F1" />
<rect x="80" y="0" width="1" height="1" fill="#FDF5F1" />
<rect x="81" y="0" width="1" height="1" fill="#FDF5F1" />
<rect x="82" y="0" width="1" height="1" fill="#FDF5F1" />
<rect x="83" y="0" width="1" height="1" fill="#FDF5F1" />
<rect x="84" y="0" width="1" height="1" fill="#FDF5F1" />
<rect x="85" y="0" width="1" height="1" fill="#FDF5F1" />
<rect x="46" y="1" width="1" height="1" fill="#FDF5F1" />
<rect x="47" y="1" width="1" height="1" fill="#1B141E" />
<rect x="48" y="1" width="1" height="1" fill="#1B141E" />
<rect x="49" y="1" width="1" height="1" fill="#1B141E" />
<rect x="50" y="1" width="1" height="1" fill="#1B141E" />
<rect x="51" y="1" width="1" height="1" fill="#1B141E" />
<rect x="52" y="1" width="1" height="1" fill="#FDF5F1" />
<rect x="56" y="1" width="1" height="1" fill="#FDF5F1" />
<rect x="57" y="1" width="1" height="1" fill="#1B141E" />
<rect x="58" y="1" width="1" height="1" fill="#1B141E" />
<rect x="59" y="1" width="1" height="1" fill="#1B141E" />
<rect x="60" y="1" width="1" height="1" fill="#1B141E" />
<rect x="61" y="1" width="1" height="1" fill="#1B141E" />
<rect x="62" y="1" width="1" height="1" fill="#1B141E" />
<rect x="63" y="1" width="1" height="1" fill="#1B141E" />
<rect x="64" y="1" width="1" height="1" fill="#FDF5F1" />
<rect x="67" y="1" width="1" height="1" fill="#FDF5F1" />
<rect x="68" y="1" width="1" height="1" fill="#1B141E" />
<rect x="69" y="1" width="1" height="1" fill="#1B141E" />
<rect x="70" y="1" width="1" height="1" fill="#1B141E" />
<rect x="71" y="1" width="1" height="1" fill="#1B141E" />
<rect x="72" y="1" width="1" height="1" fill="#1B141E" />
<rect x="73" y="1" width="1" height="1" fill="#1B141E" />
<rect x="74" y="1" width="1" height="1" fill="#1B141E" />
<rect x="75" y="1" width="1" height="1" fill="#FDF5F1" />
<rect x="78" y="1" width="1" height="1" fill="#FDF5F1" />
<rect x="79" y="1" width="1" height="1" fill="#1B141E" />
<rect x="80" y="1" width="1" height="1" fill="#1B141E" />
<rect x="81" y="1" width="1" height="1" fill="#1B141E" />
<rect x="82" y="1" width="1" height="1" fill="#1B141E" />
<rect x="83" y="1" width="1" height="1" fill="#1B141E" />
<rect x="84" y="1" width="1" height="1" fill="#1B141E" />
<rect x="85" y="1" width="1" height="1" fill="#1B141E" />
<rect x="86" y="1" width="1" height="1" fill="#FDF5F1" />
<rect x="36" y="2" width="1" height="1" fill="#1B141E" />
<rect x="37" y="2" width="1" height="1" fill="#1B141E" />
<rect x="38" y="2" width="1" height="1" fill="#1B141E" />
<rect x="39" y="2" width="1" height="1" fill="#1B141E" />
<rect x="40" y="2" width="1" height="1" fill="#1B141E" />
<rect x="45" y="2" width="1" height="1" fill="#FDF5F1" />
<rect x="46" y="2" width="1" height="1" fill="#1B141E" />
<rect x="47" y="2" width="1" height="1" fill="#CCC1BE" />
<rect x="48" y="2" width="1" height="1" fill="#FDF5F1" />
<rect x="49" y="2" width="1" height="1" fill="#FDF5F1" />
<rect x="50" y="2" width="1" height="1" fill="#FDF5F1" />
<rect x="51" y="2" width="1" height="1" fill="#CCC1BE" />
<rect x="52" y="2" width="1" height="1" fill="#1B141E" />
<rect x="53" y="2" width="1" height="1" fill="#FDF5F1" />
<rect x="55" y="2" width="1" height="1" fill="#FDF5F1" />
<rect x="56" y="2" width="1" height="1" fill="#1B141E" />
<rect x="57" y="2" width="1" height="1" fill="#CCC1BE" />
<rect x="58" y="2" width="1" height="1" fill="#FDF5F1" />
<rect x="59" y="2" width="1" height="1" fill="#FDF5F1" />
<rect x="60" y="2" width="1" height="1" fill="#FDF5F1" />
<rect x="61" y="2" width="1" height="1" fill="#FDF5F1" />
<rect x="62" y="2" width="1" height="1" fill="#FDF5F1" />
<rect x="63" y="2" width="1" height="1" fill="#CCC1BE" />
<rect x="64" y="2" width="1" height="1" fill="#1B141E" />
<rect x="65" y="2" width="1" height="1" fill="#FDF5F1" />
<rect x="66" y="2" width="1" height="1" fill="#FDF5F1" />
<rect x="67" y="2" width="1" height="1" fill="#1B141E" />
<rect x="68" y="2" width="1" height="1" fill="#CCC1BE" />
<rect x="69" y="2" width="1" height="1" fill="#FDF5F1" />
<rect x="70" y="2" width="1" height="1" fill="#FDF5F1" />
<rect x="71" y="2" width="1" height="1" fill="#FDF5F1" />
<rect x="72" y="2" width="1" height="1" fill="#FDF5F1" />
<rect x="73" y="2" width="1" height="1" fill="#FDF5F1" />
<rect x="74" y="2" width="1" height="1" fill="#CCC1BE" />
<rect x="75" y="2" width="1" height="1" fill="#1B141E" />
<rect x="76" y="2" width="1" height="1" fill="#FDF5F1" />
<rect x="77" y="2" width="1" height="1" fill="#FDF5F1" />
<rect x="78" y="2" width="1" height="1" fill="#1B141E" />
<rect x="79" y="2" width="1" height="1" fill="#CCC1BE" />
<rect x="80" y="2" width="1" height="1" fill="#FDF5F1" />
<rect x="81" y="2" width="1" height="1" fill="#FDF5F1" />
<rect x="82" y="2" width="1" height="1" fill="#FDF5F1" />
<rect x="83" y="2" width="1" height="1" fill="#FDF5F1" />
<rect x="84" y="2" width="1" height="1" fill="#FDF5F1" />
<rect x="85" y="2" width="1" height="1" fill="#CCC1BE" />
<rect x="86" y="2" width="1" height="1" fill="#1B141E" />
<rect x="87" y="2" width="1" height="1" fill="#FDF5F1" />
<rect x="26" y="3" width="1" height="1" fill="#1B141E" />
<rect x="27" y="3" width="1" height="1" fill="#1B141E" />
<rect x="28" y="3" width="1" height="1" fill="#1B141E" />
<rect x="35" y="3" width="1" height="1" fill="#1B141E" />
<rect x="36" y="3" width="1" height="1" fill="#CCC1BE" />
<rect x="37" y="3" width="1" height="1" fill="#CCC1BE" />
<rect x="38" y="3" width="1" height="1" fill="#CCC1BE" />
<rect x="39" y="3" width="1" height="1" fill="#CCC1BE" />
<rect x="40" y="3" width="1" height="1" fill="#CCC1BE" />
<rect x="41" y="3" width="1" height="1" fill="#1B141E" />
<rect x="46" y="3" width="1" height="1" fill="#1B141E" />
<rect x="47" y="3" width="1" height="1" fill="#FDF5F1" />
<rect x="48" y="3" width="1" height="1" fill="#FDF5F1" />
<rect x="49" y="3" width="1" height="1" fill="#FDF5F1" />
<rect x="50" y="3" width="1" height="1" fill="#FDF5F1" />
<rect x="51" y="3" width="1" height="1" fill="#FDF5F1" />
<rect x="52" y="3" width="1" height="1" fill="#1B141E" />
<rect x="55" y="3" width="1" height="1" fill="#FDF5F1" />
<rect x="56" y="3" width="1" height="1" fill="#1B141E" />
<rect x="57" y="3" width="1" height="1" fill="#FDF5F1" />
<rect x="58" y="3" width="1" height="1" fill="#FDF5F1" />
<rect x="59" y="3" width="1" height="1" fill="#FDF5F1" />
<rect x="60" y="3" width="1" height="1" fill="#FDF5F1" />
<rect x="61" y="3" width="1" height="1" fill="#FDF5F1" />
<rect x="62" y="3" width="1" height="1" fill="#FDF5F1" />
<rect x="63" y="3" width="1" height="1" fill="#FDF5F1" />
<rect x="64" y="3" width="1" height="1" fill="#1B141E" />
<rect x="65" y="3" width="1" height="1" fill="#FDF5F1" />
<rect x="66" y="3" width="1" height="1" fill="#FDF5F1" />
<rect x="67" y="3" width="1" height="1" fill="#1B141E" />
<rect x="68" y="3" width="1" height="1" fill="#FDF5F1" />
<rect x="69" y="3" width="1" height="1" fill="#FDF5F1" />
<rect x="70" y="3" width="1" height="1" fill="#FDF5F1" />
<rect x="71" y="3" width="1" height="1" fill="#FDF5F1" />
<rect x="72" y="3" width="1" height="1" fill="#FDF5F1" />
<rect x="73" y="3" width="1" height="1" fill="#FDF5F1" />
<rect x="74" y="3" width="1" height="1" fill="#FDF5F1" />
<rect x="75" y="3" width="1" height="1" fill="#1B141E" />
<rect x="76" y="3" width="1" height="1" fill="#FDF5F1" />
<rect x="77" y="3" width="1" height="1" fill="#FDF5F1" />
<rect x="78" y="3" width="1" height="1" fill="#1B141E" />
<rect x="79" y="3" width="1" height="1" fill="#FDF5F1" />
<rect x="80" y="3" width="1" height="1" fill="#1B141E" />
<rect x="81" y="3" width="1" height="1" fill="#CCC1BE" />
<rect x="82" y="3" width="1" height="1" fill="#FDF5F1" />
<rect x="83" y="3" width="1" height="1" fill="#CCC1BE" />
<rect x="84" y="3" width="1" height="1" fill="#1B141E" />
<rect x="85" y="3" width="1" height="1" fill="#FDF5F1" />
<rect x="86" y="3" width="1" height="1" fill="#1B141E" />
<rect x="87" y="3" width="1" height="1" fill="#FDF5F1" />
<rect x="14" y="4" width="1" height="1" fill="#1B141E" />
<rect x="15" y="4" width="1" height="1" fill="#1B141E" />
<rect x="16" y="4" width="1" height="1" fill="#1B141E" />
<rect x="17" y="4" width="1" height="1" fill="#1B141E" />
<rect x="18" y="4" width="1" height="1" fill="#1B141E" />
<rect x="25" y="4" width="1" height="1" fill="#1B141E" />
<rect x="26" y="4" width="1" height="1" fill="#CCC1BE" />
<rect x="27" y="4" width="1" height="1" fill="#FDF5F1" />
<rect x="28" y="4" width="1" height="1" fill="#CCC1BE" />
<rect x="29" y="4" width="1" height="1" fill="#1B141E" />
<rect x="35" y="4" width="1" height="1" fill="#1B141E" />
<rect x="36" y="4" width="1" height="1" fill="#CCC1BE" />
<rect x="37" y="4" width="1" height="1" fill="#FDF5F1" />
<rect x="38" y="4" width="1" height="1" fill="#FDF5F1" />
<rect x="39" y="4" width="1" height="1" fill="#FDF5F1" />
<rect x="40" y="4" width="1" height="1" fill="#CCC1BE" />
<rect x="41" y="4" width="1" height="1" fill="#1B141E" />
<rect x="46" y="4" width="1" height="1" fill="#1B141E" />
<rect x="47" y="4" width="1" height="1" fill="#FDF5F1" />
<rect x="48" y="4" width="1" height="1" fill="#FDF5F1" />
<rect x="49" y="4" width="1" height="1" fill="#FDF5F1" />
<rect x="50" y="4" width="1" height="1" fill="#FDF5F1" />
<rect x="51" y="4" width="1" height="1" fill="#FDF5F1" />
<rect x="52" y="4" width="1" height="1" fill="#1B141E" />
<rect x="55" y="4" width="1" height="1" fill="#FDF5F1" />
<rect x="56" y="4" width="1" height="1" fill="#1B141E" />
<rect x="57" y="4" width="1" height="1" fill="#FDF5F1" />
<rect x="58" y="4" width="1" height="1" fill="#FDF5F1" />
<rect x="59" y="4" width="1" height="1" fill="#FDF5F1" />
<rect x="60" y="4" width="1" height="1" fill="#FDF5F1" />
<rect x="61" y="4" width="1" height="1" fill="#FDF5F1" />
<rect x="62" y="4" width="1" height="1" fill="#FDF5F1" />
<rect x="63" y="4" width="1" height="1" fill="#FDF5F1" />
<rect x="64" y="4" width="1" height="1" fill="#1B141E" />
<rect x="65" y="4" width="1" height="1" fill="#FDF5F1" />
<rect x="66" y="4" width="1" height="1" fill="#FDF5F1" />
<rect x="67" y="4" width="1" height="1" fill="#1B141E" />
<rect x="68" y="4" width="1" height="1" fill="#FDF5F1" />
<rect x="69" y="4" width="1" height="1" fill="#FDF5F1" />
<rect x="70" y="4" width="1" height="1" fill="#FDF5F1" />
<rect x="71" y="4" width="1" height="1" fill="#FDF5F1" />
<rect x="72" y="4" width="1" height="1" fill="#FDF5F1" />
<rect x="73" y="4" width="1" height="1" fill="#FDF5F1" />
<rect x="74" y="4" width="1" height="1" fill="#FDF5F1" />
<rect x="75" y="4" width="1" height="1" fill="#1B141E" />
<rect x="76" y="4" width="1" height="1" fill="#FDF5F1" />
<rect x="77" y="4" width="1" height="1" fill="#FDF5F1" />
<rect x="78" y="4" width="1" height="1" fill="#1B141E" />
<rect x="79" y="4" width="1" height="1" fill="#FDF5F1" />
<rect x="80" y="4" width="1" height="1" fill="#CCC1BE" />
<rect x="81" y="4" width="1" height="1" fill="#1B141E" />
<rect x="82" y="4" width="1" height="1" fill="#FDF5F1" />
<rect x="83" y="4" width="1" height="1" fill="#1B141E" />
<rect x="84" y="4" width="1" height="1" fill="#CCC1BE" />
<rect x="85" y="4" width="1" height="1" fill="#FDF5F1" />
<rect x="86" y="4" width="1" height="1" fill="#1B141E" />
<rect x="87" y="4" width="1" height="1" fill="#FDF5F1" />
<rect x="26" y="5" width="1" height="1" fill="#1B141E" />
<rect x="27" y="5" width="1" height="1" fill="#1B141E" />
<rect x="28" y="5" width="1" height="1" fill="#1B141E" />
<rect x="36" y="5" width="1" height="1" fill="#1B141E" />
<rect x="37" y="5" width="1" height="1" fill="#1B141E" />
<rect x="38" y="5" width="1" height="1" fill="#1B141E" />
<rect x="39" y="5" width="1" height="1" fill="#1B141E" />
<rect x="40" y="5" width="1" height="1" fill="#1B141E" />
<rect x="46" y="5" width="1" height="1" fill="#1B141E" />
<rect x="47" y="5" width="1" height="1" fill="#CCC1BE" />
<rect x="48" y="5" width="1" height="1" fill="#FDF5F1" />
<rect x="49" y="5" width="1" height="1" fill="#FDF5F1" />
<rect x="50" y="5" width="1" height="1" fill="#FDF5F1" />
<rect x="51" y="5" width="1" height="1" fill="#CCC1BE" />
<rect x="52" y="5" width="1" height="1" fill="#1B141E" />
<rect x="55" y="5" width="1" height="1" fill="#FDF5F1" />
<rect x="56" y="5" width="1" height="1" fill="#1B141E" />
<rect x="57" y="5" width="1" height="1" fill="#FDF5F1" />
<rect x="58" y="5" width="1" height="1" fill="#FDF5F1" />
<rect x="59" y="5" width="1" height="1" fill="#FDF5F1" />
<rect x="60" y="5" width="1" height="1" fill="#FDF5F1" />
<rect x="61" y="5" width="1" height="1" fill="#FDF5F1" />
<rect x="62" y="5" width="1" height="1" fill="#FDF5F1" />
<rect x="63" y="5" width="1" height="1" fill="#FDF5F1" />
<rect x="64" y="5" width="1" height="1" fill="#1B141E" />
<rect x="65" y="5" width="1" height="1" fill="#FDF5F1" />
<rect x="66" y="5" width="1" height="1" fill="#FDF5F1" />
<rect x="67" y="5" width="1" height="1" fill="#1B141E" />
<rect x="68" y="5" width="1" height="1" fill="#FDF5F1" />
<rect x="69" y="5" width="1" height="1" fill="#FDF5F1" />
<rect x="70" y="5" width="1" height="1" fill="#FDF5F1" />
<rect x="71" y="5" width="1" height="1" fill="#FDF5F1" />
<rect x="72" y="5" width="1" height="1" fill="#FDF5F1" />
<rect x="73" y="5" width="1" height="1" fill="#FDF5F1" />
<rect x="74" y="5" width="1" height="1" fill="#FDF5F1" />
<rect x="75" y="5" width="1" height="1" fill="#1B141E" />
<rect x="76" y="5" width="1" height="1" fill="#FDF5F1" />
<rect x="77" y="5" width="1" height="1" fill="#FDF5F1" />
<rect x="78" y="5" width="1" height="1" fill="#1B141E" />
<rect x="79" y="5" width="1" height="1" fill="#FDF5F1" />
<rect x="80" y="5" width="1" height="1" fill="#FDF5F1" />
<rect x="81" y="5" width="1" height="1" fill="#FDF5F1" />
<rect x="82" y="5" width="1" height="1" fill="#FDF5F1" />
<rect x="83" y="5" width="1" height="1" fill="#FDF5F1" />
<rect x="84" y="5" width="1" height="1" fill="#FDF5F1" />
<rect x="85" y="5" width="1" height="1" fill="#FDF5F1" />
<rect x="86" y="5" width="1" height="1" fill="#1B141E" />
<rect x="87" y="5" width="1" height="1" fill="#FDF5F1" />
<rect x="47" y="6" width="1" height="1" fill="#1B141E" />
<rect x="48" y="6" width="1" height="1" fill="#1B141E" />
<rect x="49" y="6" width="1" height="1" fill="#1B141E" />
<rect x="50" y="6" width="1" height="1" fill="#1B141E" />
<rect x="51" y="6" width="1" height="1" fill="#1B141E" />
<rect x="55" y="6" width="1" height="1" fill="#FDF5F1" />
<rect x="56" y="6" width="1" height="1" fill="#1B141E" />
<rect x="57" y="6" width="1" height="1" fill="#CCC1BE" />
<rect x="58" y="6" width="1" height="1" fill="#FDF5F1" />
<rect x="59" y="6" width="1" height="1" fill="#FDF5F1" />
<rect x="60" y="6" width="1" height="1" fill="#FDF5F1" />
<rect x="61" y="6" width="1" height="1" fill="#FDF5F1" />
<rect x="62" y="6" width="1" height="1" fill="#FDF5F1" />
<rect x="63" y="6" width="1" height="1" fill="#CCC1BE" />
<rect x="64" y="6" width="1" height="1" fill="#1B141E" />
<rect x="65" y="6" width="1" height="1" fill="#FDF5F1" />
<rect x="66" y="6" width="1" height="1" fill="#FDF5F1" />
<rect x="67" y="6" width="1" height="1" fill="#1B141E" />
<rect x="68" y="6" width="1" height="1" fill="#CCC1BE" />
<rect x="69" y="6" width="1" height="1" fill="#FDF5F1" />
<rect x="70" y="6" width="1" height="1" fill="#FDF5F1" />
<rect x="71" y="6" width="1" height="1" fill="#FDF5F1" />
<rect x="72" y="6" width="1" height="1" fill="#FDF5F1" />
<rect x="73" y="6" width="1" height="1" fill="#FDF5F1" />
<rect x="74" y="6" width="1" height="1" fill="#CCC1BE" />
<rect x="75" y="6" width="1" height="1" fill="#1B141E" />
<rect x="76" y="6" width="1" height="1" fill="#FDF5F1" />
<rect x="77" y="6" width="1" height="1" fill="#FDF5F1" />
<rect x="78" y="6" width="1" height="1" fill="#1B141E" />
<rect x="79" y="6" width="1" height="1" fill="#CCC1BE" />
<rect x="80" y="6" width="1" height="1" fill="#FDF5F1" />
<rect x="81" y="6" width="1" height="1" fill="#1B141E" />
<rect x="82" y="6" width="1" height="1" fill="#1B141E" />
<rect x="83" y="6" width="1" height="1" fill="#1B141E" />
<rect x="84" y="6" width="1" height="1" fill="#FDF5F1" />
<rect x="85" y="6" width="1" height="1" fill="#CCC1BE" />
<rect x="86" y="6" width="1" height="1" fill="#1B141E" />
<rect x="87" y="6" width="1" height="1" fill="#FDF5F1" />
<rect x="56" y="7" width="1" height="1" fill="#FDF5F1" />
<rect x="57" y="7" width="1" height="1" fill="#1B141E" />
<rect x="58" y="7" width="1" height="1" fill="#1B141E" />
<rect x="59" y="7" width="1" height="1" fill="#1B141E" />
<rect x="60" y="7" width="1" height="1" fill="#1B141E" />
<rect x="61" y="7" width="1" height="1" fill="#1B141E" />
<rect x="62" y="7" width="1" height="1" fill="#1B141E" />
<rect x="63" y="7" width="1" height="1" fill="#1B141E" />
<rect x="64" y="7" width="1" height="1" fill="#FDF5F1" />
<rect x="67" y="7" width="1" height="1" fill="#FDF5F1" />
<rect x="68" y="7" width="1" height="1" fill="#1B141E" />
<rect x="69" y="7" width="1" height="1" fill="#1B141E" />
<rect x="70" y="7" width="1" height="1" fill="#CCC1BE" />
<rect x="71" y="7" width="1" height="1" fill="#FDF5F1" />
<rect x="72" y="7" width="1" height="1" fill="#CCC1BE" />
<rect x="73" y="7" width="1" height="1" fill="#1B141E" />
<rect x="74" y="7" width="1" height="1" fill="#1B141E" />
<rect x="75" y="7" width="1" height="1" fill="#FDF5F1" />
<rect x="78" y="7" width="1" height="1" fill="#FDF5F1" />
<rect x="79" y="7" width="1" height="1" fill="#1B141E" />
<rect x="80" y="7" width="1" height="1" fill="#1B141E" />
<rect x="81" y="7" width="1" height="1" fill="#CCC1BE" />
<rect x="82" y="7" width="1" height="1" fill="#FDF5F1" />
<rect x="83" y="7" width="1" height="1" fill="#CCC1BE" />
<rect x="84" y="7" width="1" height="1" fill="#1B141E" />
<rect x="85" y="7" width="1" height="1" fill="#1B141E" />
<rect x="86" y="7" width="1" height="1" fill="#FDF5F1" />
<rect x="57" y="8" width="1" height="1" fill="#FDF5F1" />
<rect x="58" y="8" width="1" height="1" fill="#FDF5F1" />
<rect x="59" y="8" width="1" height="1" fill="#FDF5F1" />
<rect x="60" y="8" width="1" height="1" fill="#FDF5F1" />
<rect x="61" y="8" width="1" height="1" fill="#FDF5F1" />
<rect x="62" y="8" width="1" height="1" fill="#FDF5F1" />
<rect x="63" y="8" width="1" height="1" fill="#FDF5F1" />
<rect x="68" y="8" width="1" height="1" fill="#FDF5F1" />
<rect x="69" y="8" width="1" height="1" fill="#FDF5F1" />
<rect x="70" y="8" width="1" height="1" fill="#1B141E" />
<rect x="71" y="8" width="1" height="1" fill="#CCC1BE" />
<rect x="72" y="8" width="1" height="1" fill="#1B141E" />
<rect x="73" y="8" width="1" height="1" fill="#FDF5F1" />
<rect x="74" y="8" width="1" height="1" fill="#FDF5F1" />
<rect x="79" y="8" width="1" height="1" fill="#FDF5F1" />
<rect x="80" y="8" width="1" height="1" fill="#FDF5F1" />
<rect x="81" y="8" width="1" height="1" fill="#1B141E" />
<rect x="82" y="8" width="1" height="1" fill="#CCC1BE" />
<rect x="83" y="8" width="1" height="1" fill="#1B141E" />
<rect x="84" y="8" width="1" height="1" fill="#FDF5F1" />
<rect x="85" y="8" width="1" height="1" fill="#FDF5F1" />
<rect x="70" y="9" width="1" height="1" fill="#FDF5F1" />
<rect x="71" y="9" width="1" height="1" fill="#1B141E" />
<rect x="72" y="9" width="1" height="1" fill="#FDF5F1" />
<rect x="81" y="9" width="1" height="1" fill="#FDF5F1" />
<rect x="82" y="9" width="1" height="1" fill="#1B141E" />
<rect x="83" y="9" width="1" height="1" fill="#FDF5F1" />
<rect x="71" y="10" width="1" height="1" fill="#FDF5F1" />
<rect x="82" y="10" width="1" height="1" fill="#FDF5F1" />
</svg>