<?xml version="1.0" encoding="UTF-8" ?>
<svg version="1.1" width="64" height="28" xmlns="http://www.w3.org/2000/svg" shape-rendering="crispEdges">
<rect x="18" y="6" width="1" height="1" fill="#222222" />
<rect x="19" y="6" width="1" height="1" fill="#222222" />
<rect x="20" y="6" width="1" height="1" fill="#222222" />
<rect x="21" y="6" width="1" height="1" fill="#222222" />
<rect x="22" y="6" width="1" height="1" fill="#222222" />
<rect x="23" y="6" width="1" height="1" fill="#222222" />
<rect x="33" y="6" width="1" height="1" fill="#222222" />
<rect x="34" y="6" width="1" height="1" fill="#222222" />
<rect x="35" y="6" width="1" height="1" fill="#222222" />
<rect x="36" y="6" width="1" height="1" fill="#222222" />
<rect x="37" y="6" width="1" height="1" fill="#222222" />
<rect x="38" y="6" width="1" height="1" fill="#222222" />
<rect x="39" y="6" width="1" height="1" fill="#222222" />
<rect x="49" y="6" width="1" height="1" fill="#222222" />
<rect x="2" y="7" width="1" height="1" fill="#222222" />
<rect x="3" y="7" width="1" height="1" fill="#222222" />
<rect x="4" y="7" width="1" height="1" fill="#222222" />
<rect x="5" y="7" width="1" height="1" fill="#222222" />
<rect x="6" y="7" width="1" height="1" fill="#222222" />
<rect x="7" y="7" width="1" height="1" fill="#222222" />
<rect x="17" y="7" width="1" height="1" fill="#222222" />
<rect x="18" y="7" width="1" height="1" fill="#DC4A7B" />
<rect x="19" y="7" width="1" height="1" fill="#DC4A7B" />
<rect x="20" y="7" width="1" height="1" fill="#F78697" />
<rect x="21" y="7" width="1" height="1" fill="#F78697" />
<rect x="22" y="7" width="1" height="1" fill="#F78697" />
<rect x="23" y="7" width="1" height="1" fill="#F78697" />
<rect x="24" y="7" width="1" height="1" fill="#222222" />
<rect x="32" y="7" width="1" height="1" fill="#222222" />
<rect x="33" y="7" width="1" height="1" fill="#DC4A7B" />
<rect x="34" y="7" width="1" height="1" fill="#DC4A7B" />
<rect x="35" y="7" width="1" height="1" fill="#DC4A7B" />
<rect x="36" y="7" width="1" height="1" fill="#F78697" />
<rect x="37" y="7" width="1" height="1" fill="#F78697" />
<rect x="38" y="7" width="1" height="1" fill="#F78697" />
<rect x="39" y="7" width="1" height="1" fill="#F78697" />
<rect x="40" y="7" width="1" height="1" fill="#222222" />
<rect x="48" y="7" width="1" height="1" fill="#222222" />
<rect x="49" y="7" width="1" height="1" fill="#DC4A7B" />
<rect x="50" y="7" width="1" height="1" fill="#222222" />
<rect x="51" y="7" width="1" height="1" fill="#222222" />
<rect x="52" y="7" width="1" height="1" fill="#222222" />
<rect x="53" y="7" width="1" height="1" fill="#222222" />
<rect x="54" y="7" width="1" height="1" fill="#222222" />
<rect x="55" y="7" width="1" height="1" fill="#222222" />
<rect x="1" y="8" width="1" height="1" fill="#222222" />
<rect x="2" y="8" width="1" height="1" fill="#DC4A7B" />
<rect x="3" y="8" width="1" height="1" fill="#DC4A7B" />
<rect x="4" y="8" width="1" height="1" fill="#F78697" />
<rect x="5" y="8" width="1" height="1" fill="#F78697" />
<rect x="6" y="8" width="1" height="1" fill="#F78697" />
<rect x="7" y="8" width="1" height="1" fill="#F78697" />
<rect x="8" y="8" width="1" height="1" fill="#222222" />
<rect x="16" y="8" width="1" height="1" fill="#222222" />
<rect x="17" y="8" width="1" height="1" fill="#DC4A7B" />
<rect x="18" y="8" width="1" height="1" fill="#222222" />
<rect x="19" y="8" width="1" height="1" fill="#222222" />
<rect x="20" y="8" width="1" height="1" fill="#DC4A7B" />
<rect x="21" y="8" width="1" height="1" fill="#DC4A7B" />
<rect x="22" y="8" width="1" height="1" fill="#F78697" />
<rect x="23" y="8" width="1" height="1" fill="#F78697" />
<rect x="24" y="8" width="1" height="1" fill="#F78697" />
<rect x="25" y="8" width="1" height="1" fill="#222222" />
<rect x="33" y="8" width="1" height="1" fill="#222222" />
<rect x="34" y="8" width="1" height="1" fill="#222222" />
<rect x="35" y="8" width="1" height="1" fill="#222222" />
<rect x="36" y="8" width="1" height="1" fill="#DC4A7B" />
<rect x="37" y="8" width="1" height="1" fill="#DC4A7B" />
<rect x="38" y="8" width="1" height="1" fill="#F78697" />
<rect x="39" y="8" width="1" height="1" fill="#F78697" />
<rect x="40" y="8" width="1" height="1" fill="#F78697" />
<rect x="41" y="8" width="1" height="1" fill="#222222" />
<rect x="49" y="8" width="1" height="1" fill="#222222" />
<rect x="50" y="8" width="1" height="1" fill="#DC4A7B" />
<rect x="51" y="8" width="1" height="1" fill="#DC4A7B" />
<rect x="52" y="8" width="1" height="1" fill="#F78697" />
<rect x="53" y="8" width="1" height="1" fill="#F78697" />
<rect x="54" y="8" width="1" height="1" fill="#F78697" />
<rect x="55" y="8" width="1" height="1" fill="#F78697" />
<rect x="56" y="8" width="1" height="1" fill="#222222" />
<rect x="0" y="9" width="1" height="1" fill="#222222" />
<rect x="1" y="9" width="1" height="1" fill="#DC4A7B" />
<rect x="2" y="9" width="1" height="1" fill="#222222" />
<rect x="3" y="9" width="1" height="1" fill="#222222" />
<rect x="4" y="9" width="1" height="1" fill="#DC4A7B" />
<rect x="5" y="9" width="1" height="1" fill="#DC4A7B" />
<rect x="6" y="9" width="1" height="1" fill="#F78697" />
<rect x="7" y="9" width="1" height="1" fill="#F78697" />
<rect x="8" y="9" width="1" height="1" fill="#F78697" />
<rect x="9" y="9" width="1" height="1" fill="#222222" />
<rect x="17" y="9" width="1" height="1" fill="#222222" />
<rect x="20" y="9" width="1" height="1" fill="#222222" />
<rect x="21" y="9" width="1" height="1" fill="#DC4A7B" />
<rect x="22" y="9" width="1" height="1" fill="#DC4A7B" />
<rect x="23" y="9" width="1" height="1" fill="#F78697" />
<rect x="24" y="9" width="1" height="1" fill="#F78697" />
<rect x="25" y="9" width="1" height="1" fill="#222222" />
<rect x="36" y="9" width="1" height="1" fill="#222222" />
<rect x="37" y="9" width="1" height="1" fill="#DC4A7B" />
<rect x="38" y="9" width="1" height="1" fill="#DC4A7B" />
<rect x="39" y="9" width="1" height="1" fill="#F78697" />
<rect x="40" y="9" width="1" height="1" fill="#F78697" />
<rect x="41" y="9" width="1" height="1" fill="#222222" />
<rect x="50" y="9" width="1" height="1" fill="#222222" />
<rect x="51" y="9" width="1" height="1" fill="#222222" />
<rect x="52" y="9" width="1" height="1" fill="#DC4A7B" />
<rect x="53" y="9" width="1" height="1" fill="#DC4A7B" />
<rect x="54" y="9" width="1" height="1" fill="#F78697" />
<rect x="55" y="9" width="1" height="1" fill="#F78697" />
<rect x="56" y="9" width="1" height="1" fill="#F78697" />
<rect x="57" y="9" width="1" height="1" fill="#222222" />
<rect x="1" y="10" width="1" height="1" fill="#222222" />
<rect x="4" y="10" width="1" height="1" fill="#222222" />
<rect x="5" y="10" width="1" height="1" fill="#DC4A7B" />
<rect x="6" y="10" width="1" height="1" fill="#DC4A7B" />
<rect x="7" y="10" width="1" height="1" fill="#F78697" />
<rect x="8" y="10" width="1" height="1" fill="#F78697" />
<rect x="9" y="10" width="1" height="1" fill="#222222" />
<rect x="19" y="10" width="1" height="1" fill="#222222" />
<rect x="20" y="10" width="1" height="1" fill="#222222" />
<rect x="21" y="10" width="1" height="1" fill="#222222" />
<rect x="22" y="10" width="1" height="1" fill="#DC4A7B" />
<rect x="23" y="10" width="1" height="1" fill="#DC4A7B" />
<rect x="24" y="10" width="1" height="1" fill="#222222" />
<rect x="25" y="10" width="1" height="1" fill="#222222" />
<rect x="26" y="10" width="1" height="1" fill="#222222" />
<rect x="27" y="10" width="1" height="1" fill="#222222" />
<rect x="37" y="10" width="1" height="1" fill="#222222" />
<rect x="38" y="10" width="1" height="1" fill="#DC4A7B" />
<rect x="39" y="10" width="1" height="1" fill="#DC4A7B" />
<rect x="40" y="10" width="1" height="1" fill="#222222" />
<rect x="52" y="10" width="1" height="1" fill="#222222" />
<rect x="53" y="10" width="1" height="1" fill="#DC4A7B" />
<rect x="54" y="10" width="1" height="1" fill="#DC4A7B" />
<rect x="55" y="10" width="1" height="1" fill="#F78697" />
<rect x="56" y="10" width="1" height="1" fill="#F78697" />
<rect x="57" y="10" width="1" height="1" fill="#222222" />
<rect x="3" y="11" width="1" height="1" fill="#222222" />
<rect x="4" y="11" width="1" height="1" fill="#222222" />
<rect x="5" y="11" width="1" height="1" fill="#222222" />
<rect x="6" y="11" width="1" height="1" fill="#DC4A7B" />
<rect x="7" y="11" width="1" height="1" fill="#DC4A7B" />
<rect x="8" y="11" width="1" height="1" fill="#222222" />
<rect x="9" y="11" width="1" height="1" fill="#222222" />
<rect x="10" y="11" width="1" height="1" fill="#222222" />
<rect x="11" y="11" width="1" height="1" fill="#222222" />
<rect x="12" y="11" width="1" height="1" fill="#222222" />
<rect x="19" y="11" width="1" height="1" fill="#222222" />
<rect x="20" y="11" width="1" height="1" fill="#72D6CE" />
<rect x="21" y="11" width="1" height="1" fill="#72D6CE" />
<rect x="22" y="11" width="1" height="1" fill="#72D6CE" />
<rect x="23" y="11" width="1" height="1" fill="#72D6CE" />
<rect x="24" y="11" width="1" height="1" fill="#72D6CE" />
<rect x="25" y="11" width="1" height="1" fill="#72D6CE" />
<rect x="26" y="11" width="1" height="1" fill="#FDF7ED" />
<rect x="27" y="11" width="1" height="1" fill="#FDF7ED" />
<rect x="28" y="11" width="1" height="1" fill="#222222" />
<rect x="29" y="11" width="1" height="1" fill="#222222" />
<rect x="30" y="11" width="1" height="1" fill="#222222" />
<rect x="35" y="11" width="1" height="1" fill="#222222" />
<rect x="36" y="11" width="1" height="1" fill="#222222" />
<rect x="37" y="11" width="1" height="1" fill="#222222" />
<rect x="38" y="11" width="1" height="1" fill="#222222" />
<rect x="39" y="11" width="1" height="1" fill="#222222" />
<rect x="40" y="11" width="1" height="1" fill="#222222" />
<rect x="41" y="11" width="1" height="1" fill="#222222" />
<rect x="42" y="11" width="1" height="1" fill="#222222" />
<rect x="43" y="11" width="1" height="1" fill="#222222" />
<rect x="53" y="11" width="1" height="1" fill="#222222" />
<rect x="54" y="11" width="1" height="1" fill="#DC4A7B" />
<rect x="55" y="11" width="1" height="1" fill="#DC4A7B" />
<rect x="56" y="11" width="1" height="1" fill="#222222" />
<rect x="3" y="12" width="1" height="1" fill="#222222" />
<rect x="4" y="12" width="1" height="1" fill="#72D6CE" />
<rect x="5" y="12" width="1" height="1" fill="#72D6CE" />
<rect x="6" y="12" width="1" height="1" fill="#72D6CE" />
<rect x="7" y="12" width="1" height="1" fill="#72D6CE" />
<rect x="8" y="12" width="1" height="1" fill="#72D6CE" />
<rect x="9" y="12" width="1" height="1" fill="#72D6CE" />
<rect x="10" y="12" width="1" height="1" fill="#FDF7ED" />
<rect x="11" y="12" width="1" height="1" fill="#FDF7ED" />
<rect x="12" y="12" width="1" height="1" fill="#222222" />
<rect x="19" y="12" width="1" height="1" fill="#222222" />
<rect x="20" y="12" width="1" height="1" fill="#72D6CE" />
<rect x="21" y="12" width="1" height="1" fill="#72D6CE" />
<rect x="22" y="12" width="1" height="1" fill="#417089" />
<rect x="23" y="12" width="1" height="1" fill="#72D6CE" />
<rect x="24" y="12" width="1" height="1" fill="#72D6CE" />
<rect x="25" y="12" width="1" height="1" fill="#72D6CE" />
<rect x="26" y="12" width="1" height="1" fill="#72D6CE" />
<rect x="27" y="12" width="1" height="1" fill="#72D6CE" />
<rect x="28" y="12" width="1" height="1" fill="#FDF7ED" />
<rect x="29" y="12" width="1" height="1" fill="#FDF7ED" />
<rect x="30" y="12" width="1" height="1" fill="#222222" />
<rect x="35" y="12" width="1" height="1" fill="#222222" />
<rect x="36" y="12" width="1" height="1" fill="#72D6CE" />
<rect x="37" y="12" width="1" height="1" fill="#72D6CE" />
<rect x="38" y="12" width="1" height="1" fill="#72D6CE" />
<rect x="39" y="12" width="1" height="1" fill="#72D6CE" />
<rect x="40" y="12" width="1" height="1" fill="#72D6CE" />
<rect x="41" y="12" width="1" height="1" fill="#72D6CE" />
<rect x="42" y="12" width="1" height="1" fill="#FDF7ED" />
<rect x="43" y="12" width="1" height="1" fill="#FDF7ED" />
<rect x="44" y="12" width="1" height="1" fill="#222222" />
<rect x="45" y="12" width="1" height="1" fill="#222222" />
<rect x="46" y="12" width="1" height="1" fill="#222222" />
<rect x="51" y="12" width="1" height="1" fill="#222222" />
<rect x="52" y="12" width="1" height="1" fill="#222222" />
<rect x="53" y="12" width="1" height="1" fill="#222222" />
<rect x="54" y="12" width="1" height="1" fill="#222222" />
<rect x="55" y="12" width="1" height="1" fill="#222222" />
<rect x="56" y="12" width="1" height="1" fill="#222222" />
<rect x="57" y="12" width="1" height="1" fill="#222222" />
<rect x="58" y="12" width="1" height="1" fill="#222222" />
<rect x="59" y="12" width="1" height="1" fill="#222222" />
<rect x="60" y="12" width="1" height="1" fill="#222222" />
<rect x="3" y="13" width="1" height="1" fill="#222222" />
<rect x="4" y="13" width="1" height="1" fill="#72D6CE" />
<rect x="5" y="13" width="1" height="1" fill="#72D6CE" />
<rect x="6" y="13" width="1" height="1" fill="#417089" />
<rect x="7" y="13" width="1" height="1" fill="#417089" />
<rect x="8" y="13" width="1" height="1" fill="#417089" />
<rect x="9" y="13" width="1" height="1" fill="#417089" />
<rect x="10" y="13" width="1" height="1" fill="#417089" />
<rect x="11" y="13" width="1" height="1" fill="#417089" />
<rect x="12" y="13" width="1" height="1" fill="#222222" />
<rect x="13" y="13" width="1" height="1" fill="#222222" />
<rect x="14" y="13" width="1" height="1" fill="#222222" />
<rect x="19" y="13" width="1" height="1" fill="#222222" />
<rect x="20" y="13" width="1" height="1" fill="#72D6CE" />
<rect x="21" y="13" width="1" height="1" fill="#72D6CE" />
<rect x="22" y="13" width="1" height="1" fill="#417089" />
<rect x="23" y="13" width="1" height="1" fill="#72D6CE" />
<rect x="24" y="13" width="1" height="1" fill="#417089" />
<rect x="25" y="13" width="1" height="1" fill="#72D6CE" />
<rect x="26" y="13" width="1" height="1" fill="#417089" />
<rect x="27" y="13" width="1" height="1" fill="#72D6CE" />
<rect x="28" y="13" width="1" height="1" fill="#417089" />
<rect x="29" y="13" width="1" height="1" fill="#FDF7ED" />
<rect x="30" y="13" width="1" height="1" fill="#222222" />
<rect x="35" y="13" width="1" height="1" fill="#222222" />
<rect x="36" y="13" width="1" height="1" fill="#72D6CE" />
<rect x="37" y="13" width="1" height="1" fill="#72D6CE" />
<rect x="38" y="13" width="1" height="1" fill="#417089" />
<rect x="39" y="13" width="1" height="1" fill="#72D6CE" />
<rect x="40" y="13" width="1" height="1" fill="#72D6CE" />
<rect x="41" y="13" width="1" height="1" fill="#72D6CE" />
<rect x="42" y="13" width="1" height="1" fill="#72D6CE" />
<rect x="43" y="13" width="1" height="1" fill="#72D6CE" />
<rect x="44" y="13" width="1" height="1" fill="#FDF7ED" />
<rect x="45" y="13" width="1" height="1" fill="#FDF7ED" />
<rect x="46" y="13" width="1" height="1" fill="#222222" />
<rect x="51" y="13" width="1" height="1" fill="#222222" />
<rect x="52" y="13" width="1" height="1" fill="#72D6CE" />
<rect x="53" y="13" width="1" height="1" fill="#72D6CE" />
<rect x="54" y="13" width="1" height="1" fill="#72D6CE" />
<rect x="55" y="13" width="1" height="1" fill="#72D6CE" />
<rect x="56" y="13" width="1" height="1" fill="#72D6CE" />
<rect x="57" y="13" width="1" height="1" fill="#72D6CE" />
<rect x="58" y="13" width="1" height="1" fill="#FDF7ED" />
<rect x="59" y="13" width="1" height="1" fill="#FDF7ED" />
<rect x="60" y="13" width="1" height="1" fill="#222222" />
<rect x="3" y="14" width="1" height="1" fill="#222222" />
<rect x="4" y="14" width="1" height="1" fill="#72D6CE" />
<rect x="5" y="14" width="1" height="1" fill="#72D6CE" />
<rect x="6" y="14" width="1" height="1" fill="#417089" />
<rect x="7" y="14" width="1" height="1" fill="#72D6CE" />
<rect x="8" y="14" width="1" height="1" fill="#72D6CE" />
<rect x="9" y="14" width="1" height="1" fill="#72D6CE" />
<rect x="10" y="14" width="1" height="1" fill="#72D6CE" />
<rect x="11" y="14" width="1" height="1" fill="#72D6CE" />
<rect x="12" y="14" width="1" height="1" fill="#FDF7ED" />
<rect x="13" y="14" width="1" height="1" fill="#FDF7ED" />
<rect x="14" y="14" width="1" height="1" fill="#222222" />
<rect x="19" y="14" width="1" height="1" fill="#222222" />
<rect x="20" y="14" width="1" height="1" fill="#72D6CE" />
<rect x="21" y="14" width="1" height="1" fill="#72D6CE" />
<rect x="22" y="14" width="1" height="1" fill="#417089" />
<rect x="23" y="14" width="1" height="1" fill="#72D6CE" />
<rect x="24" y="14" width="1" height="1" fill="#417089" />
<rect x="25" y="14" width="1" height="1" fill="#72D6CE" />
<rect x="26" y="14" width="1" height="1" fill="#417089" />
<rect x="27" y="14" width="1" height="1" fill="#72D6CE" />
<rect x="28" y="14" width="1" height="1" fill="#417089" />
<rect x="29" y="14" width="1" height="1" fill="#FDF7ED" />
<rect x="30" y="14" width="1" height="1" fill="#222222" />
<rect x="35" y="14" width="1" height="1" fill="#222222" />
<rect x="36" y="14" width="1" height="1" fill="#72D6CE" />
<rect x="37" y="14" width="1" height="1" fill="#72D6CE" />
<rect x="38" y="14" width="1" height="1" fill="#417089" />
<rect x="39" y="14" width="1" height="1" fill="#72D6CE" />
<rect x="40" y="14" width="1" height="1" fill="#417089" />
<rect x="41" y="14" width="1" height="1" fill="#72D6CE" />
<rect x="42" y="14" width="1" height="1" fill="#417089" />
<rect x="43" y="14" width="1" height="1" fill="#72D6CE" />
<rect x="44" y="14" width="1" height="1" fill="#417089" />
<rect x="45" y="14" width="1" height="1" fill="#FDF7ED" />
<rect x="46" y="14" width="1" height="1" fill="#222222" />
<rect x="51" y="14" width="1" height="1" fill="#222222" />
<rect x="52" y="14" width="1" height="1" fill="#72D6CE" />
<rect x="53" y="14" width="1" height="1" fill="#72D6CE" />
<rect x="54" y="14" width="1" height="1" fill="#417089" />
<rect x="55" y="14" width="1" height="1" fill="#417089" />
<rect x="56" y="14" width="1" height="1" fill="#417089" />
<rect x="57" y="14" width="1" height="1" fill="#417089" />
<rect x="58" y="14" width="1" height="1" fill="#417089" />
<rect x="59" y="14" width="1" height="1" fill="#417089" />
<rect x="60" y="14" width="1" height="1" fill="#222222" />
<rect x="61" y="14" width="1" height="1" fill="#222222" />
<rect x="62" y="14" width="1" height="1" fill="#222222" />
<rect x="3" y="15" width="1" height="1" fill="#222222" />
<rect x="4" y="15" width="1" height="1" fill="#72D6CE" />
<rect x="5" y="15" width="1" height="1" fill="#72D6CE" />
<rect x="6" y="15" width="1" height="1" fill="#417089" />
<rect x="7" y="15" width="1" height="1" fill="#72D6CE" />
<rect x="8" y="15" width="1" height="1" fill="#417089" />
<rect x="9" y="15" width="1" height="1" fill="#72D6CE" />
<rect x="10" y="15" width="1" height="1" fill="#417089" />
<rect x="11" y="15" width="1" height="1" fill="#72D6CE" />
<rect x="12" y="15" width="1" height="1" fill="#417089" />
<rect x="13" y="15" width="1" height="1" fill="#FDF7ED" />
<rect x="14" y="15" width="1" height="1" fill="#222222" />
<rect x="19" y="15" width="1" height="1" fill="#222222" />
<rect x="20" y="15" width="1" height="1" fill="#72D6CE" />
<rect x="21" y="15" width="1" height="1" fill="#72D6CE" />
<rect x="22" y="15" width="1" height="1" fill="#417089" />
<rect x="23" y="15" width="1" height="1" fill="#72D6CE" />
<rect x="24" y="15" width="1" height="1" fill="#417089" />
<rect x="25" y="15" width="1" height="1" fill="#72D6CE" />
<rect x="26" y="15" width="1" height="1" fill="#417089" />
<rect x="27" y="15" width="1" height="1" fill="#72D6CE" />
<rect x="28" y="15" width="1" height="1" fill="#417089" />
<rect x="29" y="15" width="1" height="1" fill="#FDF7ED" />
<rect x="30" y="15" width="1" height="1" fill="#222222" />
<rect x="35" y="15" width="1" height="1" fill="#222222" />
<rect x="36" y="15" width="1" height="1" fill="#72D6CE" />
<rect x="37" y="15" width="1" height="1" fill="#72D6CE" />
<rect x="38" y="15" width="1" height="1" fill="#417089" />
<rect x="39" y="15" width="1" height="1" fill="#72D6CE" />
<rect x="40" y="15" width="1" height="1" fill="#417089" />
<rect x="41" y="15" width="1" height="1" fill="#72D6CE" />
<rect x="42" y="15" width="1" height="1" fill="#417089" />
<rect x="43" y="15" width="1" height="1" fill="#72D6CE" />
<rect x="44" y="15" width="1" height="1" fill="#417089" />
<rect x="45" y="15" width="1" height="1" fill="#FDF7ED" />
<rect x="46" y="15" width="1" height="1" fill="#222222" />
<rect x="51" y="15" width="1" height="1" fill="#222222" />
<rect x="52" y="15" width="1" height="1" fill="#72D6CE" />
<rect x="53" y="15" width="1" height="1" fill="#72D6CE" />
<rect x="54" y="15" width="1" height="1" fill="#417089" />
<rect x="55" y="15" width="1" height="1" fill="#72D6CE" />
<rect x="56" y="15" width="1" height="1" fill="#72D6CE" />
<rect x="57" y="15" width="1" height="1" fill="#72D6CE" />
<rect x="58" y="15" width="1" height="1" fill="#72D6CE" />
<rect x="59" y="15" width="1" height="1" fill="#72D6CE" />
<rect x="60" y="15" width="1" height="1" fill="#FDF7ED" />
<rect x="61" y="15" width="1" height="1" fill="#FDF7ED" />
<rect x="62" y="15" width="1" height="1" fill="#222222" />
<rect x="3" y="16" width="1" height="1" fill="#222222" />
<rect x="4" y="16" width="1" height="1" fill="#72D6CE" />
<rect x="5" y="16" width="1" height="1" fill="#72D6CE" />
<rect x="6" y="16" width="1" height="1" fill="#417089" />
<rect x="7" y="16" width="1" height="1" fill="#72D6CE" />
<rect x="8" y="16" width="1" height="1" fill="#417089" />
<rect x="9" y="16" width="1" height="1" fill="#72D6CE" />
<rect x="10" y="16" width="1" height="1" fill="#417089" />
<rect x="11" y="16" width="1" height="1" fill="#72D6CE" />
<rect x="12" y="16" width="1" height="1" fill="#417089" />
<rect x="13" y="16" width="1" height="1" fill="#FDF7ED" />
<rect x="14" y="16" width="1" height="1" fill="#222222" />
<rect x="19" y="16" width="1" height="1" fill="#222222" />
<rect x="20" y="16" width="1" height="1" fill="#72D6CE" />
<rect x="21" y="16" width="1" height="1" fill="#72D6CE" />
<rect x="22" y="16" width="1" height="1" fill="#417089" />
<rect x="23" y="16" width="1" height="1" fill="#72D6CE" />
<rect x="24" y="16" width="1" height="1" fill="#72D6CE" />
<rect x="25" y="16" width="1" height="1" fill="#72D6CE" />
<rect x="26" y="16" width="1" height="1" fill="#72D6CE" />
<rect x="27" y="16" width="1" height="1" fill="#72D6CE" />
<rect x="28" y="16" width="1" height="1" fill="#FDF7ED" />
<rect x="29" y="16" width="1" height="1" fill="#FDF7ED" />
<rect x="30" y="16" width="1" height="1" fill="#222222" />
<rect x="35" y="16" width="1" height="1" fill="#222222" />
<rect x="36" y="16" width="1" height="1" fill="#72D6CE" />
<rect x="37" y="16" width="1" height="1" fill="#72D6CE" />
<rect x="38" y="16" width="1" height="1" fill="#417089" />
<rect x="39" y="16" width="1" height="1" fill="#72D6CE" />
<rect x="40" y="16" width="1" height="1" fill="#417089" />
<rect x="41" y="16" width="1" height="1" fill="#72D6CE" />
<rect x="42" y="16" width="1" height="1" fill="#417089" />
<rect x="43" y="16" width="1" height="1" fill="#72D6CE" />
<rect x="44" y="16" width="1" height="1" fill="#417089" />
<rect x="45" y="16" width="1" height="1" fill="#FDF7ED" />
<rect x="46" y="16" width="1" height="1" fill="#222222" />
<rect x="51" y="16" width="1" height="1" fill="#222222" />
<rect x="52" y="16" width="1" height="1" fill="#72D6CE" />
<rect x="53" y="16" width="1" height="1" fill="#72D6CE" />
<rect x="54" y="16" width="1" height="1" fill="#417089" />
<rect x="55" y="16" width="1" height="1" fill="#72D6CE" />
<rect x="56" y="16" width="1" height="1" fill="#417089" />
<rect x="57" y="16" width="1" height="1" fill="#72D6CE" />
<rect x="58" y="16" width="1" height="1" fill="#417089" />
<rect x="59" y="16" width="1" height="1" fill="#72D6CE" />
<rect x="60" y="16" width="1" height="1" fill="#417089" />
<rect x="61" y="16" width="1" height="1" fill="#FDF7ED" />
<rect x="62" y="16" width="1" height="1" fill="#222222" />
<rect x="3" y="17" width="1" height="1" fill="#222222" />
<rect x="4" y="17" width="1" height="1" fill="#72D6CE" />
<rect x="5" y="17" width="1" height="1" fill="#72D6CE" />
<rect x="6" y="17" width="1" height="1" fill="#417089" />
<rect x="7" y="17" width="1" height="1" fill="#72D6CE" />
<rect x="8" y="17" width="1" height="1" fill="#417089" />
<rect x="9" y="17" width="1" height="1" fill="#72D6CE" />
<rect x="10" y="17" width="1" height="1" fill="#417089" />
<rect x="11" y="17" width="1" height="1" fill="#72D6CE" />
<rect x="12" y="17" width="1" height="1" fill="#417089" />
<rect x="13" y="17" width="1" height="1" fill="#FDF7ED" />
<rect x="14" y="17" width="1" height="1" fill="#222222" />
<rect x="19" y="17" width="1" height="1" fill="#222222" />
<rect x="20" y="17" width="1" height="1" fill="#72D6CE" />
<rect x="21" y="17" width="1" height="1" fill="#72D6CE" />
<rect x="22" y="17" width="1" height="1" fill="#417089" />
<rect x="23" y="17" width="1" height="1" fill="#417089" />
<rect x="24" y="17" width="1" height="1" fill="#417089" />
<rect x="25" y="17" width="1" height="1" fill="#417089" />
<rect x="26" y="17" width="1" height="1" fill="#417089" />
<rect x="27" y="17" width="1" height="1" fill="#417089" />
<rect x="28" y="17" width="1" height="1" fill="#222222" />
<rect x="29" y="17" width="1" height="1" fill="#222222" />
<rect x="30" y="17" width="1" height="1" fill="#222222" />
<rect x="35" y="17" width="1" height="1" fill="#222222" />
<rect x="36" y="17" width="1" height="1" fill="#72D6CE" />
<rect x="37" y="17" width="1" height="1" fill="#72D6CE" />
<rect x="38" y="17" width="1" height="1" fill="#417089" />
<rect x="39" y="17" width="1" height="1" fill="#72D6CE" />
<rect x="40" y="17" width="1" height="1" fill="#72D6CE" />
<rect x="41" y="17" width="1" height="1" fill="#72D6CE" />
<rect x="42" y="17" width="1" height="1" fill="#72D6CE" />
<rect x="43" y="17" width="1" height="1" fill="#72D6CE" />
<rect x="44" y="17" width="1" height="1" fill="#FDF7ED" />
<rect x="45" y="17" width="1" height="1" fill="#FDF7ED" />
<rect x="46" y="17" width="1" height="1" fill="#222222" />
<rect x="51" y="17" width="1" height="1" fill="#222222" />
<rect x="52" y="17" width="1" height="1" fill="#72D6CE" />
<rect x="53" y="17" width="1" height="1" fill="#72D6CE" />
<rect x="54" y="17" width="1" height="1" fill="#417089" />
<rect x="55" y="17" width="1" height="1" fill="#72D6CE" />
<rect x="56" y="17" width="1" height="1" fill="#417089" />
<rect x="57" y="17" width="1" height="1" fill="#72D6CE" />
<rect x="58" y="17" width="1" height="1" fill="#417089" />
<rect x="59" y="17" width="1" height="1" fill="#72D6CE" />
<rect x="60" y="17" width="1" height="1" fill="#417089" />
<rect x="61" y="17" width="1" height="1" fill="#FDF7ED" />
<rect x="62" y="17" width="1" height="1" fill="#222222" />
<rect x="3" y="18" width="1" height="1" fill="#222222" />
<rect x="4" y="18" width="1" height="1" fill="#72D6CE" />
<rect x="5" y="18" width="1" height="1" fill="#72D6CE" />
<rect x="6" y="18" width="1" height="1" fill="#417089" />
<rect x="7" y="18" width="1" height="1" fill="#72D6CE" />
<rect x="8" y="18" width="1" height="1" fill="#72D6CE" />
<rect x="9" y="18" width="1" height="1" fill="#72D6CE" />
<rect x="10" y="18" width="1" height="1" fill="#72D6CE" />
<rect x="11" y="18" width="1" height="1" fill="#72D6CE" />
<rect x="12" y="18" width="1" height="1" fill="#FDF7ED" />
<rect x="13" y="18" width="1" height="1" fill="#FDF7ED" />
<rect x="14" y="18" width="1" height="1" fill="#222222" />
<rect x="19" y="18" width="1" height="1" fill="#222222" />
<rect x="20" y="18" width="1" height="1" fill="#72D6CE" />
<rect x="21" y="18" width="1" height="1" fill="#72D6CE" />
<rect x="22" y="18" width="1" height="1" fill="#417089" />
<rect x="23" y="18" width="1" height="1" fill="#417089" />
<rect x="24" y="18" width="1" height="1" fill="#417089" />
<rect x="25" y="18" width="1" height="1" fill="#417089" />
<rect x="26" y="18" width="1" height="1" fill="#417089" />
<rect x="27" y="18" width="1" height="1" fill="#417089" />
<rect x="28" y="18" width="1" height="1" fill="#222222" />
<rect x="35" y="18" width="1" height="1" fill="#222222" />
<rect x="36" y="18" width="1" height="1" fill="#72D6CE" />
<rect x="37" y="18" width="1" height="1" fill="#72D6CE" />
<rect x="38" y="18" width="1" height="1" fill="#417089" />
<rect x="39" y="18" width="1" height="1" fill="#417089" />
<rect x="40" y="18" width="1" height="1" fill="#417089" />
<rect x="41" y="18" width="1" height="1" fill="#417089" />
<rect x="42" y="18" width="1" height="1" fill="#417089" />
<rect x="43" y="18" width="1" height="1" fill="#417089" />
<rect x="44" y="18" width="1" height="1" fill="#222222" />
<rect x="45" y="18" width="1" height="1" fill="#222222" />
<rect x="46" y="18" width="1" height="1" fill="#222222" />
<rect x="51" y="18" width="1" height="1" fill="#222222" />
<rect x="52" y="18" width="1" height="1" fill="#72D6CE" />
<rect x="53" y="18" width="1" height="1" fill="#72D6CE" />
<rect x="54" y="18" width="1" height="1" fill="#417089" />
<rect x="55" y="18" width="1" height="1" fill="#72D6CE" />
<rect x="56" y="18" width="1" height="1" fill="#417089" />
<rect x="57" y="18" width="1" height="1" fill="#72D6CE" />
<rect x="58" y="18" width="1" height="1" fill="#417089" />
<rect x="59" y="18" width="1" height="1" fill="#72D6CE" />
<rect x="60" y="18" width="1" height="1" fill="#417089" />
<rect x="61" y="18" width="1" height="1" fill="#FDF7ED" />
<rect x="62" y="18" width="1" height="1" fill="#222222" />
<rect x="3" y="19" width="1" height="1" fill="#222222" />
<rect x="4" y="19" width="1" height="1" fill="#72D6CE" />
<rect x="5" y="19" width="1" height="1" fill="#72D6CE" />
<rect x="6" y="19" width="1" height="1" fill="#417089" />
<rect x="7" y="19" width="1" height="1" fill="#417089" />
<rect x="8" y="19" width="1" height="1" fill="#417089" />
<rect x="9" y="19" width="1" height="1" fill="#417089" />
<rect x="10" y="19" width="1" height="1" fill="#417089" />
<rect x="11" y="19" width="1" height="1" fill="#417089" />
<rect x="12" y="19" width="1" height="1" fill="#222222" />
<rect x="13" y="19" width="1" height="1" fill="#222222" />
<rect x="14" y="19" width="1" height="1" fill="#222222" />
<rect x="19" y="19" width="1" height="1" fill="#222222" />
<rect x="20" y="19" width="1" height="1" fill="#72D6CE" />
<rect x="21" y="19" width="1" height="1" fill="#72D6CE" />
<rect x="22" y="19" width="1" height="1" fill="#72D6CE" />
<rect x="23" y="19" width="1" height="1" fill="#72D6CE" />
<rect x="24" y="19" width="1" height="1" fill="#72D6CE" />
<rect x="25" y="19" width="1" height="1" fill="#72D6CE" />
<rect x="26" y="19" width="1" height="1" fill="#72D6CE" />
<rect x="27" y="19" width="1" height="1" fill="#FDF7ED" />
<rect x="28" y="19" width="1" height="1" fill="#222222" />
<rect x="35" y="19" width="1" height="1" fill="#222222" />
<rect x="36" y="19" width="1" height="1" fill="#72D6CE" />
<rect x="37" y="19" width="1" height="1" fill="#72D6CE" />
<rect x="38" y="19" width="1" height="1" fill="#417089" />
<rect x="39" y="19" width="1" height="1" fill="#417089" />
<rect x="40" y="19" width="1" height="1" fill="#417089" />
<rect x="41" y="19" width="1" height="1" fill="#417089" />
<rect x="42" y="19" width="1" height="1" fill="#417089" />
<rect x="43" y="19" width="1" height="1" fill="#417089" />
<rect x="44" y="19" width="1" height="1" fill="#222222" />
<rect x="51" y="19" width="1" height="1" fill="#222222" />
<rect x="52" y="19" width="1" height="1" fill="#72D6CE" />
<rect x="53" y="19" width="1" height="1" fill="#72D6CE" />
<rect x="54" y="19" width="1" height="1" fill="#417089" />
<rect x="55" y="19" width="1" height="1" fill="#72D6CE" />
<rect x="56" y="19" width="1" height="1" fill="#72D6CE" />
<rect x="57" y="19" width="1" height="1" fill="#72D6CE" />
<rect x="58" y="19" width="1" height="1" fill="#72D6CE" />
<rect x="59" y="19" width="1" height="1" fill="#72D6CE" />
<rect x="60" y="19" width="1" height="1" fill="#FDF7ED" />
<rect x="61" y="19" width="1" height="1" fill="#FDF7ED" />
<rect x="62" y="19" width="1" height="1" fill="#222222" />
<rect x="3" y="20" width="1" height="1" fill="#222222" />
<rect x="4" y="20" width="1" height="1" fill="#72D6CE" />
<rect x="5" y="20" width="1" height="1" fill="#72D6CE" />
<rect x="6" y="20" width="1" height="1" fill="#72D6CE" />
<rect x="7" y="20" width="1" height="1" fill="#72D6CE" />
<rect x="8" y="20" width="1" height="1" fill="#72D6CE" />
<rect x="9" y="20" width="1" height="1" fill="#72D6CE" />
<rect x="10" y="20" width="1" height="1" fill="#72D6CE" />
<rect x="11" y="20" width="1" height="1" fill="#FDF7ED" />
<rect x="12" y="20" width="1" height="1" fill="#222222" />
<rect x="19" y="20" width="1" height="1" fill="#222222" />
<rect x="20" y="20" width="1" height="1" fill="#417089" />
<rect x="21" y="20" width="1" height="1" fill="#417089" />
<rect x="22" y="20" width="1" height="1" fill="#417089" />
<rect x="23" y="20" width="1" height="1" fill="#417089" />
<rect x="24" y="20" width="1" height="1" fill="#417089" />
<rect x="25" y="20" width="1" height="1" fill="#417089" />
<rect x="26" y="20" width="1" height="1" fill="#417089" />
<rect x="27" y="20" width="1" height="1" fill="#72D6CE" />
<rect x="28" y="20" width="1" height="1" fill="#222222" />
<rect x="35" y="20" width="1" height="1" fill="#222222" />
<rect x="36" y="20" width="1" height="1" fill="#72D6CE" />
<rect x="37" y="20" width="1" height="1" fill="#72D6CE" />
<rect x="38" y="20" width="1" height="1" fill="#72D6CE" />
<rect x="39" y="20" width="1" height="1" fill="#72D6CE" />
<rect x="40" y="20" width="1" height="1" fill="#72D6CE" />
<rect x="41" y="20" width="1" height="1" fill="#72D6CE" />
<rect x="42" y="20" width="1" height="1" fill="#72D6CE" />
<rect x="43" y="20" width="1" height="1" fill="#FDF7ED" />
<rect x="44" y="20" width="1" height="1" fill="#222222" />
<rect x="51" y="20" width="1" height="1" fill="#222222" />
<rect x="52" y="20" width="1" height="1" fill="#72D6CE" />
<rect x="53" y="20" width="1" height="1" fill="#72D6CE" />
<rect x="54" y="20" width="1" height="1" fill="#417089" />
<rect x="55" y="20" width="1" height="1" fill="#417089" />
<rect x="56" y="20" width="1" height="1" fill="#417089" />
<rect x="57" y="20" width="1" height="1" fill="#417089" />
<rect x="58" y="20" width="1" height="1" fill="#417089" />
<rect x="59" y="20" width="1" height="1" fill="#417089" />
<rect x="60" y="20" width="1" height="1" fill="#222222" />
<rect x="61" y="20" width="1" height="1" fill="#222222" />
<rect x="62" y="20" width="1" height="1" fill="#222222" />
<rect x="3" y="21" width="1" height="1" fill="#222222" />
<rect x="4" y="21" width="1" height="1" fill="#417089" />
<rect x="5" y="21" width="1" height="1" fill="#417089" />
<rect x="6" y="21" width="1" height="1" fill="#417089" />
<rect x="7" y="21" width="1" height="1" fill="#417089" />
<rect x="8" y="21" width="1" height="1" fill="#417089" />
<rect x="9" y="21" width="1" height="1" fill="#417089" />
<rect x="10" y="21" width="1" height="1" fill="#417089" />
<rect x="11" y="21" width="1" height="1" fill="#72D6CE" />
<rect x="12" y="21" width="1" height="1" fill="#222222" />
<rect x="19" y="21" width="1" height="1" fill="#222222" />
<rect x="20" y="21" width="1" height="1" fill="#72D6CE" />
<rect x="21" y="21" width="1" height="1" fill="#72D6CE" />
<rect x="22" y="21" width="1" height="1" fill="#72D6CE" />
<rect x="23" y="21" width="1" height="1" fill="#72D6CE" />
<rect x="24" y="21" width="1" height="1" fill="#72D6CE" />
<rect x="25" y="21" width="1" height="1" fill="#72D6CE" />
<rect x="26" y="21" width="1" height="1" fill="#72D6CE" />
<rect x="27" y="21" width="1" height="1" fill="#FDF7ED" />
<rect x="28" y="21" width="1" height="1" fill="#222222" />
<rect x="35" y="21" width="1" height="1" fill="#222222" />
<rect x="36" y="21" width="1" height="1" fill="#417089" />
<rect x="37" y="21" width="1" height="1" fill="#417089" />
<rect x="38" y="21" width="1" height="1" fill="#417089" />
<rect x="39" y="21" width="1" height="1" fill="#417089" />
<rect x="40" y="21" width="1" height="1" fill="#417089" />
<rect x="41" y="21" width="1" height="1" fill="#417089" />
<rect x="42" y="21" width="1" height="1" fill="#417089" />
<rect x="43" y="21" width="1" height="1" fill="#72D6CE" />
<rect x="44" y="21" width="1" height="1" fill="#222222" />
<rect x="51" y="21" width="1" height="1" fill="#222222" />
<rect x="52" y="21" width="1" height="1" fill="#72D6CE" />
<rect x="53" y="21" width="1" height="1" fill="#72D6CE" />
<rect x="54" y="21" width="1" height="1" fill="#72D6CE" />
<rect x="55" y="21" width="1" height="1" fill="#72D6CE" />
<rect x="56" y="21" width="1" height="1" fill="#72D6CE" />
<rect x="57" y="21" width="1" height="1" fill="#72D6CE" />
<rect x="58" y="21" width="1" height="1" fill="#72D6CE" />
<rect x="59" y="21" width="1" height="1" fill="#FDF7ED" />
<rect x="60" y="21" width="1" height="1" fill="#222222" />
<rect x="3" y="22" width="1" height="1" fill="#222222" />
<rect x="4" y="22" width="1" height="1" fill="#72D6CE" />
<rect x="5" y="22" width="1" height="1" fill="#72D6CE" />
<rect x="6" y="22" width="1" height="1" fill="#72D6CE" />
<rect x="7" y="22" width="1" height="1" fill="#72D6CE" />
<rect x="8" y="22" width="1" height="1" fill="#72D6CE" />
<rect x="9" y="22" width="1" height="1" fill="#72D6CE" />
<rect x="10" y="22" width="1" height="1" fill="#72D6CE" />
<rect x="11" y="22" width="1" height="1" fill="#FDF7ED" />
<rect x="12" y="22" width="1" height="1" fill="#222222" />
<rect x="19" y="22" width="1" height="1" fill="#222222" />
<rect x="20" y="22" width="1" height="1" fill="#72D6CE" />
<rect x="21" y="22" width="1" height="1" fill="#72D6CE" />
<rect x="22" y="22" width="1" height="1" fill="#72D6CE" />
<rect x="23" y="22" width="1" height="1" fill="#72D6CE" />
<rect x="24" y="22" width="1" height="1" fill="#72D6CE" />
<rect x="25" y="22" width="1" height="1" fill="#72D6CE" />
<rect x="26" y="22" width="1" height="1" fill="#72D6CE" />
<rect x="27" y="22" width="1" height="1" fill="#FDF7ED" />
<rect x="28" y="22" width="1" height="1" fill="#222222" />
<rect x="35" y="22" width="1" height="1" fill="#222222" />
<rect x="36" y="22" width="1" height="1" fill="#72D6CE" />
<rect x="37" y="22" width="1" height="1" fill="#72D6CE" />
<rect x="38" y="22" width="1" height="1" fill="#72D6CE" />
<rect x="39" y="22" width="1" height="1" fill="#72D6CE" />
<rect x="40" y="22" width="1" height="1" fill="#72D6CE" />
<rect x="41" y="22" width="1" height="1" fill="#72D6CE" />
<rect x="42" y="22" width="1" height="1" fill="#72D6CE" />
<rect x="43" y="22" width="1" height="1" fill="#FDF7ED" />
<rect x="44" y="22" width="1" height="1" fill="#222222" />
<rect x="51" y="22" width="1" height="1" fill="#222222" />
<rect x="52" y="22" width="1" height="1" fill="#417089" />
<rect x="53" y="22" width="1" height="1" fill="#417089" />
<rect x="54" y="22" width="1" height="1" fill="#417089" />
<rect x="55" y="22" width="1" height="1" fill="#417089" />
<rect x="56" y="22" width="1" height="1" fill="#417089" />
<rect x="57" y="22" width="1" height="1" fill="#417089" />
<rect x="58" y="22" width="1" height="1" fill="#417089" />
<rect x="59" y="22" width="1" height="1" fill="#72D6CE" />
<rect x="60" y="22" width="1" height="1" fill="#222222" />
<rect x="3" y="23" width="1" height="1" fill="#222222" />
<rect x="4" y="23" width="1" height="1" fill="#72D6CE" />
<rect x="5" y="23" width="1" height="1" fill="#72D6CE" />
<rect x="6" y="23" width="1" height="1" fill="#72D6CE" />
<rect x="7" y="23" width="1" height="1" fill="#72D6CE" />
<rect x="8" y="23" width="1" height="1" fill="#72D6CE" />
<rect x="9" y="23" width="1" height="1" fill="#72D6CE" />
<rect x="10" y="23" width="1" height="1" fill="#72D6CE" />
<rect x="11" y="23" width="1" height="1" fill="#FDF7ED" />
<rect x="12" y="23" width="1" height="1" fill="#222222" />
<rect x="18" y="23" width="1" height="1" fill="#222222" />
<rect x="19" y="23" width="1" height="1" fill="#417089" />
<rect x="20" y="23" width="1" height="1" fill="#417089" />
<rect x="21" y="23" width="1" height="1" fill="#417089" />
<rect x="22" y="23" width="1" height="1" fill="#222222" />
<rect x="23" y="23" width="1" height="1" fill="#222222" />
<rect x="24" y="23" width="1" height="1" fill="#222222" />
<rect x="25" y="23" width="1" height="1" fill="#222222" />
<rect x="26" y="23" width="1" height="1" fill="#222222" />
<rect x="27" y="23" width="1" height="1" fill="#417089" />
<rect x="28" y="23" width="1" height="1" fill="#417089" />
<rect x="29" y="23" width="1" height="1" fill="#222222" />
<rect x="34" y="23" width="1" height="1" fill="#222222" />
<rect x="35" y="23" width="1" height="1" fill="#222222" />
<rect x="36" y="23" width="1" height="1" fill="#72D6CE" />
<rect x="37" y="23" width="1" height="1" fill="#72D6CE" />
<rect x="38" y="23" width="1" height="1" fill="#72D6CE" />
<rect x="39" y="23" width="1" height="1" fill="#72D6CE" />
<rect x="40" y="23" width="1" height="1" fill="#72D6CE" />
<rect x="41" y="23" width="1" height="1" fill="#72D6CE" />
<rect x="42" y="23" width="1" height="1" fill="#72D6CE" />
<rect x="43" y="23" width="1" height="1" fill="#FDF7ED" />
<rect x="44" y="23" width="1" height="1" fill="#222222" />
<rect x="51" y="23" width="1" height="1" fill="#222222" />
<rect x="52" y="23" width="1" height="1" fill="#72D6CE" />
<rect x="53" y="23" width="1" height="1" fill="#72D6CE" />
<rect x="54" y="23" width="1" height="1" fill="#72D6CE" />
<rect x="55" y="23" width="1" height="1" fill="#72D6CE" />
<rect x="56" y="23" width="1" height="1" fill="#72D6CE" />
<rect x="57" y="23" width="1" height="1" fill="#72D6CE" />
<rect x="58" y="23" width="1" height="1" fill="#72D6CE" />
<rect x="59" y="23" width="1" height="1" fill="#FDF7ED" />
<rect x="60" y="23" width="1" height="1" fill="#222222" />
<rect x="3" y="24" width="1" height="1" fill="#222222" />
<rect x="4" y="24" width="1" height="1" fill="#417089" />
<rect x="5" y="24" width="1" height="1" fill="#417089" />
<rect x="6" y="24" width="1" height="1" fill="#222222" />
<rect x="7" y="24" width="1" height="1" fill="#222222" />
<rect x="8" y="24" width="1" height="1" fill="#222222" />
<rect x="9" y="24" width="1" height="1" fill="#222222" />
<rect x="10" y="24" width="1" height="1" fill="#417089" />
<rect x="11" y="24" width="1" height="1" fill="#417089" />
<rect x="12" y="24" width="1" height="1" fill="#222222" />
<rect x="18" y="24" width="1" height="1" fill="#222222" />
<rect x="19" y="24" width="1" height="1" fill="#417089" />
<rect x="20" y="24" width="1" height="1" fill="#222222" />
<rect x="21" y="24" width="1" height="1" fill="#222222" />
<rect x="27" y="24" width="1" height="1" fill="#222222" />
<rect x="28" y="24" width="1" height="1" fill="#222222" />
<rect x="29" y="24" width="1" height="1" fill="#222222" />
<rect x="33" y="24" width="1" height="1" fill="#222222" />
<rect x="34" y="24" width="1" height="1" fill="#417089" />
<rect x="35" y="24" width="1" height="1" fill="#417089" />
<rect x="36" y="24" width="1" height="1" fill="#417089" />
<rect x="37" y="24" width="1" height="1" fill="#417089" />
<rect x="38" y="24" width="1" height="1" fill="#222222" />
<rect x="39" y="24" width="1" height="1" fill="#222222" />
<rect x="40" y="24" width="1" height="1" fill="#222222" />
<rect x="41" y="24" width="1" height="1" fill="#222222" />
<rect x="42" y="24" width="1" height="1" fill="#417089" />
<rect x="43" y="24" width="1" height="1" fill="#417089" />
<rect x="44" y="24" width="1" height="1" fill="#222222" />
<rect x="51" y="24" width="1" height="1" fill="#222222" />
<rect x="52" y="24" width="1" height="1" fill="#72D6CE" />
<rect x="53" y="24" width="1" height="1" fill="#72D6CE" />
<rect x="54" y="24" width="1" height="1" fill="#72D6CE" />
<rect x="55" y="24" width="1" height="1" fill="#72D6CE" />
<rect x="56" y="24" width="1" height="1" fill="#72D6CE" />
<rect x="57" y="24" width="1" height="1" fill="#72D6CE" />
<rect x="58" y="24" width="1" height="1" fill="#72D6CE" />
<rect x="59" y="24" width="1" height="1" fill="#FDF7ED" />
<rect x="60" y="24" width="1" height="1" fill="#222222" />
<rect x="3" y="25" width="1" height="1" fill="#222222" />
<rect x="4" y="25" width="1" height="1" fill="#417089" />
<rect x="5" y="25" width="1" height="1" fill="#222222" />
<rect x="10" y="25" width="1" height="1" fill="#222222" />
<rect x="11" y="25" width="1" height="1" fill="#222222" />
<rect x="12" y="25" width="1" height="1" fill="#222222" />
<rect x="18" y="25" width="1" height="1" fill="#222222" />
<rect x="19" y="25" width="1" height="1" fill="#222222" />
<rect x="33" y="25" width="1" height="1" fill="#222222" />
<rect x="34" y="25" width="1" height="1" fill="#222222" />
<rect x="35" y="25" width="1" height="1" fill="#222222" />
<rect x="36" y="25" width="1" height="1" fill="#222222" />
<rect x="37" y="25" width="1" height="1" fill="#222222" />
<rect x="42" y="25" width="1" height="1" fill="#222222" />
<rect x="43" y="25" width="1" height="1" fill="#417089" />
<rect x="44" y="25" width="1" height="1" fill="#222222" />
<rect x="51" y="25" width="1" height="1" fill="#222222" />
<rect x="52" y="25" width="1" height="1" fill="#222222" />
<rect x="53" y="25" width="1" height="1" fill="#222222" />
<rect x="54" y="25" width="1" height="1" fill="#417089" />
<rect x="55" y="25" width="1" height="1" fill="#417089" />
<rect x="56" y="25" width="1" height="1" fill="#417089" />
<rect x="57" y="25" width="1" height="1" fill="#222222" />
<rect x="58" y="25" width="1" height="1" fill="#222222" />
<rect x="59" y="25" width="1" height="1" fill="#222222" />
<rect x="60" y="25" width="1" height="1" fill="#222222" />
<rect x="3" y="26" width="1" height="1" fill="#222222" />
<rect x="4" y="26" width="1" height="1" fill="#222222" />
<rect x="43" y="26" width="1" height="1" fill="#222222" />
<rect x="44" y="26" width="1" height="1" fill="#222222" />
<rect x="54" y="26" width="1" height="1" fill="#222222" />
<rect x="55" y="26" width="1" height="1" fill="#222222" />
<rect x="56" y="26" width="1" height="1" fill="#417089" />
<rect x="57" y="26" width="1" height="1" fill="#222222" />
<rect x="56" y="27" width="1" height="1" fill="#222222" />
<rect x="57" y="27" width="1" height="1" fill="#222222" />
</svg>