<?xml version="1.0" encoding="UTF-8" ?>
<svg version="1.1" width="64" height="16" xmlns="http://www.w3.org/2000/svg" shape-rendering="crispEdges">
<rect x="3" y="2" width="1" height="1" fill="#222222" />
<rect x="4" y="2" width="1" height="1" fill="#222222" />
<rect x="5" y="2" width="1" height="1" fill="#222222" />
<rect x="6" y="2" width="1" height="1" fill="#222222" />
<rect x="7" y="2" width="1" height="1" fill="#222222" />
<rect x="8" y="2" width="1" height="1" fill="#222222" />
<rect x="9" y="2" width="1" height="1" fill="#222222" />
<rect x="10" y="2" width="1" height="1" fill="#222222" />
<rect x="11" y="2" width="1" height="1" fill="#222222" />
<rect x="12" y="2" width="1" height="1" fill="#222222" />
<rect x="3" y="3" width="1" height="1" fill="#222222" />
<rect x="4" y="3" width="1" height="1" fill="#D3BFA9" />
<rect x="5" y="3" width="1" height="1" fill="#FDF7ED" />
<rect x="6" y="3" width="1" height="1" fill="#FDF7ED" />
<rect x="7" y="3" width="1" height="1" fill="#FDF7ED" />
<rect x="8" y="3" width="1" height="1" fill="#FDF7ED" />
<rect x="9" y="3" width="1" height="1" fill="#FDF7ED" />
<rect x="10" y="3" width="1" height="1" fill="#FDF7ED" />
<rect x="11" y="3" width="1" height="1" fill="#FDF7ED" />
<rect x="12" y="3" width="1" height="1" fill="#222222" />
<rect x="51" y="3" width="1" height="1" fill="#222222" />
<rect x="52" y="3" width="1" height="1" fill="#222222" />
<rect x="53" y="3" width="1" height="1" fill="#222222" />
<rect x="54" y="3" width="1" height="1" fill="#222222" />
<rect x="55" y="3" width="1" height="1" fill="#222222" />
<rect x="56" y="3" width="1" height="1" fill="#222222" />
<rect x="57" y="3" width="1" height="1" fill="#222222" />
<rect x="58" y="3" width="1" height="1" fill="#222222" />
<rect x="59" y="3" width="1" height="1" fill="#222222" />
<rect x="60" y="3" width="1" height="1" fill="#222222" />
<rect x="3" y="4" width="1" height="1" fill="#222222" />
<rect x="4" y="4" width="1" height="1" fill="#D3BFA9" />
<rect x="5" y="4" width="1" height="1" fill="#FDF7ED" />
<rect x="6" y="4" width="1" height="1" fill="#FDF7ED" />
<rect x="7" y="4" width="1" height="1" fill="#FDF7ED" />
<rect x="8" y="4" width="1" height="1" fill="#FDF7ED" />
<rect x="9" y="4" width="1" height="1" fill="#FDF7ED" />
<rect x="10" y="4" width="1" height="1" fill="#FDF7ED" />
<rect x="11" y="4" width="1" height="1" fill="#FDF7ED" />
<rect x="12" y="4" width="1" height="1" fill="#222222" />
<rect x="19" y="4" width="1" height="1" fill="#222222" />
<rect x="20" y="4" width="1" height="1" fill="#222222" />
<rect x="21" y="4" width="1" height="1" fill="#222222" />
<rect x="22" y="4" width="1" height="1" fill="#222222" />
<rect x="23" y="4" width="1" height="1" fill="#222222" />
<rect x="24" y="4" width="1" height="1" fill="#222222" />
<rect x="25" y="4" width="1" height="1" fill="#222222" />
<rect x="26" y="4" width="1" height="1" fill="#222222" />
<rect x="27" y="4" width="1" height="1" fill="#222222" />
<rect x="28" y="4" width="1" height="1" fill="#222222" />
<rect x="51" y="4" width="1" height="1" fill="#222222" />
<rect x="52" y="4" width="1" height="1" fill="#D3BFA9" />
<rect x="53" y="4" width="1" height="1" fill="#FDF7ED" />
<rect x="54" y="4" width="1" height="1" fill="#FDF7ED" />
<rect x="55" y="4" width="1" height="1" fill="#FDF7ED" />
<rect x="56" y="4" width="1" height="1" fill="#FDF7ED" />
<rect x="57" y="4" width="1" height="1" fill="#FDF7ED" />
<rect x="58" y="4" width="1" height="1" fill="#FDF7ED" />
<rect x="59" y="4" width="1" height="1" fill="#FDF7ED" />
<rect x="60" y="4" width="1" height="1" fill="#222222" />
<rect x="3" y="5" width="1" height="1" fill="#222222" />
<rect x="4" y="5" width="1" height="1" fill="#D3BFA9" />
<rect x="5" y="5" width="1" height="1" fill="#FDF7ED" />
<rect x="6" y="5" width="1" height="1" fill="#222222" />
<rect x="7" y="5" width="1" height="1" fill="#222222" />
<rect x="8" y="5" width="1" height="1" fill="#FDF7ED" />
<rect x="9" y="5" width="1" height="1" fill="#FDF7ED" />
<rect x="10" y="5" width="1" height="1" fill="#FDF7ED" />
<rect x="11" y="5" width="1" height="1" fill="#222222" />
<rect x="12" y="5" width="1" height="1" fill="#222222" />
<rect x="19" y="5" width="1" height="1" fill="#222222" />
<rect x="20" y="5" width="1" height="1" fill="#D3BFA9" />
<rect x="21" y="5" width="1" height="1" fill="#FDF7ED" />
<rect x="22" y="5" width="1" height="1" fill="#FDF7ED" />
<rect x="23" y="5" width="1" height="1" fill="#FDF7ED" />
<rect x="24" y="5" width="1" height="1" fill="#FDF7ED" />
<rect x="25" y="5" width="1" height="1" fill="#FDF7ED" />
<rect x="26" y="5" width="1" height="1" fill="#FDF7ED" />
<rect x="27" y="5" width="1" height="1" fill="#FDF7ED" />
<rect x="28" y="5" width="1" height="1" fill="#222222" />
<rect x="35" y="5" width="1" height="1" fill="#222222" />
<rect x="36" y="5" width="1" height="1" fill="#222222" />
<rect x="37" y="5" width="1" height="1" fill="#222222" />
<rect x="38" y="5" width="1" height="1" fill="#222222" />
<rect x="39" y="5" width="1" height="1" fill="#222222" />
<rect x="40" y="5" width="1" height="1" fill="#222222" />
<rect x="41" y="5" width="1" height="1" fill="#222222" />
<rect x="42" y="5" width="1" height="1" fill="#222222" />
<rect x="43" y="5" width="1" height="1" fill="#222222" />
<rect x="44" y="5" width="1" height="1" fill="#222222" />
<rect x="51" y="5" width="1" height="1" fill="#222222" />
<rect x="52" y="5" width="1" height="1" fill="#D3BFA9" />
<rect x="53" y="5" width="1" height="1" fill="#FDF7ED" />
<rect x="54" y="5" width="1" height="1" fill="#FDF7ED" />
<rect x="55" y="5" width="1" height="1" fill="#FDF7ED" />
<rect x="56" y="5" width="1" height="1" fill="#FDF7ED" />
<rect x="57" y="5" width="1" height="1" fill="#FDF7ED" />
<rect x="58" y="5" width="1" height="1" fill="#FDF7ED" />
<rect x="59" y="5" width="1" height="1" fill="#FDF7ED" />
<rect x="60" y="5" width="1" height="1" fill="#222222" />
<rect x="3" y="6" width="1" height="1" fill="#222222" />
<rect x="4" y="6" width="1" height="1" fill="#D3BFA9" />
<rect x="5" y="6" width="1" height="1" fill="#FDF7ED" />
<rect x="6" y="6" width="1" height="1" fill="#222222" />
<rect x="7" y="6" width="1" height="1" fill="#222222" />
<rect x="8" y="6" width="1" height="1" fill="#FDF7ED" />
<rect x="9" y="6" width="1" height="1" fill="#FDF7ED" />
<rect x="10" y="6" width="1" height="1" fill="#FDF7ED" />
<rect x="11" y="6" width="1" height="1" fill="#222222" />
<rect x="12" y="6" width="1" height="1" fill="#222222" />
<rect x="19" y="6" width="1" height="1" fill="#222222" />
<rect x="20" y="6" width="1" height="1" fill="#D3BFA9" />
<rect x="21" y="6" width="1" height="1" fill="#FDF7ED" />
<rect x="22" y="6" width="1" height="1" fill="#FDF7ED" />
<rect x="23" y="6" width="1" height="1" fill="#FDF7ED" />
<rect x="24" y="6" width="1" height="1" fill="#FDF7ED" />
<rect x="25" y="6" width="1" height="1" fill="#FDF7ED" />
<rect x="26" y="6" width="1" height="1" fill="#FDF7ED" />
<rect x="27" y="6" width="1" height="1" fill="#FDF7ED" />
<rect x="28" y="6" width="1" height="1" fill="#222222" />
<rect x="35" y="6" width="1" height="1" fill="#222222" />
<rect x="36" y="6" width="1" height="1" fill="#D3BFA9" />
<rect x="37" y="6" width="1" height="1" fill="#FDF7ED" />
<rect x="38" y="6" width="1" height="1" fill="#FDF7ED" />
<rect x="39" y="6" width="1" height="1" fill="#FDF7ED" />
<rect x="40" y="6" width="1" height="1" fill="#FDF7ED" />
<rect x="41" y="6" width="1" height="1" fill="#FDF7ED" />
<rect x="42" y="6" width="1" height="1" fill="#FDF7ED" />
<rect x="43" y="6" width="1" height="1" fill="#FDF7ED" />
<rect x="44" y="6" width="1" height="1" fill="#222222" />
<rect x="51" y="6" width="1" height="1" fill="#222222" />
<rect x="52" y="6" width="1" height="1" fill="#D3BFA9" />
<rect x="53" y="6" width="1" height="1" fill="#FDF7ED" />
<rect x="54" y="6" width="1" height="1" fill="#222222" />
<rect x="55" y="6" width="1" height="1" fill="#222222" />
<rect x="56" y="6" width="1" height="1" fill="#FDF7ED" />
<rect x="57" y="6" width="1" height="1" fill="#FDF7ED" />
<rect x="58" y="6" width="1" height="1" fill="#FDF7ED" />
<rect x="59" y="6" width="1" height="1" fill="#222222" />
<rect x="60" y="6" width="1" height="1" fill="#222222" />
<rect x="3" y="7" width="1" height="1" fill="#222222" />
<rect x="4" y="7" width="1" height="1" fill="#D3BFA9" />
<rect x="5" y="7" width="1" height="1" fill="#FDF7ED" />
<rect x="6" y="7" width="1" height="1" fill="#D3BFA9" />
<rect x="7" y="7" width="1" height="1" fill="#D3BFA9" />
<rect x="8" y="7" width="1" height="1" fill="#FDF7ED" />
<rect x="9" y="7" width="1" height="1" fill="#222222" />
<rect x="10" y="7" width="1" height="1" fill="#FDF7ED" />
<rect x="11" y="7" width="1" height="1" fill="#D3BFA9" />
<rect x="12" y="7" width="1" height="1" fill="#222222" />
<rect x="19" y="7" width="1" height="1" fill="#222222" />
<rect x="20" y="7" width="1" height="1" fill="#D3BFA9" />
<rect x="21" y="7" width="1" height="1" fill="#FDF7ED" />
<rect x="22" y="7" width="1" height="1" fill="#222222" />
<rect x="23" y="7" width="1" height="1" fill="#222222" />
<rect x="24" y="7" width="1" height="1" fill="#FDF7ED" />
<rect x="25" y="7" width="1" height="1" fill="#FDF7ED" />
<rect x="26" y="7" width="1" height="1" fill="#FDF7ED" />
<rect x="27" y="7" width="1" height="1" fill="#222222" />
<rect x="28" y="7" width="1" height="1" fill="#222222" />
<rect x="35" y="7" width="1" height="1" fill="#222222" />
<rect x="36" y="7" width="1" height="1" fill="#D3BFA9" />
<rect x="37" y="7" width="1" height="1" fill="#FDF7ED" />
<rect x="38" y="7" width="1" height="1" fill="#FDF7ED" />
<rect x="39" y="7" width="1" height="1" fill="#FDF7ED" />
<rect x="40" y="7" width="1" height="1" fill="#FDF7ED" />
<rect x="41" y="7" width="1" height="1" fill="#FDF7ED" />
<rect x="42" y="7" width="1" height="1" fill="#FDF7ED" />
<rect x="43" y="7" width="1" height="1" fill="#FDF7ED" />
<rect x="44" y="7" width="1" height="1" fill="#222222" />
<rect x="51" y="7" width="1" height="1" fill="#222222" />
<rect x="52" y="7" width="1" height="1" fill="#D3BFA9" />
<rect x="53" y="7" width="1" height="1" fill="#FDF7ED" />
<rect x="54" y="7" width="1" height="1" fill="#222222" />
<rect x="55" y="7" width="1" height="1" fill="#222222" />
<rect x="56" y="7" width="1" height="1" fill="#FDF7ED" />
<rect x="57" y="7" width="1" height="1" fill="#FDF7ED" />
<rect x="58" y="7" width="1" height="1" fill="#FDF7ED" />
<rect x="59" y="7" width="1" height="1" fill="#222222" />
<rect x="60" y="7" width="1" height="1" fill="#222222" />
<rect x="3" y="8" width="1" height="1" fill="#222222" />
<rect x="4" y="8" width="1" height="1" fill="#D3BFA9" />
<rect x="5" y="8" width="1" height="1" fill="#FDF7ED" />
<rect x="6" y="8" width="1" height="1" fill="#FDF7ED" />
<rect x="7" y="8" width="1" height="1" fill="#FDF7ED" />
<rect x="8" y="8" width="1" height="1" fill="#FDF7ED" />
<rect x="9" y="8" width="1" height="1" fill="#FDF7ED" />
<rect x="10" y="8" width="1" height="1" fill="#FDF7ED" />
<rect x="11" y="8" width="1" height="1" fill="#FDF7ED" />
<rect x="12" y="8" width="1" height="1" fill="#222222" />
<rect x="19" y="8" width="1" height="1" fill="#222222" />
<rect x="20" y="8" width="1" height="1" fill="#D3BFA9" />
<rect x="21" y="8" width="1" height="1" fill="#FDF7ED" />
<rect x="22" y="8" width="1" height="1" fill="#222222" />
<rect x="23" y="8" width="1" height="1" fill="#222222" />
<rect x="24" y="8" width="1" height="1" fill="#FDF7ED" />
<rect x="25" y="8" width="1" height="1" fill="#FDF7ED" />
<rect x="26" y="8" width="1" height="1" fill="#FDF7ED" />
<rect x="27" y="8" width="1" height="1" fill="#222222" />
<rect x="28" y="8" width="1" height="1" fill="#222222" />
<rect x="35" y="8" width="1" height="1" fill="#222222" />
<rect x="36" y="8" width="1" height="1" fill="#D3BFA9" />
<rect x="37" y="8" width="1" height="1" fill="#FDF7ED" />
<rect x="38" y="8" width="1" height="1" fill="#222222" />
<rect x="39" y="8" width="1" height="1" fill="#222222" />
<rect x="40" y="8" width="1" height="1" fill="#FDF7ED" />
<rect x="41" y="8" width="1" height="1" fill="#FDF7ED" />
<rect x="42" y="8" width="1" height="1" fill="#FDF7ED" />
<rect x="43" y="8" width="1" height="1" fill="#222222" />
<rect x="44" y="8" width="1" height="1" fill="#222222" />
<rect x="51" y="8" width="1" height="1" fill="#222222" />
<rect x="52" y="8" width="1" height="1" fill="#D3BFA9" />
<rect x="53" y="8" width="1" height="1" fill="#FDF7ED" />
<rect x="54" y="8" width="1" height="1" fill="#D3BFA9" />
<rect x="55" y="8" width="1" height="1" fill="#D3BFA9" />
<rect x="56" y="8" width="1" height="1" fill="#FDF7ED" />
<rect x="57" y="8" width="1" height="1" fill="#222222" />
<rect x="58" y="8" width="1" height="1" fill="#FDF7ED" />
<rect x="59" y="8" width="1" height="1" fill="#D3BFA9" />
<rect x="60" y="8" width="1" height="1" fill="#222222" />
<rect x="3" y="9" width="1" height="1" fill="#222222" />
<rect x="4" y="9" width="1" height="1" fill="#D3BFA9" />
<rect x="5" y="9" width="1" height="1" fill="#FDF7ED" />
<rect x="6" y="9" width="1" height="1" fill="#FDF7ED" />
<rect x="7" y="9" width="1" height="1" fill="#FDF7ED" />
<rect x="8" y="9" width="1" height="1" fill="#FDF7ED" />
<rect x="9" y="9" width="1" height="1" fill="#FDF7ED" />
<rect x="10" y="9" width="1" height="1" fill="#FDF7ED" />
<rect x="11" y="9" width="1" height="1" fill="#FDF7ED" />
<rect x="12" y="9" width="1" height="1" fill="#222222" />
<rect x="19" y="9" width="1" height="1" fill="#222222" />
<rect x="20" y="9" width="1" height="1" fill="#D3BFA9" />
<rect x="21" y="9" width="1" height="1" fill="#FDF7ED" />
<rect x="22" y="9" width="1" height="1" fill="#D3BFA9" />
<rect x="23" y="9" width="1" height="1" fill="#D3BFA9" />
<rect x="24" y="9" width="1" height="1" fill="#FDF7ED" />
<rect x="25" y="9" width="1" height="1" fill="#222222" />
<rect x="26" y="9" width="1" height="1" fill="#FDF7ED" />
<rect x="27" y="9" width="1" height="1" fill="#D3BFA9" />
<rect x="28" y="9" width="1" height="1" fill="#222222" />
<rect x="35" y="9" width="1" height="1" fill="#222222" />
<rect x="36" y="9" width="1" height="1" fill="#D3BFA9" />
<rect x="37" y="9" width="1" height="1" fill="#FDF7ED" />
<rect x="38" y="9" width="1" height="1" fill="#222222" />
<rect x="39" y="9" width="1" height="1" fill="#222222" />
<rect x="40" y="9" width="1" height="1" fill="#FDF7ED" />
<rect x="41" y="9" width="1" height="1" fill="#FDF7ED" />
<rect x="42" y="9" width="1" height="1" fill="#FDF7ED" />
<rect x="43" y="9" width="1" height="1" fill="#222222" />
<rect x="44" y="9" width="1" height="1" fill="#222222" />
<rect x="51" y="9" width="1" height="1" fill="#222222" />
<rect x="52" y="9" width="1" height="1" fill="#D3BFA9" />
<rect x="53" y="9" width="1" height="1" fill="#FDF7ED" />
<rect x="54" y="9" width="1" height="1" fill="#FDF7ED" />
<rect x="55" y="9" width="1" height="1" fill="#FDF7ED" />
<rect x="56" y="9" width="1" height="1" fill="#FDF7ED" />
<rect x="57" y="9" width="1" height="1" fill="#FDF7ED" />
<rect x="58" y="9" width="1" height="1" fill="#FDF7ED" />
<rect x="59" y="9" width="1" height="1" fill="#FDF7ED" />
<rect x="60" y="9" width="1" height="1" fill="#222222" />
<rect x="3" y="10" width="1" height="1" fill="#222222" />
<rect x="4" y="10" width="1" height="1" fill="#222222" />
<rect x="5" y="10" width="1" height="1" fill="#222222" />
<rect x="6" y="10" width="1" height="1" fill="#222222" />
<rect x="7" y="10" width="1" height="1" fill="#D3BFA9" />
<rect x="8" y="10" width="1" height="1" fill="#D3BFA9" />
<rect x="9" y="10" width="1" height="1" fill="#222222" />
<rect x="10" y="10" width="1" height="1" fill="#222222" />
<rect x="11" y="10" width="1" height="1" fill="#222222" />
<rect x="12" y="10" width="1" height="1" fill="#222222" />
<rect x="19" y="10" width="1" height="1" fill="#222222" />
<rect x="20" y="10" width="1" height="1" fill="#D3BFA9" />
<rect x="21" y="10" width="1" height="1" fill="#FDF7ED" />
<rect x="22" y="10" width="1" height="1" fill="#FDF7ED" />
<rect x="23" y="10" width="1" height="1" fill="#FDF7ED" />
<rect x="24" y="10" width="1" height="1" fill="#FDF7ED" />
<rect x="25" y="10" width="1" height="1" fill="#FDF7ED" />
<rect x="26" y="10" width="1" height="1" fill="#FDF7ED" />
<rect x="27" y="10" width="1" height="1" fill="#FDF7ED" />
<rect x="28" y="10" width="1" height="1" fill="#222222" />
<rect x="35" y="10" width="1" height="1" fill="#222222" />
<rect x="36" y="10" width="1" height="1" fill="#D3BFA9" />
<rect x="37" y="10" width="1" height="1" fill="#FDF7ED" />
<rect x="38" y="10" width="1" height="1" fill="#D3BFA9" />
<rect x="39" y="10" width="1" height="1" fill="#D3BFA9" />
<rect x="40" y="10" width="1" height="1" fill="#FDF7ED" />
<rect x="41" y="10" width="1" height="1" fill="#222222" />
<rect x="42" y="10" width="1" height="1" fill="#FDF7ED" />
<rect x="43" y="10" width="1" height="1" fill="#D3BFA9" />
<rect x="44" y="10" width="1" height="1" fill="#222222" />
<rect x="51" y="10" width="1" height="1" fill="#222222" />
<rect x="52" y="10" width="1" height="1" fill="#D3BFA9" />
<rect x="53" y="10" width="1" height="1" fill="#FDF7ED" />
<rect x="54" y="10" width="1" height="1" fill="#FDF7ED" />
<rect x="55" y="10" width="1" height="1" fill="#FDF7ED" />
<rect x="56" y="10" width="1" height="1" fill="#FDF7ED" />
<rect x="57" y="10" width="1" height="1" fill="#FDF7ED" />
<rect x="58" y="10" width="1" height="1" fill="#FDF7ED" />
<rect x="59" y="10" width="1" height="1" fill="#FDF7ED" />
<rect x="60" y="10" width="1" height="1" fill="#222222" />
<rect x="6" y="11" width="1" height="1" fill="#222222" />
<rect x="7" y="11" width="1" height="1" fill="#FDF7ED" />
<rect x="8" y="11" width="1" height="1" fill="#FDF7ED" />
<rect x="9" y="11" width="1" height="1" fill="#222222" />
<rect x="19" y="11" width="1" height="1" fill="#222222" />
<rect x="20" y="11" width="1" height="1" fill="#D3BFA9" />
<rect x="21" y="11" width="1" height="1" fill="#FDF7ED" />
<rect x="22" y="11" width="1" height="1" fill="#FDF7ED" />
<rect x="23" y="11" width="1" height="1" fill="#FDF7ED" />
<rect x="24" y="11" width="1" height="1" fill="#FDF7ED" />
<rect x="25" y="11" width="1" height="1" fill="#FDF7ED" />
<rect x="26" y="11" width="1" height="1" fill="#FDF7ED" />
<rect x="27" y="11" width="1" height="1" fill="#FDF7ED" />
<rect x="28" y="11" width="1" height="1" fill="#222222" />
<rect x="35" y="11" width="1" height="1" fill="#222222" />
<rect x="36" y="11" width="1" height="1" fill="#D3BFA9" />
<rect x="37" y="11" width="1" height="1" fill="#FDF7ED" />
<rect x="38" y="11" width="1" height="1" fill="#FDF7ED" />
<rect x="39" y="11" width="1" height="1" fill="#FDF7ED" />
<rect x="40" y="11" width="1" height="1" fill="#FDF7ED" />
<rect x="41" y="11" width="1" height="1" fill="#FDF7ED" />
<rect x="42" y="11" width="1" height="1" fill="#FDF7ED" />
<rect x="43" y="11" width="1" height="1" fill="#FDF7ED" />
<rect x="44" y="11" width="1" height="1" fill="#222222" />
<rect x="51" y="11" width="1" height="1" fill="#222222" />
<rect x="52" y="11" width="1" height="1" fill="#222222" />
<rect x="53" y="11" width="1" height="1" fill="#222222" />
<rect x="54" y="11" width="1" height="1" fill="#222222" />
<rect x="55" y="11" width="1" height="1" fill="#D3BFA9" />
<rect x="56" y="11" width="1" height="1" fill="#D3BFA9" />
<rect x="57" y="11" width="1" height="1" fill="#222222" />
<rect x="58" y="11" width="1" height="1" fill="#222222" />
<rect x="59" y="11" width="1" height="1" fill="#222222" />
<rect x="60" y="11" width="1" height="1" fill="#222222" />
<rect x="5" y="12" width="1" height="1" fill="#222222" />
<rect x="6" y="12" width="1" height="1" fill="#222222" />
<rect x="7" y="12" width="1" height="1" fill="#FDF7ED" />
<rect x="8" y="12" width="1" height="1" fill="#FDF7ED" />
<rect x="9" y="12" width="1" height="1" fill="#222222" />
<rect x="10" y="12" width="1" height="1" fill="#222222" />
<rect x="19" y="12" width="1" height="1" fill="#222222" />
<rect x="20" y="12" width="1" height="1" fill="#222222" />
<rect x="21" y="12" width="1" height="1" fill="#222222" />
<rect x="22" y="12" width="1" height="1" fill="#222222" />
<rect x="23" y="12" width="1" height="1" fill="#D3BFA9" />
<rect x="24" y="12" width="1" height="1" fill="#D3BFA9" />
<rect x="25" y="12" width="1" height="1" fill="#222222" />
<rect x="26" y="12" width="1" height="1" fill="#222222" />
<rect x="27" y="12" width="1" height="1" fill="#222222" />
<rect x="28" y="12" width="1" height="1" fill="#222222" />
<rect x="35" y="12" width="1" height="1" fill="#222222" />
<rect x="36" y="12" width="1" height="1" fill="#D3BFA9" />
<rect x="37" y="12" width="1" height="1" fill="#FDF7ED" />
<rect x="38" y="12" width="1" height="1" fill="#FDF7ED" />
<rect x="39" y="12" width="1" height="1" fill="#FDF7ED" />
<rect x="40" y="12" width="1" height="1" fill="#FDF7ED" />
<rect x="41" y="12" width="1" height="1" fill="#FDF7ED" />
<rect x="42" y="12" width="1" height="1" fill="#FDF7ED" />
<rect x="43" y="12" width="1" height="1" fill="#FDF7ED" />
<rect x="44" y="12" width="1" height="1" fill="#222222" />
<rect x="53" y="12" width="1" height="1" fill="#222222" />
<rect x="54" y="12" width="1" height="1" fill="#222222" />
<rect x="55" y="12" width="1" height="1" fill="#FDF7ED" />
<rect x="56" y="12" width="1" height="1" fill="#FDF7ED" />
<rect x="57" y="12" width="1" height="1" fill="#222222" />
<rect x="58" y="12" width="1" height="1" fill="#222222" />
<rect x="4" y="13" width="1" height="1" fill="#222222" />
<rect x="5" y="13" width="1" height="1" fill="#222222" />
<rect x="6" y="13" width="1" height="1" fill="#FDF7ED" />
<rect x="7" y="13" width="1" height="1" fill="#FDF7ED" />
<rect x="8" y="13" width="1" height="1" fill="#FDF7ED" />
<rect x="9" y="13" width="1" height="1" fill="#FDF7ED" />
<rect x="10" y="13" width="1" height="1" fill="#222222" />
<rect x="11" y="13" width="1" height="1" fill="#222222" />
<rect x="20" y="13" width="1" height="1" fill="#222222" />
<rect x="21" y="13" width="1" height="1" fill="#222222" />
<rect x="22" y="13" width="1" height="1" fill="#222222" />
<rect x="23" y="13" width="1" height="1" fill="#FDF7ED" />
<rect x="24" y="13" width="1" height="1" fill="#FDF7ED" />
<rect x="25" y="13" width="1" height="1" fill="#222222" />
<rect x="26" y="13" width="1" height="1" fill="#222222" />
<rect x="27" y="13" width="1" height="1" fill="#222222" />
<rect x="35" y="13" width="1" height="1" fill="#222222" />
<rect x="36" y="13" width="1" height="1" fill="#222222" />
<rect x="37" y="13" width="1" height="1" fill="#222222" />
<rect x="38" y="13" width="1" height="1" fill="#222222" />
<rect x="39" y="13" width="1" height="1" fill="#D3BFA9" />
<rect x="40" y="13" width="1" height="1" fill="#D3BFA9" />
<rect x="41" y="13" width="1" height="1" fill="#222222" />
<rect x="42" y="13" width="1" height="1" fill="#222222" />
<rect x="43" y="13" width="1" height="1" fill="#222222" />
<rect x="44" y="13" width="1" height="1" fill="#222222" />
<rect x="52" y="13" width="1" height="1" fill="#222222" />
<rect x="53" y="13" width="1" height="1" fill="#222222" />
<rect x="54" y="13" width="1" height="1" fill="#FDF7ED" />
<rect x="55" y="13" width="1" height="1" fill="#FDF7ED" />
<rect x="56" y="13" width="1" height="1" fill="#FDF7ED" />
<rect x="57" y="13" width="1" height="1" fill="#FDF7ED" />
<rect x="58" y="13" width="1" height="1" fill="#222222" />
<rect x="59" y="13" width="1" height="1" fill="#222222" />
<rect x="4" y="14" width="1" height="1" fill="#222222" />
<rect x="5" y="14" width="1" height="1" fill="#D3BFA9" />
<rect x="6" y="14" width="1" height="1" fill="#222222" />
<rect x="7" y="14" width="1" height="1" fill="#222222" />
<rect x="8" y="14" width="1" height="1" fill="#222222" />
<rect x="9" y="14" width="1" height="1" fill="#222222" />
<rect x="10" y="14" width="1" height="1" fill="#D3BFA9" />
<rect x="11" y="14" width="1" height="1" fill="#222222" />
<rect x="20" y="14" width="1" height="1" fill="#222222" />
<rect x="21" y="14" width="1" height="1" fill="#D3BFA9" />
<rect x="22" y="14" width="1" height="1" fill="#FDF7ED" />
<rect x="23" y="14" width="1" height="1" fill="#FDF7ED" />
<rect x="24" y="14" width="1" height="1" fill="#FDF7ED" />
<rect x="25" y="14" width="1" height="1" fill="#FDF7ED" />
<rect x="26" y="14" width="1" height="1" fill="#D3BFA9" />
<rect x="27" y="14" width="1" height="1" fill="#222222" />
<rect x="35" y="14" width="1" height="1" fill="#222222" />
<rect x="36" y="14" width="1" height="1" fill="#D3BFA9" />
<rect x="37" y="14" width="1" height="1" fill="#FDF7ED" />
<rect x="38" y="14" width="1" height="1" fill="#FDF7ED" />
<rect x="39" y="14" width="1" height="1" fill="#FDF7ED" />
<rect x="40" y="14" width="1" height="1" fill="#FDF7ED" />
<rect x="41" y="14" width="1" height="1" fill="#FDF7ED" />
<rect x="42" y="14" width="1" height="1" fill="#FDF7ED" />
<rect x="43" y="14" width="1" height="1" fill="#D3BFA9" />
<rect x="44" y="14" width="1" height="1" fill="#222222" />
<rect x="52" y="14" width="1" height="1" fill="#222222" />
<rect x="53" y="14" width="1" height="1" fill="#D3BFA9" />
<rect x="54" y="14" width="1" height="1" fill="#222222" />
<rect x="55" y="14" width="1" height="1" fill="#222222" />
<rect x="56" y="14" width="1" height="1" fill="#222222" />
<rect x="57" y="14" width="1" height="1" fill="#222222" />
<rect x="58" y="14" width="1" height="1" fill="#D3BFA9" />
<rect x="59" y="14" width="1" height="1" fill="#222222" />
<rect x="4" y="15" width="1" height="1" fill="#222222" />
<rect x="5" y="15" width="1" height="1" fill="#222222" />
<rect x="6" y="15" width="1" height="1" fill="#222222" />
<rect x="9" y="15" width="1" height="1" fill="#222222" />
<rect x="10" y="15" width="1" height="1" fill="#222222" />
<rect x="11" y="15" width="1" height="1" fill="#222222" />
<rect x="20" y="15" width="1" height="1" fill="#222222" />
<rect x="21" y="15" width="1" height="1" fill="#222222" />
<rect x="22" y="15" width="1" height="1" fill="#222222" />
<rect x="23" y="15" width="1" height="1" fill="#222222" />
<rect x="24" y="15" width="1" height="1" fill="#222222" />
<rect x="25" y="15" width="1" height="1" fill="#222222" />
<rect x="26" y="15" width="1" height="1" fill="#222222" />
<rect x="27" y="15" width="1" height="1" fill="#222222" />
<rect x="35" y="15" width="1" height="1" fill="#222222" />
<rect x="36" y="15" width="1" height="1" fill="#222222" />
<rect x="37" y="15" width="1" height="1" fill="#222222" />
<rect x="38" y="15" width="1" height="1" fill="#222222" />
<rect x="39" y="15" width="1" height="1" fill="#222222" />
<rect x="40" y="15" width="1" height="1" fill="#222222" />
<rect x="41" y="15" width="1" height="1" fill="#222222" />
<rect x="42" y="15" width="1" height="1" fill="#222222" />
<rect x="43" y="15" width="1" height="1" fill="#222222" />
<rect x="44" y="15" width="1" height="1" fill="#222222" />
<rect x="52" y="15" width="1" height="1" fill="#222222" />
<rect x="53" y="15" width="1" height="1" fill="#222222" />
<rect x="54" y="15" width="1" height="1" fill="#222222" />
<rect x="57" y="15" width="1" height="1" fill="#222222" />
<rect x="58" y="15" width="1" height="1" fill="#222222" />
<rect x="59" y="15" width="1" height="1" fill="#222222" />
</svg>