<?xml version="1.0" encoding="UTF-8" ?>
<svg version="1.1" width="128" height="32" xmlns="http://www.w3.org/2000/svg" shape-rendering="crispEdges">
<rect x="45" y="6" width="1" height="1" fill="#1C1117" />
<rect x="46" y="6" width="1" height="1" fill="#1C1117" />
<rect x="47" y="6" width="1" height="1" fill="#1C1117" />
<rect x="48" y="6" width="1" height="1" fill="#1C1117" />
<rect x="78" y="6" width="1" height="1" fill="#1C1117" />
<rect x="79" y="6" width="1" height="1" fill="#1C1117" />
<rect x="80" y="6" width="1" height="1" fill="#1C1117" />
<rect x="81" y="6" width="1" height="1" fill="#1C1117" />
<rect x="43" y="7" width="1" height="1" fill="#1C1117" />
<rect x="44" y="7" width="1" height="1" fill="#1C1117" />
<rect x="45" y="7" width="1" height="1" fill="#9F294E" />
<rect x="46" y="7" width="1" height="1" fill="#DA4E38" />
<rect x="47" y="7" width="1" height="1" fill="#DA4E38" />
<rect x="48" y="7" width="1" height="1" fill="#DA4E38" />
<rect x="49" y="7" width="1" height="1" fill="#1C1117" />
<rect x="50" y="7" width="1" height="1" fill="#1C1117" />
<rect x="76" y="7" width="1" height="1" fill="#1C1117" />
<rect x="77" y="7" width="1" height="1" fill="#1C1117" />
<rect x="78" y="7" width="1" height="1" fill="#9F294E" />
<rect x="79" y="7" width="1" height="1" fill="#DA4E38" />
<rect x="80" y="7" width="1" height="1" fill="#DA4E38" />
<rect x="81" y="7" width="1" height="1" fill="#DA4E38" />
<rect x="82" y="7" width="1" height="1" fill="#1C1117" />
<rect x="83" y="7" width="1" height="1" fill="#1C1117" />
<rect x="14" y="8" width="1" height="1" fill="#1C1117" />
<rect x="15" y="8" width="1" height="1" fill="#1C1117" />
<rect x="16" y="8" width="1" height="1" fill="#1C1117" />
<rect x="17" y="8" width="1" height="1" fill="#1C1117" />
<rect x="42" y="8" width="1" height="1" fill="#1C1117" />
<rect x="43" y="8" width="1" height="1" fill="#9F294E" />
<rect x="44" y="8" width="1" height="1" fill="#9F294E" />
<rect x="45" y="8" width="1" height="1" fill="#DA4E38" />
<rect x="46" y="8" width="1" height="1" fill="#FDF7ED" />
<rect x="47" y="8" width="1" height="1" fill="#DA4E38" />
<rect x="48" y="8" width="1" height="1" fill="#DA4E38" />
<rect x="49" y="8" width="1" height="1" fill="#DA4E38" />
<rect x="50" y="8" width="1" height="1" fill="#DA4E38" />
<rect x="51" y="8" width="1" height="1" fill="#1C1117" />
<rect x="75" y="8" width="1" height="1" fill="#1C1117" />
<rect x="76" y="8" width="1" height="1" fill="#9F294E" />
<rect x="77" y="8" width="1" height="1" fill="#9F294E" />
<rect x="78" y="8" width="1" height="1" fill="#DA4E38" />
<rect x="79" y="8" width="1" height="1" fill="#FDF7ED" />
<rect x="80" y="8" width="1" height="1" fill="#DA4E38" />
<rect x="81" y="8" width="1" height="1" fill="#DA4E38" />
<rect x="82" y="8" width="1" height="1" fill="#DA4E38" />
<rect x="83" y="8" width="1" height="1" fill="#DA4E38" />
<rect x="84" y="8" width="1" height="1" fill="#1C1117" />
<rect x="12" y="9" width="1" height="1" fill="#1C1117" />
<rect x="13" y="9" width="1" height="1" fill="#1C1117" />
<rect x="14" y="9" width="1" height="1" fill="#9F294E" />
<rect x="15" y="9" width="1" height="1" fill="#DA4E38" />
<rect x="16" y="9" width="1" height="1" fill="#DA4E38" />
<rect x="17" y="9" width="1" height="1" fill="#DA4E38" />
<rect x="18" y="9" width="1" height="1" fill="#1C1117" />
<rect x="19" y="9" width="1" height="1" fill="#1C1117" />
<rect x="41" y="9" width="1" height="1" fill="#1C1117" />
<rect x="42" y="9" width="1" height="1" fill="#FDF7ED" />
<rect x="43" y="9" width="1" height="1" fill="#9F294E" />
<rect x="44" y="9" width="1" height="1" fill="#DA4E38" />
<rect x="45" y="9" width="1" height="1" fill="#DA4E38" />
<rect x="46" y="9" width="1" height="1" fill="#DA4E38" />
<rect x="47" y="9" width="1" height="1" fill="#DA4E38" />
<rect x="48" y="9" width="1" height="1" fill="#DA4E38" />
<rect x="49" y="9" width="1" height="1" fill="#FDF7ED" />
<rect x="50" y="9" width="1" height="1" fill="#DA4E38" />
<rect x="51" y="9" width="1" height="1" fill="#DA4E38" />
<rect x="52" y="9" width="1" height="1" fill="#1C1117" />
<rect x="74" y="9" width="1" height="1" fill="#1C1117" />
<rect x="75" y="9" width="1" height="1" fill="#FDF7ED" />
<rect x="76" y="9" width="1" height="1" fill="#9F294E" />
<rect x="77" y="9" width="1" height="1" fill="#DA4E38" />
<rect x="78" y="9" width="1" height="1" fill="#DA4E38" />
<rect x="79" y="9" width="1" height="1" fill="#DA4E38" />
<rect x="80" y="9" width="1" height="1" fill="#DA4E38" />
<rect x="81" y="9" width="1" height="1" fill="#DA4E38" />
<rect x="82" y="9" width="1" height="1" fill="#FDF7ED" />
<rect x="83" y="9" width="1" height="1" fill="#DA4E38" />
<rect x="84" y="9" width="1" height="1" fill="#DA4E38" />
<rect x="85" y="9" width="1" height="1" fill="#1C1117" />
<rect x="110" y="9" width="1" height="1" fill="#1C1117" />
<rect x="111" y="9" width="1" height="1" fill="#1C1117" />
<rect x="112" y="9" width="1" height="1" fill="#1C1117" />
<rect x="113" y="9" width="1" height="1" fill="#1C1117" />
<rect x="11" y="10" width="1" height="1" fill="#1C1117" />
<rect x="12" y="10" width="1" height="1" fill="#9F294E" />
<rect x="13" y="10" width="1" height="1" fill="#9F294E" />
<rect x="14" y="10" width="1" height="1" fill="#DA4E38" />
<rect x="15" y="10" width="1" height="1" fill="#FDF7ED" />
<rect x="16" y="10" width="1" height="1" fill="#DA4E38" />
<rect x="17" y="10" width="1" height="1" fill="#DA4E38" />
<rect x="18" y="10" width="1" height="1" fill="#DA4E38" />
<rect x="19" y="10" width="1" height="1" fill="#DA4E38" />
<rect x="20" y="10" width="1" height="1" fill="#1C1117" />
<rect x="40" y="10" width="1" height="1" fill="#1C1117" />
<rect x="41" y="10" width="1" height="1" fill="#9F294E" />
<rect x="42" y="10" width="1" height="1" fill="#9F294E" />
<rect x="43" y="10" width="1" height="1" fill="#DA4E38" />
<rect x="44" y="10" width="1" height="1" fill="#DA4E38" />
<rect x="45" y="10" width="1" height="1" fill="#FDF7ED" />
<rect x="46" y="10" width="1" height="1" fill="#DA4E38" />
<rect x="47" y="10" width="1" height="1" fill="#DA4E38" />
<rect x="48" y="10" width="1" height="1" fill="#DA4E38" />
<rect x="49" y="10" width="1" height="1" fill="#DA4E38" />
<rect x="50" y="10" width="1" height="1" fill="#DA4E38" />
<rect x="51" y="10" width="1" height="1" fill="#FDF7ED" />
<rect x="52" y="10" width="1" height="1" fill="#DA4E38" />
<rect x="53" y="10" width="1" height="1" fill="#1C1117" />
<rect x="73" y="10" width="1" height="1" fill="#1C1117" />
<rect x="74" y="10" width="1" height="1" fill="#9F294E" />
<rect x="75" y="10" width="1" height="1" fill="#9F294E" />
<rect x="76" y="10" width="1" height="1" fill="#DA4E38" />
<rect x="77" y="10" width="1" height="1" fill="#DA4E38" />
<rect x="78" y="10" width="1" height="1" fill="#FDF7ED" />
<rect x="79" y="10" width="1" height="1" fill="#DA4E38" />
<rect x="80" y="10" width="1" height="1" fill="#DA4E38" />
<rect x="81" y="10" width="1" height="1" fill="#DA4E38" />
<rect x="82" y="10" width="1" height="1" fill="#DA4E38" />
<rect x="83" y="10" width="1" height="1" fill="#DA4E38" />
<rect x="84" y="10" width="1" height="1" fill="#FDF7ED" />
<rect x="85" y="10" width="1" height="1" fill="#DA4E38" />
<rect x="86" y="10" width="1" height="1" fill="#1C1117" />
<rect x="108" y="10" width="1" height="1" fill="#1C1117" />
<rect x="109" y="10" width="1" height="1" fill="#1C1117" />
<rect x="110" y="10" width="1" height="1" fill="#9F294E" />
<rect x="111" y="10" width="1" height="1" fill="#DA4E38" />
<rect x="112" y="10" width="1" height="1" fill="#DA4E38" />
<rect x="113" y="10" width="1" height="1" fill="#DA4E38" />
<rect x="114" y="10" width="1" height="1" fill="#1C1117" />
<rect x="115" y="10" width="1" height="1" fill="#1C1117" />
<rect x="10" y="11" width="1" height="1" fill="#1C1117" />
<rect x="11" y="11" width="1" height="1" fill="#FDF7ED" />
<rect x="12" y="11" width="1" height="1" fill="#9F294E" />
<rect x="13" y="11" width="1" height="1" fill="#DA4E38" />
<rect x="14" y="11" width="1" height="1" fill="#DA4E38" />
<rect x="15" y="11" width="1" height="1" fill="#DA4E38" />
<rect x="16" y="11" width="1" height="1" fill="#DA4E38" />
<rect x="17" y="11" width="1" height="1" fill="#DA4E38" />
<rect x="18" y="11" width="1" height="1" fill="#FDF7ED" />
<rect x="19" y="11" width="1" height="1" fill="#DA4E38" />
<rect x="20" y="11" width="1" height="1" fill="#DA4E38" />
<rect x="21" y="11" width="1" height="1" fill="#1C1117" />
<rect x="40" y="11" width="1" height="1" fill="#1C1117" />
<rect x="41" y="11" width="1" height="1" fill="#9F294E" />
<rect x="42" y="11" width="1" height="1" fill="#9F294E" />
<rect x="43" y="11" width="1" height="1" fill="#FDF7ED" />
<rect x="44" y="11" width="1" height="1" fill="#DA4E38" />
<rect x="45" y="11" width="1" height="1" fill="#DA4E38" />
<rect x="46" y="11" width="1" height="1" fill="#DA4E38" />
<rect x="47" y="11" width="1" height="1" fill="#DA4E38" />
<rect x="48" y="11" width="1" height="1" fill="#FDF7ED" />
<rect x="49" y="11" width="1" height="1" fill="#DA4E38" />
<rect x="50" y="11" width="1" height="1" fill="#DA4E38" />
<rect x="51" y="11" width="1" height="1" fill="#DA4E38" />
<rect x="52" y="11" width="1" height="1" fill="#DA4E38" />
<rect x="53" y="11" width="1" height="1" fill="#1C1117" />
<rect x="73" y="11" width="1" height="1" fill="#1C1117" />
<rect x="74" y="11" width="1" height="1" fill="#9F294E" />
<rect x="75" y="11" width="1" height="1" fill="#9F294E" />
<rect x="76" y="11" width="1" height="1" fill="#FDF7ED" />
<rect x="77" y="11" width="1" height="1" fill="#DA4E38" />
<rect x="78" y="11" width="1" height="1" fill="#DA4E38" />
<rect x="79" y="11" width="1" height="1" fill="#DA4E38" />
<rect x="80" y="11" width="1" height="1" fill="#DA4E38" />
<rect x="81" y="11" width="1" height="1" fill="#FDF7ED" />
<rect x="82" y="11" width="1" height="1" fill="#DA4E38" />
<rect x="83" y="11" width="1" height="1" fill="#DA4E38" />
<rect x="84" y="11" width="1" height="1" fill="#DA4E38" />
<rect x="85" y="11" width="1" height="1" fill="#DA4E38" />
<rect x="86" y="11" width="1" height="1" fill="#1C1117" />
<rect x="107" y="11" width="1" height="1" fill="#1C1117" />
<rect x="108" y="11" width="1" height="1" fill="#9F294E" />
<rect x="109" y="11" width="1" height="1" fill="#9F294E" />
<rect x="110" y="11" width="1" height="1" fill="#DA4E38" />
<rect x="111" y="11" width="1" height="1" fill="#FDF7ED" />
<rect x="112" y="11" width="1" height="1" fill="#DA4E38" />
<rect x="113" y="11" width="1" height="1" fill="#DA4E38" />
<rect x="114" y="11" width="1" height="1" fill="#DA4E38" />
<rect x="115" y="11" width="1" height="1" fill="#DA4E38" />
<rect x="116" y="11" width="1" height="1" fill="#1C1117" />
<rect x="9" y="12" width="1" height="1" fill="#1C1117" />
<rect x="10" y="12" width="1" height="1" fill="#9F294E" />
<rect x="11" y="12" width="1" height="1" fill="#9F294E" />
<rect x="12" y="12" width="1" height="1" fill="#DA4E38" />
<rect x="13" y="12" width="1" height="1" fill="#DA4E38" />
<rect x="14" y="12" width="1" height="1" fill="#FDF7ED" />
<rect x="15" y="12" width="1" height="1" fill="#DA4E38" />
<rect x="16" y="12" width="1" height="1" fill="#DA4E38" />
<rect x="17" y="12" width="1" height="1" fill="#DA4E38" />
<rect x="18" y="12" width="1" height="1" fill="#DA4E38" />
<rect x="19" y="12" width="1" height="1" fill="#DA4E38" />
<rect x="20" y="12" width="1" height="1" fill="#FDF7ED" />
<rect x="21" y="12" width="1" height="1" fill="#DA4E38" />
<rect x="22" y="12" width="1" height="1" fill="#1C1117" />
<rect x="41" y="12" width="1" height="1" fill="#1C1117" />
<rect x="42" y="12" width="1" height="1" fill="#9F294E" />
<rect x="43" y="12" width="1" height="1" fill="#9F294E" />
<rect x="44" y="12" width="1" height="1" fill="#9F294E" />
<rect x="45" y="12" width="1" height="1" fill="#DA4E38" />
<rect x="46" y="12" width="1" height="1" fill="#DA4E38" />
<rect x="47" y="12" width="1" height="1" fill="#DA4E38" />
<rect x="48" y="12" width="1" height="1" fill="#DA4E38" />
<rect x="49" y="12" width="1" height="1" fill="#DA4E38" />
<rect x="50" y="12" width="1" height="1" fill="#DA4E38" />
<rect x="51" y="12" width="1" height="1" fill="#DA4E38" />
<rect x="52" y="12" width="1" height="1" fill="#1C1117" />
<rect x="74" y="12" width="1" height="1" fill="#1C1117" />
<rect x="75" y="12" width="1" height="1" fill="#9F294E" />
<rect x="76" y="12" width="1" height="1" fill="#9F294E" />
<rect x="77" y="12" width="1" height="1" fill="#9F294E" />
<rect x="78" y="12" width="1" height="1" fill="#DA4E38" />
<rect x="79" y="12" width="1" height="1" fill="#DA4E38" />
<rect x="80" y="12" width="1" height="1" fill="#DA4E38" />
<rect x="81" y="12" width="1" height="1" fill="#DA4E38" />
<rect x="82" y="12" width="1" height="1" fill="#DA4E38" />
<rect x="83" y="12" width="1" height="1" fill="#DA4E38" />
<rect x="84" y="12" width="1" height="1" fill="#DA4E38" />
<rect x="85" y="12" width="1" height="1" fill="#1C1117" />
<rect x="106" y="12" width="1" height="1" fill="#1C1117" />
<rect x="107" y="12" width="1" height="1" fill="#FDF7ED" />
<rect x="108" y="12" width="1" height="1" fill="#9F294E" />
<rect x="109" y="12" width="1" height="1" fill="#DA4E38" />
<rect x="110" y="12" width="1" height="1" fill="#DA4E38" />
<rect x="111" y="12" width="1" height="1" fill="#DA4E38" />
<rect x="112" y="12" width="1" height="1" fill="#DA4E38" />
<rect x="113" y="12" width="1" height="1" fill="#DA4E38" />
<rect x="114" y="12" width="1" height="1" fill="#FDF7ED" />
<rect x="115" y="12" width="1" height="1" fill="#DA4E38" />
<rect x="116" y="12" width="1" height="1" fill="#DA4E38" />
<rect x="117" y="12" width="1" height="1" fill="#1C1117" />
<rect x="9" y="13" width="1" height="1" fill="#1C1117" />
<rect x="10" y="13" width="1" height="1" fill="#9F294E" />
<rect x="11" y="13" width="1" height="1" fill="#9F294E" />
<rect x="12" y="13" width="1" height="1" fill="#FDF7ED" />
<rect x="13" y="13" width="1" height="1" fill="#DA4E38" />
<rect x="14" y="13" width="1" height="1" fill="#DA4E38" />
<rect x="15" y="13" width="1" height="1" fill="#DA4E38" />
<rect x="16" y="13" width="1" height="1" fill="#DA4E38" />
<rect x="17" y="13" width="1" height="1" fill="#FDF7ED" />
<rect x="18" y="13" width="1" height="1" fill="#DA4E38" />
<rect x="19" y="13" width="1" height="1" fill="#DA4E38" />
<rect x="20" y="13" width="1" height="1" fill="#DA4E38" />
<rect x="21" y="13" width="1" height="1" fill="#DA4E38" />
<rect x="22" y="13" width="1" height="1" fill="#1C1117" />
<rect x="42" y="13" width="1" height="1" fill="#1C1117" />
<rect x="43" y="13" width="1" height="1" fill="#1C1117" />
<rect x="44" y="13" width="1" height="1" fill="#1C1117" />
<rect x="45" y="13" width="1" height="1" fill="#1C1117" />
<rect x="46" y="13" width="1" height="1" fill="#1C1117" />
<rect x="47" y="13" width="1" height="1" fill="#1C1117" />
<rect x="48" y="13" width="1" height="1" fill="#1C1117" />
<rect x="49" y="13" width="1" height="1" fill="#1C1117" />
<rect x="50" y="13" width="1" height="1" fill="#1C1117" />
<rect x="51" y="13" width="1" height="1" fill="#1C1117" />
<rect x="75" y="13" width="1" height="1" fill="#1C1117" />
<rect x="76" y="13" width="1" height="1" fill="#1C1117" />
<rect x="77" y="13" width="1" height="1" fill="#1C1117" />
<rect x="78" y="13" width="1" height="1" fill="#1C1117" />
<rect x="79" y="13" width="1" height="1" fill="#1C1117" />
<rect x="80" y="13" width="1" height="1" fill="#1C1117" />
<rect x="81" y="13" width="1" height="1" fill="#1C1117" />
<rect x="82" y="13" width="1" height="1" fill="#1C1117" />
<rect x="83" y="13" width="1" height="1" fill="#1C1117" />
<rect x="84" y="13" width="1" height="1" fill="#1C1117" />
<rect x="105" y="13" width="1" height="1" fill="#1C1117" />
<rect x="106" y="13" width="1" height="1" fill="#9F294E" />
<rect x="107" y="13" width="1" height="1" fill="#9F294E" />
<rect x="108" y="13" width="1" height="1" fill="#DA4E38" />
<rect x="109" y="13" width="1" height="1" fill="#DA4E38" />
<rect x="110" y="13" width="1" height="1" fill="#FDF7ED" />
<rect x="111" y="13" width="1" height="1" fill="#DA4E38" />
<rect x="112" y="13" width="1" height="1" fill="#DA4E38" />
<rect x="113" y="13" width="1" height="1" fill="#DA4E38" />
<rect x="114" y="13" width="1" height="1" fill="#DA4E38" />
<rect x="115" y="13" width="1" height="1" fill="#DA4E38" />
<rect x="116" y="13" width="1" height="1" fill="#FDF7ED" />
<rect x="117" y="13" width="1" height="1" fill="#DA4E38" />
<rect x="118" y="13" width="1" height="1" fill="#1C1117" />
<rect x="10" y="14" width="1" height="1" fill="#1C1117" />
<rect x="11" y="14" width="1" height="1" fill="#9F294E" />
<rect x="12" y="14" width="1" height="1" fill="#9F294E" />
<rect x="13" y="14" width="1" height="1" fill="#9F294E" />
<rect x="14" y="14" width="1" height="1" fill="#DA4E38" />
<rect x="15" y="14" width="1" height="1" fill="#DA4E38" />
<rect x="16" y="14" width="1" height="1" fill="#DA4E38" />
<rect x="17" y="14" width="1" height="1" fill="#DA4E38" />
<rect x="18" y="14" width="1" height="1" fill="#DA4E38" />
<rect x="19" y="14" width="1" height="1" fill="#DA4E38" />
<rect x="20" y="14" width="1" height="1" fill="#DA4E38" />
<rect x="21" y="14" width="1" height="1" fill="#1C1117" />
<rect x="44" y="14" width="1" height="1" fill="#1C1117" />
<rect x="45" y="14" width="1" height="1" fill="#AA8D7A" />
<rect x="46" y="14" width="1" height="1" fill="#FDF7ED" />
<rect x="47" y="14" width="1" height="1" fill="#FDF7ED" />
<rect x="48" y="14" width="1" height="1" fill="#FDF7ED" />
<rect x="49" y="14" width="1" height="1" fill="#FDF7ED" />
<rect x="50" y="14" width="1" height="1" fill="#FDF7ED" />
<rect x="51" y="14" width="1" height="1" fill="#1C1117" />
<rect x="76" y="14" width="1" height="1" fill="#1C1117" />
<rect x="77" y="14" width="1" height="1" fill="#AA8D7A" />
<rect x="78" y="14" width="1" height="1" fill="#FDF7ED" />
<rect x="79" y="14" width="1" height="1" fill="#FDF7ED" />
<rect x="80" y="14" width="1" height="1" fill="#FDF7ED" />
<rect x="81" y="14" width="1" height="1" fill="#FDF7ED" />
<rect x="82" y="14" width="1" height="1" fill="#FDF7ED" />
<rect x="83" y="14" width="1" height="1" fill="#1C1117" />
<rect x="105" y="14" width="1" height="1" fill="#1C1117" />
<rect x="106" y="14" width="1" height="1" fill="#9F294E" />
<rect x="107" y="14" width="1" height="1" fill="#9F294E" />
<rect x="108" y="14" width="1" height="1" fill="#FDF7ED" />
<rect x="109" y="14" width="1" height="1" fill="#DA4E38" />
<rect x="110" y="14" width="1" height="1" fill="#DA4E38" />
<rect x="111" y="14" width="1" height="1" fill="#DA4E38" />
<rect x="112" y="14" width="1" height="1" fill="#DA4E38" />
<rect x="113" y="14" width="1" height="1" fill="#FDF7ED" />
<rect x="114" y="14" width="1" height="1" fill="#DA4E38" />
<rect x="115" y="14" width="1" height="1" fill="#DA4E38" />
<rect x="116" y="14" width="1" height="1" fill="#DA4E38" />
<rect x="117" y="14" width="1" height="1" fill="#DA4E38" />
<rect x="118" y="14" width="1" height="1" fill="#1C1117" />
<rect x="11" y="15" width="1" height="1" fill="#1C1117" />
<rect x="12" y="15" width="1" height="1" fill="#1C1117" />
<rect x="13" y="15" width="1" height="1" fill="#1C1117" />
<rect x="14" y="15" width="1" height="1" fill="#1C1117" />
<rect x="15" y="15" width="1" height="1" fill="#1C1117" />
<rect x="16" y="15" width="1" height="1" fill="#1C1117" />
<rect x="17" y="15" width="1" height="1" fill="#1C1117" />
<rect x="18" y="15" width="1" height="1" fill="#1C1117" />
<rect x="19" y="15" width="1" height="1" fill="#1C1117" />
<rect x="20" y="15" width="1" height="1" fill="#1C1117" />
<rect x="44" y="15" width="1" height="1" fill="#1C1117" />
<rect x="45" y="15" width="1" height="1" fill="#AA8D7A" />
<rect x="46" y="15" width="1" height="1" fill="#241729" />
<rect x="47" y="15" width="1" height="1" fill="#241729" />
<rect x="48" y="15" width="1" height="1" fill="#FDF7ED" />
<rect x="49" y="15" width="1" height="1" fill="#FDF7ED" />
<rect x="50" y="15" width="1" height="1" fill="#241729" />
<rect x="51" y="15" width="1" height="1" fill="#1C1117" />
<rect x="76" y="15" width="1" height="1" fill="#1C1117" />
<rect x="77" y="15" width="1" height="1" fill="#AA8D7A" />
<rect x="78" y="15" width="1" height="1" fill="#FDF7ED" />
<rect x="79" y="15" width="1" height="1" fill="#FDF7ED" />
<rect x="80" y="15" width="1" height="1" fill="#FDF7ED" />
<rect x="81" y="15" width="1" height="1" fill="#FDF7ED" />
<rect x="82" y="15" width="1" height="1" fill="#FDF7ED" />
<rect x="83" y="15" width="1" height="1" fill="#1C1117" />
<rect x="106" y="15" width="1" height="1" fill="#1C1117" />
<rect x="107" y="15" width="1" height="1" fill="#9F294E" />
<rect x="108" y="15" width="1" height="1" fill="#9F294E" />
<rect x="109" y="15" width="1" height="1" fill="#9F294E" />
<rect x="110" y="15" width="1" height="1" fill="#DA4E38" />
<rect x="111" y="15" width="1" height="1" fill="#DA4E38" />
<rect x="112" y="15" width="1" height="1" fill="#DA4E38" />
<rect x="113" y="15" width="1" height="1" fill="#DA4E38" />
<rect x="114" y="15" width="1" height="1" fill="#DA4E38" />
<rect x="115" y="15" width="1" height="1" fill="#DA4E38" />
<rect x="116" y="15" width="1" height="1" fill="#DA4E38" />
<rect x="117" y="15" width="1" height="1" fill="#1C1117" />
<rect x="12" y="16" width="1" height="1" fill="#1C1117" />
<rect x="13" y="16" width="1" height="1" fill="#AA8D7A" />
<rect x="14" y="16" width="1" height="1" fill="#FDF7ED" />
<rect x="15" y="16" width="1" height="1" fill="#FDF7ED" />
<rect x="16" y="16" width="1" height="1" fill="#FDF7ED" />
<rect x="17" y="16" width="1" height="1" fill="#FDF7ED" />
<rect x="18" y="16" width="1" height="1" fill="#FDF7ED" />
<rect x="19" y="16" width="1" height="1" fill="#1C1117" />
<rect x="44" y="16" width="1" height="1" fill="#1C1117" />
<rect x="45" y="16" width="1" height="1" fill="#AA8D7A" />
<rect x="46" y="16" width="1" height="1" fill="#241729" />
<rect x="47" y="16" width="1" height="1" fill="#241729" />
<rect x="48" y="16" width="1" height="1" fill="#FDF7ED" />
<rect x="49" y="16" width="1" height="1" fill="#FDF7ED" />
<rect x="50" y="16" width="1" height="1" fill="#241729" />
<rect x="51" y="16" width="1" height="1" fill="#1C1117" />
<rect x="52" y="16" width="1" height="1" fill="#1C1117" />
<rect x="53" y="16" width="1" height="1" fill="#1C1117" />
<rect x="76" y="16" width="1" height="1" fill="#1C1117" />
<rect x="77" y="16" width="1" height="1" fill="#AA8D7A" />
<rect x="78" y="16" width="1" height="1" fill="#241729" />
<rect x="79" y="16" width="1" height="1" fill="#241729" />
<rect x="80" y="16" width="1" height="1" fill="#FDF7ED" />
<rect x="81" y="16" width="1" height="1" fill="#FDF7ED" />
<rect x="82" y="16" width="1" height="1" fill="#241729" />
<rect x="83" y="16" width="1" height="1" fill="#1C1117" />
<rect x="107" y="16" width="1" height="1" fill="#1C1117" />
<rect x="108" y="16" width="1" height="1" fill="#1C1117" />
<rect x="109" y="16" width="1" height="1" fill="#1C1117" />
<rect x="110" y="16" width="1" height="1" fill="#1C1117" />
<rect x="111" y="16" width="1" height="1" fill="#1C1117" />
<rect x="112" y="16" width="1" height="1" fill="#1C1117" />
<rect x="113" y="16" width="1" height="1" fill="#1C1117" />
<rect x="114" y="16" width="1" height="1" fill="#1C1117" />
<rect x="115" y="16" width="1" height="1" fill="#1C1117" />
<rect x="116" y="16" width="1" height="1" fill="#1C1117" />
<rect x="12" y="17" width="1" height="1" fill="#1C1117" />
<rect x="13" y="17" width="1" height="1" fill="#AA8D7A" />
<rect x="14" y="17" width="1" height="1" fill="#241729" />
<rect x="15" y="17" width="1" height="1" fill="#241729" />
<rect x="16" y="17" width="1" height="1" fill="#FDF7ED" />
<rect x="17" y="17" width="1" height="1" fill="#FDF7ED" />
<rect x="18" y="17" width="1" height="1" fill="#241729" />
<rect x="19" y="17" width="1" height="1" fill="#1C1117" />
<rect x="43" y="17" width="1" height="1" fill="#1C1117" />
<rect x="44" y="17" width="1" height="1" fill="#1C1117" />
<rect x="45" y="17" width="1" height="1" fill="#AA8D7A" />
<rect x="46" y="17" width="1" height="1" fill="#FDF7ED" />
<rect x="47" y="17" width="1" height="1" fill="#FDF7ED" />
<rect x="48" y="17" width="1" height="1" fill="#FDF7ED" />
<rect x="49" y="17" width="1" height="1" fill="#FDF7ED" />
<rect x="50" y="17" width="1" height="1" fill="#FDF7ED" />
<rect x="51" y="17" width="1" height="1" fill="#FDF7ED" />
<rect x="52" y="17" width="1" height="1" fill="#FDF7ED" />
<rect x="53" y="17" width="1" height="1" fill="#1C1117" />
<rect x="75" y="17" width="1" height="1" fill="#1C1117" />
<rect x="76" y="17" width="1" height="1" fill="#1C1117" />
<rect x="77" y="17" width="1" height="1" fill="#AA8D7A" />
<rect x="78" y="17" width="1" height="1" fill="#241729" />
<rect x="79" y="17" width="1" height="1" fill="#241729" />
<rect x="80" y="17" width="1" height="1" fill="#FDF7ED" />
<rect x="81" y="17" width="1" height="1" fill="#FDF7ED" />
<rect x="82" y="17" width="1" height="1" fill="#241729" />
<rect x="83" y="17" width="1" height="1" fill="#1C1117" />
<rect x="108" y="17" width="1" height="1" fill="#1C1117" />
<rect x="109" y="17" width="1" height="1" fill="#AA8D7A" />
<rect x="110" y="17" width="1" height="1" fill="#241729" />
<rect x="111" y="17" width="1" height="1" fill="#241729" />
<rect x="112" y="17" width="1" height="1" fill="#FDF7ED" />
<rect x="113" y="17" width="1" height="1" fill="#FDF7ED" />
<rect x="114" y="17" width="1" height="1" fill="#241729" />
<rect x="115" y="17" width="1" height="1" fill="#1C1117" />
<rect x="12" y="18" width="1" height="1" fill="#1C1117" />
<rect x="13" y="18" width="1" height="1" fill="#AA8D7A" />
<rect x="14" y="18" width="1" height="1" fill="#241729" />
<rect x="15" y="18" width="1" height="1" fill="#241729" />
<rect x="16" y="18" width="1" height="1" fill="#FDF7ED" />
<rect x="17" y="18" width="1" height="1" fill="#FDF7ED" />
<rect x="18" y="18" width="1" height="1" fill="#241729" />
<rect x="19" y="18" width="1" height="1" fill="#1C1117" />
<rect x="43" y="18" width="1" height="1" fill="#1C1117" />
<rect x="44" y="18" width="1" height="1" fill="#D3BFA9" />
<rect x="45" y="18" width="1" height="1" fill="#D3BFA9" />
<rect x="46" y="18" width="1" height="1" fill="#1C1117" />
<rect x="47" y="18" width="1" height="1" fill="#1C1117" />
<rect x="48" y="18" width="1" height="1" fill="#1C1117" />
<rect x="49" y="18" width="1" height="1" fill="#1C1117" />
<rect x="50" y="18" width="1" height="1" fill="#1C1117" />
<rect x="51" y="18" width="1" height="1" fill="#1C1117" />
<rect x="52" y="18" width="1" height="1" fill="#1C1117" />
<rect x="53" y="18" width="1" height="1" fill="#1C1117" />
<rect x="75" y="18" width="1" height="1" fill="#1C1117" />
<rect x="76" y="18" width="1" height="1" fill="#D3BFA9" />
<rect x="77" y="18" width="1" height="1" fill="#D3BFA9" />
<rect x="78" y="18" width="1" height="1" fill="#FDF7ED" />
<rect x="79" y="18" width="1" height="1" fill="#FDF7ED" />
<rect x="80" y="18" width="1" height="1" fill="#FDF7ED" />
<rect x="81" y="18" width="1" height="1" fill="#FDF7ED" />
<rect x="82" y="18" width="1" height="1" fill="#FDF7ED" />
<rect x="83" y="18" width="1" height="1" fill="#1C1117" />
<rect x="108" y="18" width="1" height="1" fill="#1C1117" />
<rect x="109" y="18" width="1" height="1" fill="#AA8D7A" />
<rect x="110" y="18" width="1" height="1" fill="#241729" />
<rect x="111" y="18" width="1" height="1" fill="#241729" />
<rect x="112" y="18" width="1" height="1" fill="#FDF7ED" />
<rect x="113" y="18" width="1" height="1" fill="#FDF7ED" />
<rect x="114" y="18" width="1" height="1" fill="#241729" />
<rect x="115" y="18" width="1" height="1" fill="#1C1117" />
<rect x="11" y="19" width="1" height="1" fill="#1C1117" />
<rect x="12" y="19" width="1" height="1" fill="#1C1117" />
<rect x="13" y="19" width="1" height="1" fill="#AA8D7A" />
<rect x="14" y="19" width="1" height="1" fill="#FDF7ED" />
<rect x="15" y="19" width="1" height="1" fill="#FDF7ED" />
<rect x="16" y="19" width="1" height="1" fill="#FDF7ED" />
<rect x="17" y="19" width="1" height="1" fill="#FDF7ED" />
<rect x="18" y="19" width="1" height="1" fill="#FDF7ED" />
<rect x="19" y="19" width="1" height="1" fill="#1C1117" />
<rect x="43" y="19" width="1" height="1" fill="#1C1117" />
<rect x="44" y="19" width="1" height="1" fill="#1C1117" />
<rect x="45" y="19" width="1" height="1" fill="#1C1117" />
<rect x="46" y="19" width="1" height="1" fill="#1C1117" />
<rect x="75" y="19" width="1" height="1" fill="#1C1117" />
<rect x="76" y="19" width="1" height="1" fill="#1C1117" />
<rect x="77" y="19" width="1" height="1" fill="#1C1117" />
<rect x="78" y="19" width="1" height="1" fill="#1C1117" />
<rect x="79" y="19" width="1" height="1" fill="#1C1117" />
<rect x="80" y="19" width="1" height="1" fill="#1C1117" />
<rect x="81" y="19" width="1" height="1" fill="#1C1117" />
<rect x="82" y="19" width="1" height="1" fill="#FDF7ED" />
<rect x="83" y="19" width="1" height="1" fill="#1C1117" />
<rect x="108" y="19" width="1" height="1" fill="#1C1117" />
<rect x="109" y="19" width="1" height="1" fill="#D3BFA9" />
<rect x="110" y="19" width="1" height="1" fill="#FDF7ED" />
<rect x="111" y="19" width="1" height="1" fill="#FDF7ED" />
<rect x="112" y="19" width="1" height="1" fill="#FDF7ED" />
<rect x="113" y="19" width="1" height="1" fill="#FDF7ED" />
<rect x="114" y="19" width="1" height="1" fill="#FDF7ED" />
<rect x="115" y="19" width="1" height="1" fill="#1C1117" />
<rect x="11" y="20" width="1" height="1" fill="#1C1117" />
<rect x="12" y="20" width="1" height="1" fill="#D3BFA9" />
<rect x="13" y="20" width="1" height="1" fill="#D3BFA9" />
<rect x="14" y="20" width="1" height="1" fill="#1C1117" />
<rect x="15" y="20" width="1" height="1" fill="#1C1117" />
<rect x="16" y="20" width="1" height="1" fill="#1C1117" />
<rect x="17" y="20" width="1" height="1" fill="#1C1117" />
<rect x="18" y="20" width="1" height="1" fill="#1C1117" />
<rect x="19" y="20" width="1" height="1" fill="#1C1117" />
<rect x="81" y="20" width="1" height="1" fill="#1C1117" />
<rect x="82" y="20" width="1" height="1" fill="#1C1117" />
<rect x="83" y="20" width="1" height="1" fill="#1C1117" />
<rect x="108" y="20" width="1" height="1" fill="#1C1117" />
<rect x="109" y="20" width="1" height="1" fill="#1C1117" />
<rect x="110" y="20" width="1" height="1" fill="#1C1117" />
<rect x="111" y="20" width="1" height="1" fill="#1C1117" />
<rect x="112" y="20" width="1" height="1" fill="#FDF7ED" />
<rect x="113" y="20" width="1" height="1" fill="#1C1117" />
<rect x="114" y="20" width="1" height="1" fill="#1C1117" />
<rect x="115" y="20" width="1" height="1" fill="#1C1117" />
<rect x="11" y="21" width="1" height="1" fill="#1C1117" />
<rect x="12" y="21" width="1" height="1" fill="#1C1117" />
<rect x="13" y="21" width="1" height="1" fill="#1C1117" />
<rect x="14" y="21" width="1" height="1" fill="#1C1117" />
<rect x="111" y="21" width="1" height="1" fill="#1C1117" />
<rect x="112" y="21" width="1" height="1" fill="#1C1117" />
<rect x="113" y="21" width="1" height="1" fill="#1C1117" />
</svg>