<?xml version="1.0" encoding="UTF-8" ?>
<svg version="1.1" width="128" height="32" xmlns="http://www.w3.org/2000/svg" shape-rendering="crispEdges">
<rect x="12" y="16" width="1" height="1" fill="#222222" />
<rect x="13" y="16" width="1" height="1" fill="#222222" />
<rect x="14" y="16" width="1" height="1" fill="#222222" />
<rect x="15" y="16" width="1" height="1" fill="#222222" />
<rect x="16" y="16" width="1" height="1" fill="#222222" />
<rect x="17" y="16" width="1" height="1" fill="#222222" />
<rect x="18" y="16" width="1" height="1" fill="#222222" />
<rect x="19" y="16" width="1" height="1" fill="#222222" />
<rect x="20" y="16" width="1" height="1" fill="#222222" />
<rect x="21" y="16" width="1" height="1" fill="#222222" />
<rect x="12" y="17" width="1" height="1" fill="#222222" />
<rect x="13" y="17" width="1" height="1" fill="#314152" />
<rect x="14" y="17" width="1" height="1" fill="#3D734F" />
<rect x="15" y="17" width="1" height="1" fill="#3D734F" />
<rect x="16" y="17" width="1" height="1" fill="#3D734F" />
<rect x="17" y="17" width="1" height="1" fill="#3D734F" />
<rect x="18" y="17" width="1" height="1" fill="#3D734F" />
<rect x="19" y="17" width="1" height="1" fill="#3D734F" />
<rect x="20" y="17" width="1" height="1" fill="#3D734F" />
<rect x="21" y="17" width="1" height="1" fill="#222222" />
<rect x="44" y="17" width="1" height="1" fill="#222222" />
<rect x="45" y="17" width="1" height="1" fill="#222222" />
<rect x="46" y="17" width="1" height="1" fill="#222222" />
<rect x="47" y="17" width="1" height="1" fill="#222222" />
<rect x="48" y="17" width="1" height="1" fill="#222222" />
<rect x="49" y="17" width="1" height="1" fill="#222222" />
<rect x="50" y="17" width="1" height="1" fill="#222222" />
<rect x="51" y="17" width="1" height="1" fill="#222222" />
<rect x="52" y="17" width="1" height="1" fill="#222222" />
<rect x="53" y="17" width="1" height="1" fill="#222222" />
<rect x="108" y="17" width="1" height="1" fill="#222222" />
<rect x="109" y="17" width="1" height="1" fill="#222222" />
<rect x="110" y="17" width="1" height="1" fill="#222222" />
<rect x="111" y="17" width="1" height="1" fill="#222222" />
<rect x="112" y="17" width="1" height="1" fill="#222222" />
<rect x="113" y="17" width="1" height="1" fill="#222222" />
<rect x="114" y="17" width="1" height="1" fill="#222222" />
<rect x="115" y="17" width="1" height="1" fill="#222222" />
<rect x="116" y="17" width="1" height="1" fill="#222222" />
<rect x="117" y="17" width="1" height="1" fill="#222222" />
<rect x="12" y="18" width="1" height="1" fill="#222222" />
<rect x="13" y="18" width="1" height="1" fill="#314152" />
<rect x="14" y="18" width="1" height="1" fill="#3D734F" />
<rect x="15" y="18" width="1" height="1" fill="#3D734F" />
<rect x="16" y="18" width="1" height="1" fill="#3D734F" />
<rect x="17" y="18" width="1" height="1" fill="#3D734F" />
<rect x="18" y="18" width="1" height="1" fill="#3D734F" />
<rect x="19" y="18" width="1" height="1" fill="#3D734F" />
<rect x="20" y="18" width="1" height="1" fill="#3D734F" />
<rect x="21" y="18" width="1" height="1" fill="#222222" />
<rect x="44" y="18" width="1" height="1" fill="#222222" />
<rect x="45" y="18" width="1" height="1" fill="#314152" />
<rect x="46" y="18" width="1" height="1" fill="#3D734F" />
<rect x="47" y="18" width="1" height="1" fill="#3D734F" />
<rect x="48" y="18" width="1" height="1" fill="#3D734F" />
<rect x="49" y="18" width="1" height="1" fill="#3D734F" />
<rect x="50" y="18" width="1" height="1" fill="#3D734F" />
<rect x="51" y="18" width="1" height="1" fill="#3D734F" />
<rect x="52" y="18" width="1" height="1" fill="#3D734F" />
<rect x="53" y="18" width="1" height="1" fill="#222222" />
<rect x="76" y="18" width="1" height="1" fill="#222222" />
<rect x="77" y="18" width="1" height="1" fill="#222222" />
<rect x="78" y="18" width="1" height="1" fill="#222222" />
<rect x="79" y="18" width="1" height="1" fill="#222222" />
<rect x="80" y="18" width="1" height="1" fill="#222222" />
<rect x="81" y="18" width="1" height="1" fill="#222222" />
<rect x="82" y="18" width="1" height="1" fill="#222222" />
<rect x="83" y="18" width="1" height="1" fill="#222222" />
<rect x="84" y="18" width="1" height="1" fill="#222222" />
<rect x="85" y="18" width="1" height="1" fill="#222222" />
<rect x="108" y="18" width="1" height="1" fill="#222222" />
<rect x="109" y="18" width="1" height="1" fill="#314152" />
<rect x="110" y="18" width="1" height="1" fill="#3D734F" />
<rect x="111" y="18" width="1" height="1" fill="#3D734F" />
<rect x="112" y="18" width="1" height="1" fill="#3D734F" />
<rect x="113" y="18" width="1" height="1" fill="#3D734F" />
<rect x="114" y="18" width="1" height="1" fill="#3D734F" />
<rect x="115" y="18" width="1" height="1" fill="#3D734F" />
<rect x="116" y="18" width="1" height="1" fill="#3D734F" />
<rect x="117" y="18" width="1" height="1" fill="#222222" />
<rect x="12" y="19" width="1" height="1" fill="#222222" />
<rect x="13" y="19" width="1" height="1" fill="#314152" />
<rect x="14" y="19" width="1" height="1" fill="#3D734F" />
<rect x="15" y="19" width="1" height="1" fill="#3D734F" />
<rect x="16" y="19" width="1" height="1" fill="#3D734F" />
<rect x="17" y="19" width="1" height="1" fill="#3D734F" />
<rect x="18" y="19" width="1" height="1" fill="#3D734F" />
<rect x="19" y="19" width="1" height="1" fill="#3D734F" />
<rect x="20" y="19" width="1" height="1" fill="#3D734F" />
<rect x="21" y="19" width="1" height="1" fill="#222222" />
<rect x="44" y="19" width="1" height="1" fill="#222222" />
<rect x="45" y="19" width="1" height="1" fill="#314152" />
<rect x="46" y="19" width="1" height="1" fill="#3D734F" />
<rect x="47" y="19" width="1" height="1" fill="#3D734F" />
<rect x="48" y="19" width="1" height="1" fill="#3D734F" />
<rect x="49" y="19" width="1" height="1" fill="#3D734F" />
<rect x="50" y="19" width="1" height="1" fill="#3D734F" />
<rect x="51" y="19" width="1" height="1" fill="#3D734F" />
<rect x="52" y="19" width="1" height="1" fill="#3D734F" />
<rect x="53" y="19" width="1" height="1" fill="#222222" />
<rect x="76" y="19" width="1" height="1" fill="#222222" />
<rect x="77" y="19" width="1" height="1" fill="#314152" />
<rect x="78" y="19" width="1" height="1" fill="#3D734F" />
<rect x="79" y="19" width="1" height="1" fill="#3D734F" />
<rect x="80" y="19" width="1" height="1" fill="#3D734F" />
<rect x="81" y="19" width="1" height="1" fill="#3D734F" />
<rect x="82" y="19" width="1" height="1" fill="#3D734F" />
<rect x="83" y="19" width="1" height="1" fill="#3D734F" />
<rect x="84" y="19" width="1" height="1" fill="#3D734F" />
<rect x="85" y="19" width="1" height="1" fill="#222222" />
<rect x="108" y="19" width="1" height="1" fill="#222222" />
<rect x="109" y="19" width="1" height="1" fill="#314152" />
<rect x="110" y="19" width="1" height="1" fill="#3D734F" />
<rect x="111" y="19" width="1" height="1" fill="#3D734F" />
<rect x="112" y="19" width="1" height="1" fill="#3D734F" />
<rect x="113" y="19" width="1" height="1" fill="#3D734F" />
<rect x="114" y="19" width="1" height="1" fill="#3D734F" />
<rect x="115" y="19" width="1" height="1" fill="#3D734F" />
<rect x="116" y="19" width="1" height="1" fill="#3D734F" />
<rect x="117" y="19" width="1" height="1" fill="#222222" />
<rect x="12" y="20" width="1" height="1" fill="#222222" />
<rect x="13" y="20" width="1" height="1" fill="#314152" />
<rect x="14" y="20" width="1" height="1" fill="#3D734F" />
<rect x="15" y="20" width="1" height="1" fill="#314152" />
<rect x="16" y="20" width="1" height="1" fill="#314152" />
<rect x="17" y="20" width="1" height="1" fill="#3D734F" />
<rect x="18" y="20" width="1" height="1" fill="#3D734F" />
<rect x="19" y="20" width="1" height="1" fill="#3D734F" />
<rect x="20" y="20" width="1" height="1" fill="#314152" />
<rect x="21" y="20" width="1" height="1" fill="#222222" />
<rect x="44" y="20" width="1" height="1" fill="#222222" />
<rect x="45" y="20" width="1" height="1" fill="#314152" />
<rect x="46" y="20" width="1" height="1" fill="#3D734F" />
<rect x="47" y="20" width="1" height="1" fill="#314152" />
<rect x="48" y="20" width="1" height="1" fill="#314152" />
<rect x="49" y="20" width="1" height="1" fill="#3D734F" />
<rect x="50" y="20" width="1" height="1" fill="#3D734F" />
<rect x="51" y="20" width="1" height="1" fill="#3D734F" />
<rect x="52" y="20" width="1" height="1" fill="#314152" />
<rect x="53" y="20" width="1" height="1" fill="#222222" />
<rect x="76" y="20" width="1" height="1" fill="#222222" />
<rect x="77" y="20" width="1" height="1" fill="#314152" />
<rect x="78" y="20" width="1" height="1" fill="#3D734F" />
<rect x="79" y="20" width="1" height="1" fill="#3D734F" />
<rect x="80" y="20" width="1" height="1" fill="#3D734F" />
<rect x="81" y="20" width="1" height="1" fill="#3D734F" />
<rect x="82" y="20" width="1" height="1" fill="#3D734F" />
<rect x="83" y="20" width="1" height="1" fill="#3D734F" />
<rect x="84" y="20" width="1" height="1" fill="#3D734F" />
<rect x="85" y="20" width="1" height="1" fill="#222222" />
<rect x="108" y="20" width="1" height="1" fill="#222222" />
<rect x="109" y="20" width="1" height="1" fill="#314152" />
<rect x="110" y="20" width="1" height="1" fill="#3D734F" />
<rect x="111" y="20" width="1" height="1" fill="#3D734F" />
<rect x="112" y="20" width="1" height="1" fill="#3D734F" />
<rect x="113" y="20" width="1" height="1" fill="#3D734F" />
<rect x="114" y="20" width="1" height="1" fill="#3D734F" />
<rect x="115" y="20" width="1" height="1" fill="#3D734F" />
<rect x="116" y="20" width="1" height="1" fill="#3D734F" />
<rect x="117" y="20" width="1" height="1" fill="#222222" />
<rect x="12" y="21" width="1" height="1" fill="#222222" />
<rect x="13" y="21" width="1" height="1" fill="#314152" />
<rect x="14" y="21" width="1" height="1" fill="#3D734F" />
<rect x="15" y="21" width="1" height="1" fill="#222222" />
<rect x="16" y="21" width="1" height="1" fill="#222222" />
<rect x="17" y="21" width="1" height="1" fill="#3D734F" />
<rect x="18" y="21" width="1" height="1" fill="#3D734F" />
<rect x="19" y="21" width="1" height="1" fill="#3D734F" />
<rect x="20" y="21" width="1" height="1" fill="#222222" />
<rect x="21" y="21" width="1" height="1" fill="#222222" />
<rect x="44" y="21" width="1" height="1" fill="#222222" />
<rect x="45" y="21" width="1" height="1" fill="#314152" />
<rect x="46" y="21" width="1" height="1" fill="#3D734F" />
<rect x="47" y="21" width="1" height="1" fill="#222222" />
<rect x="48" y="21" width="1" height="1" fill="#222222" />
<rect x="49" y="21" width="1" height="1" fill="#3D734F" />
<rect x="50" y="21" width="1" height="1" fill="#3D734F" />
<rect x="51" y="21" width="1" height="1" fill="#3D734F" />
<rect x="52" y="21" width="1" height="1" fill="#222222" />
<rect x="53" y="21" width="1" height="1" fill="#222222" />
<rect x="76" y="21" width="1" height="1" fill="#222222" />
<rect x="77" y="21" width="1" height="1" fill="#314152" />
<rect x="78" y="21" width="1" height="1" fill="#3D734F" />
<rect x="79" y="21" width="1" height="1" fill="#3D734F" />
<rect x="80" y="21" width="1" height="1" fill="#3D734F" />
<rect x="81" y="21" width="1" height="1" fill="#3D734F" />
<rect x="82" y="21" width="1" height="1" fill="#3D734F" />
<rect x="83" y="21" width="1" height="1" fill="#3D734F" />
<rect x="84" y="21" width="1" height="1" fill="#3D734F" />
<rect x="85" y="21" width="1" height="1" fill="#222222" />
<rect x="108" y="21" width="1" height="1" fill="#222222" />
<rect x="109" y="21" width="1" height="1" fill="#314152" />
<rect x="110" y="21" width="1" height="1" fill="#3D734F" />
<rect x="111" y="21" width="1" height="1" fill="#314152" />
<rect x="112" y="21" width="1" height="1" fill="#314152" />
<rect x="113" y="21" width="1" height="1" fill="#3D734F" />
<rect x="114" y="21" width="1" height="1" fill="#3D734F" />
<rect x="115" y="21" width="1" height="1" fill="#3D734F" />
<rect x="116" y="21" width="1" height="1" fill="#314152" />
<rect x="117" y="21" width="1" height="1" fill="#222222" />
<rect x="12" y="22" width="1" height="1" fill="#222222" />
<rect x="13" y="22" width="1" height="1" fill="#314152" />
<rect x="14" y="22" width="1" height="1" fill="#314152" />
<rect x="15" y="22" width="1" height="1" fill="#222222" />
<rect x="16" y="22" width="1" height="1" fill="#222222" />
<rect x="17" y="22" width="1" height="1" fill="#3D734F" />
<rect x="18" y="22" width="1" height="1" fill="#3D734F" />
<rect x="19" y="22" width="1" height="1" fill="#3D734F" />
<rect x="20" y="22" width="1" height="1" fill="#222222" />
<rect x="21" y="22" width="1" height="1" fill="#222222" />
<rect x="22" y="22" width="1" height="1" fill="#222222" />
<rect x="44" y="22" width="1" height="1" fill="#222222" />
<rect x="45" y="22" width="1" height="1" fill="#314152" />
<rect x="46" y="22" width="1" height="1" fill="#314152" />
<rect x="47" y="22" width="1" height="1" fill="#222222" />
<rect x="48" y="22" width="1" height="1" fill="#222222" />
<rect x="49" y="22" width="1" height="1" fill="#3D734F" />
<rect x="50" y="22" width="1" height="1" fill="#3D734F" />
<rect x="51" y="22" width="1" height="1" fill="#3D734F" />
<rect x="52" y="22" width="1" height="1" fill="#222222" />
<rect x="53" y="22" width="1" height="1" fill="#222222" />
<rect x="54" y="22" width="1" height="1" fill="#222222" />
<rect x="76" y="22" width="1" height="1" fill="#222222" />
<rect x="77" y="22" width="1" height="1" fill="#314152" />
<rect x="78" y="22" width="1" height="1" fill="#3D734F" />
<rect x="79" y="22" width="1" height="1" fill="#314152" />
<rect x="80" y="22" width="1" height="1" fill="#314152" />
<rect x="81" y="22" width="1" height="1" fill="#3D734F" />
<rect x="82" y="22" width="1" height="1" fill="#3D734F" />
<rect x="83" y="22" width="1" height="1" fill="#3D734F" />
<rect x="84" y="22" width="1" height="1" fill="#314152" />
<rect x="85" y="22" width="1" height="1" fill="#222222" />
<rect x="108" y="22" width="1" height="1" fill="#222222" />
<rect x="109" y="22" width="1" height="1" fill="#314152" />
<rect x="110" y="22" width="1" height="1" fill="#3D734F" />
<rect x="111" y="22" width="1" height="1" fill="#222222" />
<rect x="112" y="22" width="1" height="1" fill="#222222" />
<rect x="113" y="22" width="1" height="1" fill="#3D734F" />
<rect x="114" y="22" width="1" height="1" fill="#3D734F" />
<rect x="115" y="22" width="1" height="1" fill="#3D734F" />
<rect x="116" y="22" width="1" height="1" fill="#222222" />
<rect x="117" y="22" width="1" height="1" fill="#222222" />
<rect x="12" y="23" width="1" height="1" fill="#222222" />
<rect x="13" y="23" width="1" height="1" fill="#314152" />
<rect x="14" y="23" width="1" height="1" fill="#FDF7ED" />
<rect x="15" y="23" width="1" height="1" fill="#314152" />
<rect x="16" y="23" width="1" height="1" fill="#314152" />
<rect x="17" y="23" width="1" height="1" fill="#3D734F" />
<rect x="18" y="23" width="1" height="1" fill="#3D734F" />
<rect x="19" y="23" width="1" height="1" fill="#3D734F" />
<rect x="20" y="23" width="1" height="1" fill="#314152" />
<rect x="21" y="23" width="1" height="1" fill="#FDF7ED" />
<rect x="22" y="23" width="1" height="1" fill="#222222" />
<rect x="44" y="23" width="1" height="1" fill="#222222" />
<rect x="45" y="23" width="1" height="1" fill="#314152" />
<rect x="46" y="23" width="1" height="1" fill="#FDF7ED" />
<rect x="47" y="23" width="1" height="1" fill="#314152" />
<rect x="48" y="23" width="1" height="1" fill="#314152" />
<rect x="49" y="23" width="1" height="1" fill="#3D734F" />
<rect x="50" y="23" width="1" height="1" fill="#3D734F" />
<rect x="51" y="23" width="1" height="1" fill="#3D734F" />
<rect x="52" y="23" width="1" height="1" fill="#314152" />
<rect x="53" y="23" width="1" height="1" fill="#FDF7ED" />
<rect x="54" y="23" width="1" height="1" fill="#222222" />
<rect x="76" y="23" width="1" height="1" fill="#222222" />
<rect x="77" y="23" width="1" height="1" fill="#314152" />
<rect x="78" y="23" width="1" height="1" fill="#3D734F" />
<rect x="79" y="23" width="1" height="1" fill="#222222" />
<rect x="80" y="23" width="1" height="1" fill="#222222" />
<rect x="81" y="23" width="1" height="1" fill="#3D734F" />
<rect x="82" y="23" width="1" height="1" fill="#3D734F" />
<rect x="83" y="23" width="1" height="1" fill="#3D734F" />
<rect x="84" y="23" width="1" height="1" fill="#222222" />
<rect x="85" y="23" width="1" height="1" fill="#222222" />
<rect x="108" y="23" width="1" height="1" fill="#222222" />
<rect x="109" y="23" width="1" height="1" fill="#314152" />
<rect x="110" y="23" width="1" height="1" fill="#314152" />
<rect x="111" y="23" width="1" height="1" fill="#222222" />
<rect x="112" y="23" width="1" height="1" fill="#222222" />
<rect x="113" y="23" width="1" height="1" fill="#3D734F" />
<rect x="114" y="23" width="1" height="1" fill="#3D734F" />
<rect x="115" y="23" width="1" height="1" fill="#3D734F" />
<rect x="116" y="23" width="1" height="1" fill="#222222" />
<rect x="117" y="23" width="1" height="1" fill="#222222" />
<rect x="118" y="23" width="1" height="1" fill="#222222" />
<rect x="12" y="24" width="1" height="1" fill="#222222" />
<rect x="13" y="24" width="1" height="1" fill="#314152" />
<rect x="14" y="24" width="1" height="1" fill="#FDF7ED" />
<rect x="15" y="24" width="1" height="1" fill="#FDF7ED" />
<rect x="16" y="24" width="1" height="1" fill="#3D734F" />
<rect x="17" y="24" width="1" height="1" fill="#3D734F" />
<rect x="18" y="24" width="1" height="1" fill="#3D734F" />
<rect x="19" y="24" width="1" height="1" fill="#3D734F" />
<rect x="20" y="24" width="1" height="1" fill="#FDF7ED" />
<rect x="21" y="24" width="1" height="1" fill="#FDF7ED" />
<rect x="22" y="24" width="1" height="1" fill="#222222" />
<rect x="44" y="24" width="1" height="1" fill="#222222" />
<rect x="45" y="24" width="1" height="1" fill="#314152" />
<rect x="46" y="24" width="1" height="1" fill="#FDF7ED" />
<rect x="47" y="24" width="1" height="1" fill="#FDF7ED" />
<rect x="48" y="24" width="1" height="1" fill="#3D734F" />
<rect x="49" y="24" width="1" height="1" fill="#3D734F" />
<rect x="50" y="24" width="1" height="1" fill="#3D734F" />
<rect x="51" y="24" width="1" height="1" fill="#3D734F" />
<rect x="52" y="24" width="1" height="1" fill="#FDF7ED" />
<rect x="53" y="24" width="1" height="1" fill="#FDF7ED" />
<rect x="54" y="24" width="1" height="1" fill="#222222" />
<rect x="76" y="24" width="1" height="1" fill="#222222" />
<rect x="77" y="24" width="1" height="1" fill="#314152" />
<rect x="78" y="24" width="1" height="1" fill="#314152" />
<rect x="79" y="24" width="1" height="1" fill="#222222" />
<rect x="80" y="24" width="1" height="1" fill="#222222" />
<rect x="81" y="24" width="1" height="1" fill="#3D734F" />
<rect x="82" y="24" width="1" height="1" fill="#3D734F" />
<rect x="83" y="24" width="1" height="1" fill="#3D734F" />
<rect x="84" y="24" width="1" height="1" fill="#222222" />
<rect x="85" y="24" width="1" height="1" fill="#222222" />
<rect x="86" y="24" width="1" height="1" fill="#222222" />
<rect x="108" y="24" width="1" height="1" fill="#222222" />
<rect x="109" y="24" width="1" height="1" fill="#314152" />
<rect x="110" y="24" width="1" height="1" fill="#FDF7ED" />
<rect x="111" y="24" width="1" height="1" fill="#314152" />
<rect x="112" y="24" width="1" height="1" fill="#314152" />
<rect x="113" y="24" width="1" height="1" fill="#3D734F" />
<rect x="114" y="24" width="1" height="1" fill="#3D734F" />
<rect x="115" y="24" width="1" height="1" fill="#3D734F" />
<rect x="116" y="24" width="1" height="1" fill="#314152" />
<rect x="117" y="24" width="1" height="1" fill="#FDF7ED" />
<rect x="118" y="24" width="1" height="1" fill="#222222" />
<rect x="12" y="25" width="1" height="1" fill="#222222" />
<rect x="13" y="25" width="1" height="1" fill="#314152" />
<rect x="14" y="25" width="1" height="1" fill="#3D734F" />
<rect x="15" y="25" width="1" height="1" fill="#3D734F" />
<rect x="16" y="25" width="1" height="1" fill="#3D734F" />
<rect x="17" y="25" width="1" height="1" fill="#3D734F" />
<rect x="18" y="25" width="1" height="1" fill="#3D734F" />
<rect x="19" y="25" width="1" height="1" fill="#3D734F" />
<rect x="20" y="25" width="1" height="1" fill="#3D734F" />
<rect x="21" y="25" width="1" height="1" fill="#222222" />
<rect x="44" y="25" width="1" height="1" fill="#222222" />
<rect x="45" y="25" width="1" height="1" fill="#314152" />
<rect x="46" y="25" width="1" height="1" fill="#3D734F" />
<rect x="47" y="25" width="1" height="1" fill="#3D734F" />
<rect x="48" y="25" width="1" height="1" fill="#3D734F" />
<rect x="49" y="25" width="1" height="1" fill="#3D734F" />
<rect x="50" y="25" width="1" height="1" fill="#3D734F" />
<rect x="51" y="25" width="1" height="1" fill="#3D734F" />
<rect x="52" y="25" width="1" height="1" fill="#3D734F" />
<rect x="53" y="25" width="1" height="1" fill="#222222" />
<rect x="76" y="25" width="1" height="1" fill="#222222" />
<rect x="77" y="25" width="1" height="1" fill="#314152" />
<rect x="78" y="25" width="1" height="1" fill="#FDF7ED" />
<rect x="79" y="25" width="1" height="1" fill="#314152" />
<rect x="80" y="25" width="1" height="1" fill="#314152" />
<rect x="81" y="25" width="1" height="1" fill="#3D734F" />
<rect x="82" y="25" width="1" height="1" fill="#3D734F" />
<rect x="83" y="25" width="1" height="1" fill="#3D734F" />
<rect x="84" y="25" width="1" height="1" fill="#314152" />
<rect x="85" y="25" width="1" height="1" fill="#FDF7ED" />
<rect x="86" y="25" width="1" height="1" fill="#222222" />
<rect x="108" y="25" width="1" height="1" fill="#222222" />
<rect x="109" y="25" width="1" height="1" fill="#314152" />
<rect x="110" y="25" width="1" height="1" fill="#FDF7ED" />
<rect x="111" y="25" width="1" height="1" fill="#FDF7ED" />
<rect x="112" y="25" width="1" height="1" fill="#3D734F" />
<rect x="113" y="25" width="1" height="1" fill="#3D734F" />
<rect x="114" y="25" width="1" height="1" fill="#3D734F" />
<rect x="115" y="25" width="1" height="1" fill="#3D734F" />
<rect x="116" y="25" width="1" height="1" fill="#FDF7ED" />
<rect x="117" y="25" width="1" height="1" fill="#FDF7ED" />
<rect x="118" y="25" width="1" height="1" fill="#222222" />
<rect x="12" y="26" width="1" height="1" fill="#222222" />
<rect x="13" y="26" width="1" height="1" fill="#62232F" />
<rect x="14" y="26" width="1" height="1" fill="#62232F" />
<rect x="15" y="26" width="1" height="1" fill="#62232F" />
<rect x="16" y="26" width="1" height="1" fill="#62232F" />
<rect x="17" y="26" width="1" height="1" fill="#62232F" />
<rect x="18" y="26" width="1" height="1" fill="#62232F" />
<rect x="19" y="26" width="1" height="1" fill="#62232F" />
<rect x="20" y="26" width="1" height="1" fill="#62232F" />
<rect x="21" y="26" width="1" height="1" fill="#222222" />
<rect x="44" y="26" width="1" height="1" fill="#222222" />
<rect x="45" y="26" width="1" height="1" fill="#314152" />
<rect x="46" y="26" width="1" height="1" fill="#3D734F" />
<rect x="47" y="26" width="1" height="1" fill="#3D734F" />
<rect x="48" y="26" width="1" height="1" fill="#3D734F" />
<rect x="49" y="26" width="1" height="1" fill="#3D734F" />
<rect x="50" y="26" width="1" height="1" fill="#3D734F" />
<rect x="51" y="26" width="1" height="1" fill="#3D734F" />
<rect x="52" y="26" width="1" height="1" fill="#3D734F" />
<rect x="53" y="26" width="1" height="1" fill="#222222" />
<rect x="76" y="26" width="1" height="1" fill="#222222" />
<rect x="77" y="26" width="1" height="1" fill="#314152" />
<rect x="78" y="26" width="1" height="1" fill="#FDF7ED" />
<rect x="79" y="26" width="1" height="1" fill="#FDF7ED" />
<rect x="80" y="26" width="1" height="1" fill="#3D734F" />
<rect x="81" y="26" width="1" height="1" fill="#3D734F" />
<rect x="82" y="26" width="1" height="1" fill="#3D734F" />
<rect x="83" y="26" width="1" height="1" fill="#3D734F" />
<rect x="84" y="26" width="1" height="1" fill="#FDF7ED" />
<rect x="85" y="26" width="1" height="1" fill="#FDF7ED" />
<rect x="86" y="26" width="1" height="1" fill="#222222" />
<rect x="108" y="26" width="1" height="1" fill="#222222" />
<rect x="109" y="26" width="1" height="1" fill="#314152" />
<rect x="110" y="26" width="1" height="1" fill="#3D734F" />
<rect x="111" y="26" width="1" height="1" fill="#3D734F" />
<rect x="112" y="26" width="1" height="1" fill="#3D734F" />
<rect x="113" y="26" width="1" height="1" fill="#3D734F" />
<rect x="114" y="26" width="1" height="1" fill="#3D734F" />
<rect x="115" y="26" width="1" height="1" fill="#3D734F" />
<rect x="116" y="26" width="1" height="1" fill="#3D734F" />
<rect x="117" y="26" width="1" height="1" fill="#222222" />
<rect x="12" y="27" width="1" height="1" fill="#222222" />
<rect x="13" y="27" width="1" height="1" fill="#8F4029" />
<rect x="14" y="27" width="1" height="1" fill="#8F4029" />
<rect x="15" y="27" width="1" height="1" fill="#8F4029" />
<rect x="16" y="27" width="1" height="1" fill="#8F4029" />
<rect x="17" y="27" width="1" height="1" fill="#8F4029" />
<rect x="18" y="27" width="1" height="1" fill="#8F4029" />
<rect x="19" y="27" width="1" height="1" fill="#8F4029" />
<rect x="20" y="27" width="1" height="1" fill="#8F4029" />
<rect x="21" y="27" width="1" height="1" fill="#222222" />
<rect x="44" y="27" width="1" height="1" fill="#222222" />
<rect x="45" y="27" width="1" height="1" fill="#62232F" />
<rect x="46" y="27" width="1" height="1" fill="#62232F" />
<rect x="47" y="27" width="1" height="1" fill="#62232F" />
<rect x="48" y="27" width="1" height="1" fill="#62232F" />
<rect x="49" y="27" width="1" height="1" fill="#62232F" />
<rect x="50" y="27" width="1" height="1" fill="#62232F" />
<rect x="51" y="27" width="1" height="1" fill="#62232F" />
<rect x="52" y="27" width="1" height="1" fill="#62232F" />
<rect x="53" y="27" width="1" height="1" fill="#222222" />
<rect x="76" y="27" width="1" height="1" fill="#222222" />
<rect x="77" y="27" width="1" height="1" fill="#314152" />
<rect x="78" y="27" width="1" height="1" fill="#3D734F" />
<rect x="79" y="27" width="1" height="1" fill="#3D734F" />
<rect x="80" y="27" width="1" height="1" fill="#3D734F" />
<rect x="81" y="27" width="1" height="1" fill="#3D734F" />
<rect x="82" y="27" width="1" height="1" fill="#3D734F" />
<rect x="83" y="27" width="1" height="1" fill="#3D734F" />
<rect x="84" y="27" width="1" height="1" fill="#3D734F" />
<rect x="85" y="27" width="1" height="1" fill="#222222" />
<rect x="108" y="27" width="1" height="1" fill="#222222" />
<rect x="109" y="27" width="1" height="1" fill="#62232F" />
<rect x="110" y="27" width="1" height="1" fill="#62232F" />
<rect x="111" y="27" width="1" height="1" fill="#62232F" />
<rect x="112" y="27" width="1" height="1" fill="#62232F" />
<rect x="113" y="27" width="1" height="1" fill="#62232F" />
<rect x="114" y="27" width="1" height="1" fill="#62232F" />
<rect x="115" y="27" width="1" height="1" fill="#62232F" />
<rect x="116" y="27" width="1" height="1" fill="#62232F" />
<rect x="117" y="27" width="1" height="1" fill="#222222" />
<rect x="12" y="28" width="1" height="1" fill="#222222" />
<rect x="13" y="28" width="1" height="1" fill="#8F4029" />
<rect x="14" y="28" width="1" height="1" fill="#8F4029" />
<rect x="15" y="28" width="1" height="1" fill="#8F4029" />
<rect x="16" y="28" width="1" height="1" fill="#8F4029" />
<rect x="17" y="28" width="1" height="1" fill="#8F4029" />
<rect x="18" y="28" width="1" height="1" fill="#8F4029" />
<rect x="19" y="28" width="1" height="1" fill="#8F4029" />
<rect x="20" y="28" width="1" height="1" fill="#8F4029" />
<rect x="21" y="28" width="1" height="1" fill="#222222" />
<rect x="44" y="28" width="1" height="1" fill="#222222" />
<rect x="45" y="28" width="1" height="1" fill="#8F4029" />
<rect x="46" y="28" width="1" height="1" fill="#8F4029" />
<rect x="47" y="28" width="1" height="1" fill="#8F4029" />
<rect x="48" y="28" width="1" height="1" fill="#8F4029" />
<rect x="49" y="28" width="1" height="1" fill="#8F4029" />
<rect x="50" y="28" width="1" height="1" fill="#8F4029" />
<rect x="51" y="28" width="1" height="1" fill="#8F4029" />
<rect x="52" y="28" width="1" height="1" fill="#8F4029" />
<rect x="53" y="28" width="1" height="1" fill="#222222" />
<rect x="76" y="28" width="1" height="1" fill="#222222" />
<rect x="77" y="28" width="1" height="1" fill="#62232F" />
<rect x="78" y="28" width="1" height="1" fill="#62232F" />
<rect x="79" y="28" width="1" height="1" fill="#62232F" />
<rect x="80" y="28" width="1" height="1" fill="#62232F" />
<rect x="81" y="28" width="1" height="1" fill="#62232F" />
<rect x="82" y="28" width="1" height="1" fill="#62232F" />
<rect x="83" y="28" width="1" height="1" fill="#62232F" />
<rect x="84" y="28" width="1" height="1" fill="#62232F" />
<rect x="85" y="28" width="1" height="1" fill="#222222" />
<rect x="108" y="28" width="1" height="1" fill="#222222" />
<rect x="109" y="28" width="1" height="1" fill="#8F4029" />
<rect x="110" y="28" width="1" height="1" fill="#8F4029" />
<rect x="111" y="28" width="1" height="1" fill="#8F4029" />
<rect x="112" y="28" width="1" height="1" fill="#8F4029" />
<rect x="113" y="28" width="1" height="1" fill="#8F4029" />
<rect x="114" y="28" width="1" height="1" fill="#8F4029" />
<rect x="115" y="28" width="1" height="1" fill="#8F4029" />
<rect x="116" y="28" width="1" height="1" fill="#8F4029" />
<rect x="117" y="28" width="1" height="1" fill="#222222" />
<rect x="12" y="29" width="1" height="1" fill="#222222" />
<rect x="13" y="29" width="1" height="1" fill="#314152" />
<rect x="14" y="29" width="1" height="1" fill="#314152" />
<rect x="15" y="29" width="1" height="1" fill="#222222" />
<rect x="16" y="29" width="1" height="1" fill="#222222" />
<rect x="17" y="29" width="1" height="1" fill="#222222" />
<rect x="18" y="29" width="1" height="1" fill="#222222" />
<rect x="19" y="29" width="1" height="1" fill="#314152" />
<rect x="20" y="29" width="1" height="1" fill="#314152" />
<rect x="21" y="29" width="1" height="1" fill="#222222" />
<rect x="44" y="29" width="1" height="1" fill="#222222" />
<rect x="45" y="29" width="1" height="1" fill="#8F4029" />
<rect x="46" y="29" width="1" height="1" fill="#8F4029" />
<rect x="47" y="29" width="1" height="1" fill="#8F4029" />
<rect x="48" y="29" width="1" height="1" fill="#8F4029" />
<rect x="49" y="29" width="1" height="1" fill="#8F4029" />
<rect x="50" y="29" width="1" height="1" fill="#8F4029" />
<rect x="51" y="29" width="1" height="1" fill="#8F4029" />
<rect x="52" y="29" width="1" height="1" fill="#8F4029" />
<rect x="53" y="29" width="1" height="1" fill="#222222" />
<rect x="76" y="29" width="1" height="1" fill="#222222" />
<rect x="77" y="29" width="1" height="1" fill="#8F4029" />
<rect x="78" y="29" width="1" height="1" fill="#8F4029" />
<rect x="79" y="29" width="1" height="1" fill="#8F4029" />
<rect x="80" y="29" width="1" height="1" fill="#8F4029" />
<rect x="81" y="29" width="1" height="1" fill="#8F4029" />
<rect x="82" y="29" width="1" height="1" fill="#8F4029" />
<rect x="83" y="29" width="1" height="1" fill="#8F4029" />
<rect x="84" y="29" width="1" height="1" fill="#8F4029" />
<rect x="85" y="29" width="1" height="1" fill="#222222" />
<rect x="108" y="29" width="1" height="1" fill="#222222" />
<rect x="109" y="29" width="1" height="1" fill="#8F4029" />
<rect x="110" y="29" width="1" height="1" fill="#8F4029" />
<rect x="111" y="29" width="1" height="1" fill="#8F4029" />
<rect x="112" y="29" width="1" height="1" fill="#8F4029" />
<rect x="113" y="29" width="1" height="1" fill="#8F4029" />
<rect x="114" y="29" width="1" height="1" fill="#8F4029" />
<rect x="115" y="29" width="1" height="1" fill="#8F4029" />
<rect x="116" y="29" width="1" height="1" fill="#8F4029" />
<rect x="117" y="29" width="1" height="1" fill="#222222" />
<rect x="12" y="30" width="1" height="1" fill="#222222" />
<rect x="13" y="30" width="1" height="1" fill="#314152" />
<rect x="14" y="30" width="1" height="1" fill="#222222" />
<rect x="18" y="30" width="1" height="1" fill="#222222" />
<rect x="19" y="30" width="1" height="1" fill="#314152" />
<rect x="20" y="30" width="1" height="1" fill="#222222" />
<rect x="44" y="30" width="1" height="1" fill="#222222" />
<rect x="45" y="30" width="1" height="1" fill="#314152" />
<rect x="46" y="30" width="1" height="1" fill="#314152" />
<rect x="47" y="30" width="1" height="1" fill="#222222" />
<rect x="48" y="30" width="1" height="1" fill="#222222" />
<rect x="49" y="30" width="1" height="1" fill="#222222" />
<rect x="50" y="30" width="1" height="1" fill="#222222" />
<rect x="51" y="30" width="1" height="1" fill="#314152" />
<rect x="52" y="30" width="1" height="1" fill="#314152" />
<rect x="53" y="30" width="1" height="1" fill="#222222" />
<rect x="76" y="30" width="1" height="1" fill="#222222" />
<rect x="77" y="30" width="1" height="1" fill="#8F4029" />
<rect x="78" y="30" width="1" height="1" fill="#8F4029" />
<rect x="79" y="30" width="1" height="1" fill="#8F4029" />
<rect x="80" y="30" width="1" height="1" fill="#8F4029" />
<rect x="81" y="30" width="1" height="1" fill="#8F4029" />
<rect x="82" y="30" width="1" height="1" fill="#8F4029" />
<rect x="83" y="30" width="1" height="1" fill="#8F4029" />
<rect x="84" y="30" width="1" height="1" fill="#8F4029" />
<rect x="85" y="30" width="1" height="1" fill="#222222" />
<rect x="108" y="30" width="1" height="1" fill="#222222" />
<rect x="109" y="30" width="1" height="1" fill="#314152" />
<rect x="110" y="30" width="1" height="1" fill="#314152" />
<rect x="111" y="30" width="1" height="1" fill="#222222" />
<rect x="112" y="30" width="1" height="1" fill="#222222" />
<rect x="113" y="30" width="1" height="1" fill="#222222" />
<rect x="114" y="30" width="1" height="1" fill="#222222" />
<rect x="115" y="30" width="1" height="1" fill="#314152" />
<rect x="116" y="30" width="1" height="1" fill="#314152" />
<rect x="117" y="30" width="1" height="1" fill="#222222" />
<rect x="12" y="31" width="1" height="1" fill="#222222" />
<rect x="13" y="31" width="1" height="1" fill="#222222" />
<rect x="18" y="31" width="1" height="1" fill="#222222" />
<rect x="19" y="31" width="1" height="1" fill="#222222" />
<rect x="44" y="31" width="1" height="1" fill="#222222" />
<rect x="45" y="31" width="1" height="1" fill="#222222" />
<rect x="46" y="31" width="1" height="1" fill="#222222" />
<rect x="50" y="31" width="1" height="1" fill="#222222" />
<rect x="51" y="31" width="1" height="1" fill="#222222" />
<rect x="52" y="31" width="1" height="1" fill="#222222" />
<rect x="76" y="31" width="1" height="1" fill="#222222" />
<rect x="77" y="31" width="1" height="1" fill="#222222" />
<rect x="78" y="31" width="1" height="1" fill="#222222" />
<rect x="79" y="31" width="1" height="1" fill="#222222" />
<rect x="80" y="31" width="1" height="1" fill="#222222" />
<rect x="81" y="31" width="1" height="1" fill="#222222" />
<rect x="82" y="31" width="1" height="1" fill="#222222" />
<rect x="83" y="31" width="1" height="1" fill="#222222" />
<rect x="84" y="31" width="1" height="1" fill="#222222" />
<rect x="85" y="31" width="1" height="1" fill="#222222" />
<rect x="108" y="31" width="1" height="1" fill="#222222" />
<rect x="109" y="31" width="1" height="1" fill="#222222" />
<rect x="110" y="31" width="1" height="1" fill="#222222" />
<rect x="114" y="31" width="1" height="1" fill="#222222" />
<rect x="115" y="31" width="1" height="1" fill="#222222" />
<rect x="116" y="31" width="1" height="1" fill="#222222" />
</svg>