<?xml version="1.0" encoding="UTF-8" ?>
<svg version="1.1" width="128" height="32" xmlns="http://www.w3.org/2000/svg" shape-rendering="crispEdges">
<rect x="14" y="18" width="1" height="1" fill="#1C1117" />
<rect x="15" y="18" width="1" height="1" fill="#1C1117" />
<rect x="16" y="18" width="1" height="1" fill="#1C1117" />
<rect x="17" y="18" width="1" height="1" fill="#1C1117" />
<rect x="46" y="18" width="1" height="1" fill="#1C1117" />
<rect x="47" y="18" width="1" height="1" fill="#1C1117" />
<rect x="48" y="18" width="1" height="1" fill="#1C1117" />
<rect x="49" y="18" width="1" height="1" fill="#1C1117" />
<rect x="12" y="19" width="1" height="1" fill="#1C1117" />
<rect x="13" y="19" width="1" height="1" fill="#1C1117" />
<rect x="14" y="19" width="1" height="1" fill="#9F294E" />
<rect x="15" y="19" width="1" height="1" fill="#DA4E38" />
<rect x="16" y="19" width="1" height="1" fill="#DA4E38" />
<rect x="17" y="19" width="1" height="1" fill="#DA4E38" />
<rect x="18" y="19" width="1" height="1" fill="#1C1117" />
<rect x="19" y="19" width="1" height="1" fill="#1C1117" />
<rect x="44" y="19" width="1" height="1" fill="#1C1117" />
<rect x="45" y="19" width="1" height="1" fill="#1C1117" />
<rect x="46" y="19" width="1" height="1" fill="#9F294E" />
<rect x="47" y="19" width="1" height="1" fill="#DA4E38" />
<rect x="48" y="19" width="1" height="1" fill="#DA4E38" />
<rect x="49" y="19" width="1" height="1" fill="#DA4E38" />
<rect x="50" y="19" width="1" height="1" fill="#1C1117" />
<rect x="51" y="19" width="1" height="1" fill="#1C1117" />
<rect x="110" y="19" width="1" height="1" fill="#1C1117" />
<rect x="111" y="19" width="1" height="1" fill="#1C1117" />
<rect x="112" y="19" width="1" height="1" fill="#1C1117" />
<rect x="113" y="19" width="1" height="1" fill="#1C1117" />
<rect x="11" y="20" width="1" height="1" fill="#1C1117" />
<rect x="12" y="20" width="1" height="1" fill="#9F294E" />
<rect x="13" y="20" width="1" height="1" fill="#9F294E" />
<rect x="14" y="20" width="1" height="1" fill="#DA4E38" />
<rect x="15" y="20" width="1" height="1" fill="#FDF7ED" />
<rect x="16" y="20" width="1" height="1" fill="#DA4E38" />
<rect x="17" y="20" width="1" height="1" fill="#DA4E38" />
<rect x="18" y="20" width="1" height="1" fill="#DA4E38" />
<rect x="19" y="20" width="1" height="1" fill="#DA4E38" />
<rect x="20" y="20" width="1" height="1" fill="#1C1117" />
<rect x="43" y="20" width="1" height="1" fill="#1C1117" />
<rect x="44" y="20" width="1" height="1" fill="#9F294E" />
<rect x="45" y="20" width="1" height="1" fill="#9F294E" />
<rect x="46" y="20" width="1" height="1" fill="#DA4E38" />
<rect x="47" y="20" width="1" height="1" fill="#FDF7ED" />
<rect x="48" y="20" width="1" height="1" fill="#DA4E38" />
<rect x="49" y="20" width="1" height="1" fill="#DA4E38" />
<rect x="50" y="20" width="1" height="1" fill="#DA4E38" />
<rect x="51" y="20" width="1" height="1" fill="#DA4E38" />
<rect x="52" y="20" width="1" height="1" fill="#1C1117" />
<rect x="78" y="20" width="1" height="1" fill="#1C1117" />
<rect x="79" y="20" width="1" height="1" fill="#1C1117" />
<rect x="80" y="20" width="1" height="1" fill="#1C1117" />
<rect x="81" y="20" width="1" height="1" fill="#1C1117" />
<rect x="108" y="20" width="1" height="1" fill="#1C1117" />
<rect x="109" y="20" width="1" height="1" fill="#1C1117" />
<rect x="110" y="20" width="1" height="1" fill="#9F294E" />
<rect x="111" y="20" width="1" height="1" fill="#DA4E38" />
<rect x="112" y="20" width="1" height="1" fill="#DA4E38" />
<rect x="113" y="20" width="1" height="1" fill="#DA4E38" />
<rect x="114" y="20" width="1" height="1" fill="#1C1117" />
<rect x="115" y="20" width="1" height="1" fill="#1C1117" />
<rect x="10" y="21" width="1" height="1" fill="#1C1117" />
<rect x="11" y="21" width="1" height="1" fill="#FDF7ED" />
<rect x="12" y="21" width="1" height="1" fill="#9F294E" />
<rect x="13" y="21" width="1" height="1" fill="#DA4E38" />
<rect x="14" y="21" width="1" height="1" fill="#DA4E38" />
<rect x="15" y="21" width="1" height="1" fill="#DA4E38" />
<rect x="16" y="21" width="1" height="1" fill="#DA4E38" />
<rect x="17" y="21" width="1" height="1" fill="#DA4E38" />
<rect x="18" y="21" width="1" height="1" fill="#FDF7ED" />
<rect x="19" y="21" width="1" height="1" fill="#DA4E38" />
<rect x="20" y="21" width="1" height="1" fill="#DA4E38" />
<rect x="21" y="21" width="1" height="1" fill="#1C1117" />
<rect x="42" y="21" width="1" height="1" fill="#1C1117" />
<rect x="43" y="21" width="1" height="1" fill="#FDF7ED" />
<rect x="44" y="21" width="1" height="1" fill="#9F294E" />
<rect x="45" y="21" width="1" height="1" fill="#DA4E38" />
<rect x="46" y="21" width="1" height="1" fill="#DA4E38" />
<rect x="47" y="21" width="1" height="1" fill="#DA4E38" />
<rect x="48" y="21" width="1" height="1" fill="#DA4E38" />
<rect x="49" y="21" width="1" height="1" fill="#DA4E38" />
<rect x="50" y="21" width="1" height="1" fill="#FDF7ED" />
<rect x="51" y="21" width="1" height="1" fill="#DA4E38" />
<rect x="52" y="21" width="1" height="1" fill="#DA4E38" />
<rect x="53" y="21" width="1" height="1" fill="#1C1117" />
<rect x="76" y="21" width="1" height="1" fill="#1C1117" />
<rect x="77" y="21" width="1" height="1" fill="#1C1117" />
<rect x="78" y="21" width="1" height="1" fill="#9F294E" />
<rect x="79" y="21" width="1" height="1" fill="#DA4E38" />
<rect x="80" y="21" width="1" height="1" fill="#DA4E38" />
<rect x="81" y="21" width="1" height="1" fill="#DA4E38" />
<rect x="82" y="21" width="1" height="1" fill="#1C1117" />
<rect x="83" y="21" width="1" height="1" fill="#1C1117" />
<rect x="107" y="21" width="1" height="1" fill="#1C1117" />
<rect x="108" y="21" width="1" height="1" fill="#9F294E" />
<rect x="109" y="21" width="1" height="1" fill="#9F294E" />
<rect x="110" y="21" width="1" height="1" fill="#DA4E38" />
<rect x="111" y="21" width="1" height="1" fill="#FDF7ED" />
<rect x="112" y="21" width="1" height="1" fill="#DA4E38" />
<rect x="113" y="21" width="1" height="1" fill="#DA4E38" />
<rect x="114" y="21" width="1" height="1" fill="#DA4E38" />
<rect x="115" y="21" width="1" height="1" fill="#DA4E38" />
<rect x="116" y="21" width="1" height="1" fill="#1C1117" />
<rect x="9" y="22" width="1" height="1" fill="#1C1117" />
<rect x="10" y="22" width="1" height="1" fill="#9F294E" />
<rect x="11" y="22" width="1" height="1" fill="#9F294E" />
<rect x="12" y="22" width="1" height="1" fill="#DA4E38" />
<rect x="13" y="22" width="1" height="1" fill="#DA4E38" />
<rect x="14" y="22" width="1" height="1" fill="#FDF7ED" />
<rect x="15" y="22" width="1" height="1" fill="#DA4E38" />
<rect x="16" y="22" width="1" height="1" fill="#DA4E38" />
<rect x="17" y="22" width="1" height="1" fill="#DA4E38" />
<rect x="18" y="22" width="1" height="1" fill="#DA4E38" />
<rect x="19" y="22" width="1" height="1" fill="#DA4E38" />
<rect x="20" y="22" width="1" height="1" fill="#FDF7ED" />
<rect x="21" y="22" width="1" height="1" fill="#DA4E38" />
<rect x="22" y="22" width="1" height="1" fill="#1C1117" />
<rect x="41" y="22" width="1" height="1" fill="#1C1117" />
<rect x="42" y="22" width="1" height="1" fill="#9F294E" />
<rect x="43" y="22" width="1" height="1" fill="#9F294E" />
<rect x="44" y="22" width="1" height="1" fill="#DA4E38" />
<rect x="45" y="22" width="1" height="1" fill="#DA4E38" />
<rect x="46" y="22" width="1" height="1" fill="#FDF7ED" />
<rect x="47" y="22" width="1" height="1" fill="#DA4E38" />
<rect x="48" y="22" width="1" height="1" fill="#DA4E38" />
<rect x="49" y="22" width="1" height="1" fill="#DA4E38" />
<rect x="50" y="22" width="1" height="1" fill="#DA4E38" />
<rect x="51" y="22" width="1" height="1" fill="#DA4E38" />
<rect x="52" y="22" width="1" height="1" fill="#FDF7ED" />
<rect x="53" y="22" width="1" height="1" fill="#DA4E38" />
<rect x="54" y="22" width="1" height="1" fill="#1C1117" />
<rect x="75" y="22" width="1" height="1" fill="#1C1117" />
<rect x="76" y="22" width="1" height="1" fill="#9F294E" />
<rect x="77" y="22" width="1" height="1" fill="#9F294E" />
<rect x="78" y="22" width="1" height="1" fill="#DA4E38" />
<rect x="79" y="22" width="1" height="1" fill="#FDF7ED" />
<rect x="80" y="22" width="1" height="1" fill="#DA4E38" />
<rect x="81" y="22" width="1" height="1" fill="#DA4E38" />
<rect x="82" y="22" width="1" height="1" fill="#DA4E38" />
<rect x="83" y="22" width="1" height="1" fill="#DA4E38" />
<rect x="84" y="22" width="1" height="1" fill="#1C1117" />
<rect x="106" y="22" width="1" height="1" fill="#1C1117" />
<rect x="107" y="22" width="1" height="1" fill="#FDF7ED" />
<rect x="108" y="22" width="1" height="1" fill="#9F294E" />
<rect x="109" y="22" width="1" height="1" fill="#DA4E38" />
<rect x="110" y="22" width="1" height="1" fill="#DA4E38" />
<rect x="111" y="22" width="1" height="1" fill="#DA4E38" />
<rect x="112" y="22" width="1" height="1" fill="#DA4E38" />
<rect x="113" y="22" width="1" height="1" fill="#DA4E38" />
<rect x="114" y="22" width="1" height="1" fill="#FDF7ED" />
<rect x="115" y="22" width="1" height="1" fill="#DA4E38" />
<rect x="116" y="22" width="1" height="1" fill="#DA4E38" />
<rect x="117" y="22" width="1" height="1" fill="#1C1117" />
<rect x="9" y="23" width="1" height="1" fill="#1C1117" />
<rect x="10" y="23" width="1" height="1" fill="#9F294E" />
<rect x="11" y="23" width="1" height="1" fill="#9F294E" />
<rect x="12" y="23" width="1" height="1" fill="#FDF7ED" />
<rect x="13" y="23" width="1" height="1" fill="#DA4E38" />
<rect x="14" y="23" width="1" height="1" fill="#DA4E38" />
<rect x="15" y="23" width="1" height="1" fill="#DA4E38" />
<rect x="16" y="23" width="1" height="1" fill="#DA4E38" />
<rect x="17" y="23" width="1" height="1" fill="#FDF7ED" />
<rect x="18" y="23" width="1" height="1" fill="#DA4E38" />
<rect x="19" y="23" width="1" height="1" fill="#DA4E38" />
<rect x="20" y="23" width="1" height="1" fill="#DA4E38" />
<rect x="21" y="23" width="1" height="1" fill="#DA4E38" />
<rect x="22" y="23" width="1" height="1" fill="#1C1117" />
<rect x="41" y="23" width="1" height="1" fill="#1C1117" />
<rect x="42" y="23" width="1" height="1" fill="#9F294E" />
<rect x="43" y="23" width="1" height="1" fill="#9F294E" />
<rect x="44" y="23" width="1" height="1" fill="#FDF7ED" />
<rect x="45" y="23" width="1" height="1" fill="#DA4E38" />
<rect x="46" y="23" width="1" height="1" fill="#DA4E38" />
<rect x="47" y="23" width="1" height="1" fill="#DA4E38" />
<rect x="48" y="23" width="1" height="1" fill="#DA4E38" />
<rect x="49" y="23" width="1" height="1" fill="#FDF7ED" />
<rect x="50" y="23" width="1" height="1" fill="#DA4E38" />
<rect x="51" y="23" width="1" height="1" fill="#DA4E38" />
<rect x="52" y="23" width="1" height="1" fill="#DA4E38" />
<rect x="53" y="23" width="1" height="1" fill="#DA4E38" />
<rect x="54" y="23" width="1" height="1" fill="#1C1117" />
<rect x="74" y="23" width="1" height="1" fill="#1C1117" />
<rect x="75" y="23" width="1" height="1" fill="#FDF7ED" />
<rect x="76" y="23" width="1" height="1" fill="#9F294E" />
<rect x="77" y="23" width="1" height="1" fill="#DA4E38" />
<rect x="78" y="23" width="1" height="1" fill="#DA4E38" />
<rect x="79" y="23" width="1" height="1" fill="#DA4E38" />
<rect x="80" y="23" width="1" height="1" fill="#DA4E38" />
<rect x="81" y="23" width="1" height="1" fill="#DA4E38" />
<rect x="82" y="23" width="1" height="1" fill="#FDF7ED" />
<rect x="83" y="23" width="1" height="1" fill="#DA4E38" />
<rect x="84" y="23" width="1" height="1" fill="#DA4E38" />
<rect x="85" y="23" width="1" height="1" fill="#1C1117" />
<rect x="105" y="23" width="1" height="1" fill="#1C1117" />
<rect x="106" y="23" width="1" height="1" fill="#9F294E" />
<rect x="107" y="23" width="1" height="1" fill="#9F294E" />
<rect x="108" y="23" width="1" height="1" fill="#DA4E38" />
<rect x="109" y="23" width="1" height="1" fill="#DA4E38" />
<rect x="110" y="23" width="1" height="1" fill="#FDF7ED" />
<rect x="111" y="23" width="1" height="1" fill="#DA4E38" />
<rect x="112" y="23" width="1" height="1" fill="#DA4E38" />
<rect x="113" y="23" width="1" height="1" fill="#DA4E38" />
<rect x="114" y="23" width="1" height="1" fill="#DA4E38" />
<rect x="115" y="23" width="1" height="1" fill="#DA4E38" />
<rect x="116" y="23" width="1" height="1" fill="#FDF7ED" />
<rect x="117" y="23" width="1" height="1" fill="#DA4E38" />
<rect x="118" y="23" width="1" height="1" fill="#1C1117" />
<rect x="10" y="24" width="1" height="1" fill="#1C1117" />
<rect x="11" y="24" width="1" height="1" fill="#9F294E" />
<rect x="12" y="24" width="1" height="1" fill="#9F294E" />
<rect x="13" y="24" width="1" height="1" fill="#9F294E" />
<rect x="14" y="24" width="1" height="1" fill="#DA4E38" />
<rect x="15" y="24" width="1" height="1" fill="#DA4E38" />
<rect x="16" y="24" width="1" height="1" fill="#DA4E38" />
<rect x="17" y="24" width="1" height="1" fill="#DA4E38" />
<rect x="18" y="24" width="1" height="1" fill="#DA4E38" />
<rect x="19" y="24" width="1" height="1" fill="#DA4E38" />
<rect x="20" y="24" width="1" height="1" fill="#DA4E38" />
<rect x="21" y="24" width="1" height="1" fill="#1C1117" />
<rect x="42" y="24" width="1" height="1" fill="#1C1117" />
<rect x="43" y="24" width="1" height="1" fill="#9F294E" />
<rect x="44" y="24" width="1" height="1" fill="#9F294E" />
<rect x="45" y="24" width="1" height="1" fill="#9F294E" />
<rect x="46" y="24" width="1" height="1" fill="#DA4E38" />
<rect x="47" y="24" width="1" height="1" fill="#DA4E38" />
<rect x="48" y="24" width="1" height="1" fill="#DA4E38" />
<rect x="49" y="24" width="1" height="1" fill="#DA4E38" />
<rect x="50" y="24" width="1" height="1" fill="#DA4E38" />
<rect x="51" y="24" width="1" height="1" fill="#DA4E38" />
<rect x="52" y="24" width="1" height="1" fill="#DA4E38" />
<rect x="53" y="24" width="1" height="1" fill="#1C1117" />
<rect x="73" y="24" width="1" height="1" fill="#1C1117" />
<rect x="74" y="24" width="1" height="1" fill="#9F294E" />
<rect x="75" y="24" width="1" height="1" fill="#9F294E" />
<rect x="76" y="24" width="1" height="1" fill="#DA4E38" />
<rect x="77" y="24" width="1" height="1" fill="#DA4E38" />
<rect x="78" y="24" width="1" height="1" fill="#FDF7ED" />
<rect x="79" y="24" width="1" height="1" fill="#DA4E38" />
<rect x="80" y="24" width="1" height="1" fill="#DA4E38" />
<rect x="81" y="24" width="1" height="1" fill="#DA4E38" />
<rect x="82" y="24" width="1" height="1" fill="#DA4E38" />
<rect x="83" y="24" width="1" height="1" fill="#DA4E38" />
<rect x="84" y="24" width="1" height="1" fill="#FDF7ED" />
<rect x="85" y="24" width="1" height="1" fill="#DA4E38" />
<rect x="86" y="24" width="1" height="1" fill="#1C1117" />
<rect x="105" y="24" width="1" height="1" fill="#1C1117" />
<rect x="106" y="24" width="1" height="1" fill="#9F294E" />
<rect x="107" y="24" width="1" height="1" fill="#9F294E" />
<rect x="108" y="24" width="1" height="1" fill="#FDF7ED" />
<rect x="109" y="24" width="1" height="1" fill="#DA4E38" />
<rect x="110" y="24" width="1" height="1" fill="#DA4E38" />
<rect x="111" y="24" width="1" height="1" fill="#DA4E38" />
<rect x="112" y="24" width="1" height="1" fill="#DA4E38" />
<rect x="113" y="24" width="1" height="1" fill="#FDF7ED" />
<rect x="114" y="24" width="1" height="1" fill="#DA4E38" />
<rect x="115" y="24" width="1" height="1" fill="#DA4E38" />
<rect x="116" y="24" width="1" height="1" fill="#DA4E38" />
<rect x="117" y="24" width="1" height="1" fill="#DA4E38" />
<rect x="118" y="24" width="1" height="1" fill="#1C1117" />
<rect x="11" y="25" width="1" height="1" fill="#1C1117" />
<rect x="12" y="25" width="1" height="1" fill="#1C1117" />
<rect x="13" y="25" width="1" height="1" fill="#1C1117" />
<rect x="14" y="25" width="1" height="1" fill="#1C1117" />
<rect x="15" y="25" width="1" height="1" fill="#1C1117" />
<rect x="16" y="25" width="1" height="1" fill="#1C1117" />
<rect x="17" y="25" width="1" height="1" fill="#1C1117" />
<rect x="18" y="25" width="1" height="1" fill="#1C1117" />
<rect x="19" y="25" width="1" height="1" fill="#1C1117" />
<rect x="20" y="25" width="1" height="1" fill="#1C1117" />
<rect x="43" y="25" width="1" height="1" fill="#1C1117" />
<rect x="44" y="25" width="1" height="1" fill="#1C1117" />
<rect x="45" y="25" width="1" height="1" fill="#1C1117" />
<rect x="46" y="25" width="1" height="1" fill="#1C1117" />
<rect x="47" y="25" width="1" height="1" fill="#1C1117" />
<rect x="48" y="25" width="1" height="1" fill="#1C1117" />
<rect x="49" y="25" width="1" height="1" fill="#1C1117" />
<rect x="50" y="25" width="1" height="1" fill="#1C1117" />
<rect x="51" y="25" width="1" height="1" fill="#1C1117" />
<rect x="52" y="25" width="1" height="1" fill="#1C1117" />
<rect x="73" y="25" width="1" height="1" fill="#1C1117" />
<rect x="74" y="25" width="1" height="1" fill="#9F294E" />
<rect x="75" y="25" width="1" height="1" fill="#9F294E" />
<rect x="76" y="25" width="1" height="1" fill="#FDF7ED" />
<rect x="77" y="25" width="1" height="1" fill="#DA4E38" />
<rect x="78" y="25" width="1" height="1" fill="#DA4E38" />
<rect x="79" y="25" width="1" height="1" fill="#DA4E38" />
<rect x="80" y="25" width="1" height="1" fill="#DA4E38" />
<rect x="81" y="25" width="1" height="1" fill="#FDF7ED" />
<rect x="82" y="25" width="1" height="1" fill="#DA4E38" />
<rect x="83" y="25" width="1" height="1" fill="#DA4E38" />
<rect x="84" y="25" width="1" height="1" fill="#DA4E38" />
<rect x="85" y="25" width="1" height="1" fill="#DA4E38" />
<rect x="86" y="25" width="1" height="1" fill="#1C1117" />
<rect x="106" y="25" width="1" height="1" fill="#1C1117" />
<rect x="107" y="25" width="1" height="1" fill="#9F294E" />
<rect x="108" y="25" width="1" height="1" fill="#9F294E" />
<rect x="109" y="25" width="1" height="1" fill="#9F294E" />
<rect x="110" y="25" width="1" height="1" fill="#DA4E38" />
<rect x="111" y="25" width="1" height="1" fill="#DA4E38" />
<rect x="112" y="25" width="1" height="1" fill="#DA4E38" />
<rect x="113" y="25" width="1" height="1" fill="#DA4E38" />
<rect x="114" y="25" width="1" height="1" fill="#DA4E38" />
<rect x="115" y="25" width="1" height="1" fill="#DA4E38" />
<rect x="116" y="25" width="1" height="1" fill="#DA4E38" />
<rect x="117" y="25" width="1" height="1" fill="#1C1117" />
<rect x="12" y="26" width="1" height="1" fill="#1C1117" />
<rect x="13" y="26" width="1" height="1" fill="#AA8D7A" />
<rect x="14" y="26" width="1" height="1" fill="#FDF7ED" />
<rect x="15" y="26" width="1" height="1" fill="#FDF7ED" />
<rect x="16" y="26" width="1" height="1" fill="#FDF7ED" />
<rect x="17" y="26" width="1" height="1" fill="#FDF7ED" />
<rect x="18" y="26" width="1" height="1" fill="#FDF7ED" />
<rect x="19" y="26" width="1" height="1" fill="#1C1117" />
<rect x="44" y="26" width="1" height="1" fill="#1C1117" />
<rect x="45" y="26" width="1" height="1" fill="#AA8D7A" />
<rect x="46" y="26" width="1" height="1" fill="#FDF7ED" />
<rect x="47" y="26" width="1" height="1" fill="#FDF7ED" />
<rect x="48" y="26" width="1" height="1" fill="#FDF7ED" />
<rect x="49" y="26" width="1" height="1" fill="#FDF7ED" />
<rect x="50" y="26" width="1" height="1" fill="#FDF7ED" />
<rect x="51" y="26" width="1" height="1" fill="#1C1117" />
<rect x="74" y="26" width="1" height="1" fill="#1C1117" />
<rect x="75" y="26" width="1" height="1" fill="#9F294E" />
<rect x="76" y="26" width="1" height="1" fill="#9F294E" />
<rect x="77" y="26" width="1" height="1" fill="#9F294E" />
<rect x="78" y="26" width="1" height="1" fill="#DA4E38" />
<rect x="79" y="26" width="1" height="1" fill="#DA4E38" />
<rect x="80" y="26" width="1" height="1" fill="#DA4E38" />
<rect x="81" y="26" width="1" height="1" fill="#DA4E38" />
<rect x="82" y="26" width="1" height="1" fill="#DA4E38" />
<rect x="83" y="26" width="1" height="1" fill="#DA4E38" />
<rect x="84" y="26" width="1" height="1" fill="#DA4E38" />
<rect x="85" y="26" width="1" height="1" fill="#1C1117" />
<rect x="107" y="26" width="1" height="1" fill="#1C1117" />
<rect x="108" y="26" width="1" height="1" fill="#1C1117" />
<rect x="109" y="26" width="1" height="1" fill="#1C1117" />
<rect x="110" y="26" width="1" height="1" fill="#1C1117" />
<rect x="111" y="26" width="1" height="1" fill="#1C1117" />
<rect x="112" y="26" width="1" height="1" fill="#1C1117" />
<rect x="113" y="26" width="1" height="1" fill="#1C1117" />
<rect x="114" y="26" width="1" height="1" fill="#1C1117" />
<rect x="115" y="26" width="1" height="1" fill="#1C1117" />
<rect x="116" y="26" width="1" height="1" fill="#1C1117" />
<rect x="12" y="27" width="1" height="1" fill="#1C1117" />
<rect x="13" y="27" width="1" height="1" fill="#AA8D7A" />
<rect x="14" y="27" width="1" height="1" fill="#241729" />
<rect x="15" y="27" width="1" height="1" fill="#241729" />
<rect x="16" y="27" width="1" height="1" fill="#FDF7ED" />
<rect x="17" y="27" width="1" height="1" fill="#FDF7ED" />
<rect x="18" y="27" width="1" height="1" fill="#241729" />
<rect x="19" y="27" width="1" height="1" fill="#1C1117" />
<rect x="44" y="27" width="1" height="1" fill="#1C1117" />
<rect x="45" y="27" width="1" height="1" fill="#AA8D7A" />
<rect x="46" y="27" width="1" height="1" fill="#241729" />
<rect x="47" y="27" width="1" height="1" fill="#241729" />
<rect x="48" y="27" width="1" height="1" fill="#FDF7ED" />
<rect x="49" y="27" width="1" height="1" fill="#FDF7ED" />
<rect x="50" y="27" width="1" height="1" fill="#241729" />
<rect x="51" y="27" width="1" height="1" fill="#1C1117" />
<rect x="75" y="27" width="1" height="1" fill="#1C1117" />
<rect x="76" y="27" width="1" height="1" fill="#1C1117" />
<rect x="77" y="27" width="1" height="1" fill="#1C1117" />
<rect x="78" y="27" width="1" height="1" fill="#1C1117" />
<rect x="79" y="27" width="1" height="1" fill="#1C1117" />
<rect x="80" y="27" width="1" height="1" fill="#1C1117" />
<rect x="81" y="27" width="1" height="1" fill="#1C1117" />
<rect x="82" y="27" width="1" height="1" fill="#1C1117" />
<rect x="83" y="27" width="1" height="1" fill="#1C1117" />
<rect x="84" y="27" width="1" height="1" fill="#1C1117" />
<rect x="108" y="27" width="1" height="1" fill="#1C1117" />
<rect x="109" y="27" width="1" height="1" fill="#AA8D7A" />
<rect x="110" y="27" width="1" height="1" fill="#FDF7ED" />
<rect x="111" y="27" width="1" height="1" fill="#FDF7ED" />
<rect x="112" y="27" width="1" height="1" fill="#FDF7ED" />
<rect x="113" y="27" width="1" height="1" fill="#FDF7ED" />
<rect x="114" y="27" width="1" height="1" fill="#FDF7ED" />
<rect x="115" y="27" width="1" height="1" fill="#1C1117" />
<rect x="12" y="28" width="1" height="1" fill="#1C1117" />
<rect x="13" y="28" width="1" height="1" fill="#AA8D7A" />
<rect x="14" y="28" width="1" height="1" fill="#241729" />
<rect x="15" y="28" width="1" height="1" fill="#241729" />
<rect x="16" y="28" width="1" height="1" fill="#FDF7ED" />
<rect x="17" y="28" width="1" height="1" fill="#FDF7ED" />
<rect x="18" y="28" width="1" height="1" fill="#241729" />
<rect x="19" y="28" width="1" height="1" fill="#1C1117" />
<rect x="44" y="28" width="1" height="1" fill="#1C1117" />
<rect x="45" y="28" width="1" height="1" fill="#AA8D7A" />
<rect x="46" y="28" width="1" height="1" fill="#241729" />
<rect x="47" y="28" width="1" height="1" fill="#241729" />
<rect x="48" y="28" width="1" height="1" fill="#FDF7ED" />
<rect x="49" y="28" width="1" height="1" fill="#FDF7ED" />
<rect x="50" y="28" width="1" height="1" fill="#241729" />
<rect x="51" y="28" width="1" height="1" fill="#1C1117" />
<rect x="76" y="28" width="1" height="1" fill="#1C1117" />
<rect x="77" y="28" width="1" height="1" fill="#AA8D7A" />
<rect x="78" y="28" width="1" height="1" fill="#FDF7ED" />
<rect x="79" y="28" width="1" height="1" fill="#FDF7ED" />
<rect x="80" y="28" width="1" height="1" fill="#FDF7ED" />
<rect x="81" y="28" width="1" height="1" fill="#FDF7ED" />
<rect x="82" y="28" width="1" height="1" fill="#FDF7ED" />
<rect x="83" y="28" width="1" height="1" fill="#1C1117" />
<rect x="108" y="28" width="1" height="1" fill="#1C1117" />
<rect x="109" y="28" width="1" height="1" fill="#AA8D7A" />
<rect x="110" y="28" width="1" height="1" fill="#241729" />
<rect x="111" y="28" width="1" height="1" fill="#241729" />
<rect x="112" y="28" width="1" height="1" fill="#FDF7ED" />
<rect x="113" y="28" width="1" height="1" fill="#FDF7ED" />
<rect x="114" y="28" width="1" height="1" fill="#241729" />
<rect x="115" y="28" width="1" height="1" fill="#1C1117" />
<rect x="11" y="29" width="1" height="1" fill="#1C1117" />
<rect x="12" y="29" width="1" height="1" fill="#1C1117" />
<rect x="13" y="29" width="1" height="1" fill="#AA8D7A" />
<rect x="14" y="29" width="1" height="1" fill="#FDF7ED" />
<rect x="15" y="29" width="1" height="1" fill="#FDF7ED" />
<rect x="16" y="29" width="1" height="1" fill="#FDF7ED" />
<rect x="17" y="29" width="1" height="1" fill="#FDF7ED" />
<rect x="18" y="29" width="1" height="1" fill="#FDF7ED" />
<rect x="19" y="29" width="1" height="1" fill="#1C1117" />
<rect x="20" y="29" width="1" height="1" fill="#1C1117" />
<rect x="44" y="29" width="1" height="1" fill="#1C1117" />
<rect x="45" y="29" width="1" height="1" fill="#AA8D7A" />
<rect x="46" y="29" width="1" height="1" fill="#241729" />
<rect x="47" y="29" width="1" height="1" fill="#241729" />
<rect x="48" y="29" width="1" height="1" fill="#FDF7ED" />
<rect x="49" y="29" width="1" height="1" fill="#FDF7ED" />
<rect x="50" y="29" width="1" height="1" fill="#241729" />
<rect x="51" y="29" width="1" height="1" fill="#1C1117" />
<rect x="76" y="29" width="1" height="1" fill="#1C1117" />
<rect x="77" y="29" width="1" height="1" fill="#AA8D7A" />
<rect x="78" y="29" width="1" height="1" fill="#241729" />
<rect x="79" y="29" width="1" height="1" fill="#241729" />
<rect x="80" y="29" width="1" height="1" fill="#FDF7ED" />
<rect x="81" y="29" width="1" height="1" fill="#FDF7ED" />
<rect x="82" y="29" width="1" height="1" fill="#241729" />
<rect x="83" y="29" width="1" height="1" fill="#1C1117" />
<rect x="108" y="29" width="1" height="1" fill="#1C1117" />
<rect x="109" y="29" width="1" height="1" fill="#AA8D7A" />
<rect x="110" y="29" width="1" height="1" fill="#241729" />
<rect x="111" y="29" width="1" height="1" fill="#241729" />
<rect x="112" y="29" width="1" height="1" fill="#FDF7ED" />
<rect x="113" y="29" width="1" height="1" fill="#FDF7ED" />
<rect x="114" y="29" width="1" height="1" fill="#241729" />
<rect x="115" y="29" width="1" height="1" fill="#1C1117" />
<rect x="11" y="30" width="1" height="1" fill="#1C1117" />
<rect x="12" y="30" width="1" height="1" fill="#D3BFA9" />
<rect x="13" y="30" width="1" height="1" fill="#D3BFA9" />
<rect x="14" y="30" width="1" height="1" fill="#1C1117" />
<rect x="15" y="30" width="1" height="1" fill="#1C1117" />
<rect x="16" y="30" width="1" height="1" fill="#1C1117" />
<rect x="17" y="30" width="1" height="1" fill="#1C1117" />
<rect x="18" y="30" width="1" height="1" fill="#D3BFA9" />
<rect x="19" y="30" width="1" height="1" fill="#D3BFA9" />
<rect x="20" y="30" width="1" height="1" fill="#1C1117" />
<rect x="44" y="30" width="1" height="1" fill="#1C1117" />
<rect x="45" y="30" width="1" height="1" fill="#AA8D7A" />
<rect x="46" y="30" width="1" height="1" fill="#FDF7ED" />
<rect x="47" y="30" width="1" height="1" fill="#FDF7ED" />
<rect x="48" y="30" width="1" height="1" fill="#FDF7ED" />
<rect x="49" y="30" width="1" height="1" fill="#FDF7ED" />
<rect x="50" y="30" width="1" height="1" fill="#FDF7ED" />
<rect x="51" y="30" width="1" height="1" fill="#1C1117" />
<rect x="75" y="30" width="1" height="1" fill="#1C1117" />
<rect x="76" y="30" width="1" height="1" fill="#1C1117" />
<rect x="77" y="30" width="1" height="1" fill="#AA8D7A" />
<rect x="78" y="30" width="1" height="1" fill="#241729" />
<rect x="79" y="30" width="1" height="1" fill="#241729" />
<rect x="80" y="30" width="1" height="1" fill="#FDF7ED" />
<rect x="81" y="30" width="1" height="1" fill="#FDF7ED" />
<rect x="82" y="30" width="1" height="1" fill="#241729" />
<rect x="83" y="30" width="1" height="1" fill="#1C1117" />
<rect x="84" y="30" width="1" height="1" fill="#1C1117" />
<rect x="108" y="30" width="1" height="1" fill="#1C1117" />
<rect x="109" y="30" width="1" height="1" fill="#AA8D7A" />
<rect x="110" y="30" width="1" height="1" fill="#FDF7ED" />
<rect x="111" y="30" width="1" height="1" fill="#FDF7ED" />
<rect x="112" y="30" width="1" height="1" fill="#FDF7ED" />
<rect x="113" y="30" width="1" height="1" fill="#FDF7ED" />
<rect x="114" y="30" width="1" height="1" fill="#FDF7ED" />
<rect x="115" y="30" width="1" height="1" fill="#1C1117" />
<rect x="11" y="31" width="1" height="1" fill="#1C1117" />
<rect x="12" y="31" width="1" height="1" fill="#1C1117" />
<rect x="13" y="31" width="1" height="1" fill="#1C1117" />
<rect x="14" y="31" width="1" height="1" fill="#1C1117" />
<rect x="17" y="31" width="1" height="1" fill="#1C1117" />
<rect x="18" y="31" width="1" height="1" fill="#1C1117" />
<rect x="19" y="31" width="1" height="1" fill="#1C1117" />
<rect x="20" y="31" width="1" height="1" fill="#1C1117" />
<rect x="43" y="31" width="1" height="1" fill="#1C1117" />
<rect x="44" y="31" width="1" height="1" fill="#1C1117" />
<rect x="45" y="31" width="1" height="1" fill="#1C1117" />
<rect x="46" y="31" width="1" height="1" fill="#1C1117" />
<rect x="47" y="31" width="1" height="1" fill="#1C1117" />
<rect x="48" y="31" width="1" height="1" fill="#1C1117" />
<rect x="49" y="31" width="1" height="1" fill="#1C1117" />
<rect x="50" y="31" width="1" height="1" fill="#1C1117" />
<rect x="51" y="31" width="1" height="1" fill="#1C1117" />
<rect x="52" y="31" width="1" height="1" fill="#1C1117" />
<rect x="74" y="31" width="1" height="1" fill="#1C1117" />
<rect x="75" y="31" width="1" height="1" fill="#1C1117" />
<rect x="76" y="31" width="1" height="1" fill="#AA8D7A" />
<rect x="77" y="31" width="1" height="1" fill="#AA8D7A" />
<rect x="78" y="31" width="1" height="1" fill="#FDF7ED" />
<rect x="79" y="31" width="1" height="1" fill="#FDF7ED" />
<rect x="80" y="31" width="1" height="1" fill="#FDF7ED" />
<rect x="81" y="31" width="1" height="1" fill="#FDF7ED" />
<rect x="82" y="31" width="1" height="1" fill="#FDF7ED" />
<rect x="83" y="31" width="1" height="1" fill="#FDF7ED" />
<rect x="84" y="31" width="1" height="1" fill="#1C1117" />
<rect x="85" y="31" width="1" height="1" fill="#1C1117" />
<rect x="107" y="31" width="1" height="1" fill="#1C1117" />
<rect x="108" y="31" width="1" height="1" fill="#1C1117" />
<rect x="109" y="31" width="1" height="1" fill="#1C1117" />
<rect x="110" y="31" width="1" height="1" fill="#1C1117" />
<rect x="111" y="31" width="1" height="1" fill="#1C1117" />
<rect x="112" y="31" width="1" height="1" fill="#1C1117" />
<rect x="113" y="31" width="1" height="1" fill="#1C1117" />
<rect x="114" y="31" width="1" height="1" fill="#1C1117" />
<rect x="115" y="31" width="1" height="1" fill="#1C1117" />
<rect x="116" y="31" width="1" height="1" fill="#1C1117" />
</svg>