<?xml version="1.0" encoding="UTF-8" ?>
<svg version="1.1" width="128" height="32" xmlns="http://www.w3.org/2000/svg" shape-rendering="crispEdges">
<rect x="11" y="7" width="1" height="1" fill="#1C1117" />
<rect x="12" y="7" width="1" height="1" fill="#1C1117" />
<rect x="13" y="7" width="1" height="1" fill="#1C1117" />
<rect x="14" y="7" width="1" height="1" fill="#1C1117" />
<rect x="15" y="7" width="1" height="1" fill="#1C1117" />
<rect x="16" y="7" width="1" height="1" fill="#1C1117" />
<rect x="19" y="7" width="1" height="1" fill="#1C1117" />
<rect x="20" y="7" width="1" height="1" fill="#1C1117" />
<rect x="11" y="8" width="1" height="1" fill="#1C1117" />
<rect x="12" y="8" width="1" height="1" fill="#417089" />
<rect x="13" y="8" width="1" height="1" fill="#417089" />
<rect x="14" y="8" width="1" height="1" fill="#417089" />
<rect x="15" y="8" width="1" height="1" fill="#417089" />
<rect x="16" y="8" width="1" height="1" fill="#417089" />
<rect x="17" y="8" width="1" height="1" fill="#1C1117" />
<rect x="18" y="8" width="1" height="1" fill="#1C1117" />
<rect x="19" y="8" width="1" height="1" fill="#FDF7ED" />
<rect x="20" y="8" width="1" height="1" fill="#1C1117" />
<rect x="43" y="8" width="1" height="1" fill="#1C1117" />
<rect x="44" y="8" width="1" height="1" fill="#1C1117" />
<rect x="45" y="8" width="1" height="1" fill="#1C1117" />
<rect x="46" y="8" width="1" height="1" fill="#1C1117" />
<rect x="47" y="8" width="1" height="1" fill="#1C1117" />
<rect x="48" y="8" width="1" height="1" fill="#1C1117" />
<rect x="51" y="8" width="1" height="1" fill="#1C1117" />
<rect x="52" y="8" width="1" height="1" fill="#1C1117" />
<rect x="107" y="8" width="1" height="1" fill="#1C1117" />
<rect x="108" y="8" width="1" height="1" fill="#1C1117" />
<rect x="109" y="8" width="1" height="1" fill="#1C1117" />
<rect x="110" y="8" width="1" height="1" fill="#1C1117" />
<rect x="111" y="8" width="1" height="1" fill="#1C1117" />
<rect x="112" y="8" width="1" height="1" fill="#1C1117" />
<rect x="115" y="8" width="1" height="1" fill="#1C1117" />
<rect x="116" y="8" width="1" height="1" fill="#1C1117" />
<rect x="11" y="9" width="1" height="1" fill="#1C1117" />
<rect x="12" y="9" width="1" height="1" fill="#417089" />
<rect x="13" y="9" width="1" height="1" fill="#72D6CE" />
<rect x="14" y="9" width="1" height="1" fill="#72D6CE" />
<rect x="15" y="9" width="1" height="1" fill="#72D6CE" />
<rect x="16" y="9" width="1" height="1" fill="#72D6CE" />
<rect x="17" y="9" width="1" height="1" fill="#72D6CE" />
<rect x="18" y="9" width="1" height="1" fill="#72D6CE" />
<rect x="19" y="9" width="1" height="1" fill="#FDF7ED" />
<rect x="20" y="9" width="1" height="1" fill="#1C1117" />
<rect x="43" y="9" width="1" height="1" fill="#1C1117" />
<rect x="44" y="9" width="1" height="1" fill="#417089" />
<rect x="45" y="9" width="1" height="1" fill="#417089" />
<rect x="46" y="9" width="1" height="1" fill="#417089" />
<rect x="47" y="9" width="1" height="1" fill="#417089" />
<rect x="48" y="9" width="1" height="1" fill="#417089" />
<rect x="49" y="9" width="1" height="1" fill="#1C1117" />
<rect x="50" y="9" width="1" height="1" fill="#1C1117" />
<rect x="51" y="9" width="1" height="1" fill="#FDF7ED" />
<rect x="52" y="9" width="1" height="1" fill="#1C1117" />
<rect x="75" y="9" width="1" height="1" fill="#1C1117" />
<rect x="76" y="9" width="1" height="1" fill="#1C1117" />
<rect x="77" y="9" width="1" height="1" fill="#1C1117" />
<rect x="78" y="9" width="1" height="1" fill="#1C1117" />
<rect x="79" y="9" width="1" height="1" fill="#1C1117" />
<rect x="80" y="9" width="1" height="1" fill="#1C1117" />
<rect x="83" y="9" width="1" height="1" fill="#1C1117" />
<rect x="84" y="9" width="1" height="1" fill="#1C1117" />
<rect x="107" y="9" width="1" height="1" fill="#1C1117" />
<rect x="108" y="9" width="1" height="1" fill="#417089" />
<rect x="109" y="9" width="1" height="1" fill="#417089" />
<rect x="110" y="9" width="1" height="1" fill="#417089" />
<rect x="111" y="9" width="1" height="1" fill="#417089" />
<rect x="112" y="9" width="1" height="1" fill="#417089" />
<rect x="113" y="9" width="1" height="1" fill="#1C1117" />
<rect x="114" y="9" width="1" height="1" fill="#1C1117" />
<rect x="115" y="9" width="1" height="1" fill="#FDF7ED" />
<rect x="116" y="9" width="1" height="1" fill="#1C1117" />
<rect x="11" y="10" width="1" height="1" fill="#1C1117" />
<rect x="12" y="10" width="1" height="1" fill="#417089" />
<rect x="13" y="10" width="1" height="1" fill="#72D6CE" />
<rect x="14" y="10" width="1" height="1" fill="#72D6CE" />
<rect x="15" y="10" width="1" height="1" fill="#72D6CE" />
<rect x="16" y="10" width="1" height="1" fill="#72D6CE" />
<rect x="17" y="10" width="1" height="1" fill="#72D6CE" />
<rect x="18" y="10" width="1" height="1" fill="#72D6CE" />
<rect x="19" y="10" width="1" height="1" fill="#FDF7ED" />
<rect x="20" y="10" width="1" height="1" fill="#1C1117" />
<rect x="43" y="10" width="1" height="1" fill="#1C1117" />
<rect x="44" y="10" width="1" height="1" fill="#417089" />
<rect x="45" y="10" width="1" height="1" fill="#72D6CE" />
<rect x="46" y="10" width="1" height="1" fill="#72D6CE" />
<rect x="47" y="10" width="1" height="1" fill="#72D6CE" />
<rect x="48" y="10" width="1" height="1" fill="#72D6CE" />
<rect x="49" y="10" width="1" height="1" fill="#72D6CE" />
<rect x="50" y="10" width="1" height="1" fill="#72D6CE" />
<rect x="51" y="10" width="1" height="1" fill="#FDF7ED" />
<rect x="52" y="10" width="1" height="1" fill="#1C1117" />
<rect x="75" y="10" width="1" height="1" fill="#1C1117" />
<rect x="76" y="10" width="1" height="1" fill="#417089" />
<rect x="77" y="10" width="1" height="1" fill="#417089" />
<rect x="78" y="10" width="1" height="1" fill="#417089" />
<rect x="79" y="10" width="1" height="1" fill="#417089" />
<rect x="80" y="10" width="1" height="1" fill="#417089" />
<rect x="81" y="10" width="1" height="1" fill="#1C1117" />
<rect x="82" y="10" width="1" height="1" fill="#1C1117" />
<rect x="83" y="10" width="1" height="1" fill="#FDF7ED" />
<rect x="84" y="10" width="1" height="1" fill="#1C1117" />
<rect x="107" y="10" width="1" height="1" fill="#1C1117" />
<rect x="108" y="10" width="1" height="1" fill="#417089" />
<rect x="109" y="10" width="1" height="1" fill="#72D6CE" />
<rect x="110" y="10" width="1" height="1" fill="#72D6CE" />
<rect x="111" y="10" width="1" height="1" fill="#72D6CE" />
<rect x="112" y="10" width="1" height="1" fill="#72D6CE" />
<rect x="113" y="10" width="1" height="1" fill="#72D6CE" />
<rect x="114" y="10" width="1" height="1" fill="#72D6CE" />
<rect x="115" y="10" width="1" height="1" fill="#FDF7ED" />
<rect x="116" y="10" width="1" height="1" fill="#1C1117" />
<rect x="11" y="11" width="1" height="1" fill="#1C1117" />
<rect x="12" y="11" width="1" height="1" fill="#417089" />
<rect x="13" y="11" width="1" height="1" fill="#72D6CE" />
<rect x="14" y="11" width="1" height="1" fill="#72D6CE" />
<rect x="15" y="11" width="1" height="1" fill="#72D6CE" />
<rect x="16" y="11" width="1" height="1" fill="#72D6CE" />
<rect x="17" y="11" width="1" height="1" fill="#72D6CE" />
<rect x="18" y="11" width="1" height="1" fill="#72D6CE" />
<rect x="19" y="11" width="1" height="1" fill="#FDF7ED" />
<rect x="20" y="11" width="1" height="1" fill="#1C1117" />
<rect x="43" y="11" width="1" height="1" fill="#1C1117" />
<rect x="44" y="11" width="1" height="1" fill="#417089" />
<rect x="45" y="11" width="1" height="1" fill="#72D6CE" />
<rect x="46" y="11" width="1" height="1" fill="#72D6CE" />
<rect x="47" y="11" width="1" height="1" fill="#72D6CE" />
<rect x="48" y="11" width="1" height="1" fill="#72D6CE" />
<rect x="49" y="11" width="1" height="1" fill="#72D6CE" />
<rect x="50" y="11" width="1" height="1" fill="#72D6CE" />
<rect x="51" y="11" width="1" height="1" fill="#FDF7ED" />
<rect x="52" y="11" width="1" height="1" fill="#1C1117" />
<rect x="75" y="11" width="1" height="1" fill="#1C1117" />
<rect x="76" y="11" width="1" height="1" fill="#417089" />
<rect x="77" y="11" width="1" height="1" fill="#72D6CE" />
<rect x="78" y="11" width="1" height="1" fill="#72D6CE" />
<rect x="79" y="11" width="1" height="1" fill="#72D6CE" />
<rect x="80" y="11" width="1" height="1" fill="#72D6CE" />
<rect x="81" y="11" width="1" height="1" fill="#72D6CE" />
<rect x="82" y="11" width="1" height="1" fill="#72D6CE" />
<rect x="83" y="11" width="1" height="1" fill="#FDF7ED" />
<rect x="84" y="11" width="1" height="1" fill="#1C1117" />
<rect x="107" y="11" width="1" height="1" fill="#1C1117" />
<rect x="108" y="11" width="1" height="1" fill="#417089" />
<rect x="109" y="11" width="1" height="1" fill="#72D6CE" />
<rect x="110" y="11" width="1" height="1" fill="#72D6CE" />
<rect x="111" y="11" width="1" height="1" fill="#72D6CE" />
<rect x="112" y="11" width="1" height="1" fill="#72D6CE" />
<rect x="113" y="11" width="1" height="1" fill="#72D6CE" />
<rect x="114" y="11" width="1" height="1" fill="#72D6CE" />
<rect x="115" y="11" width="1" height="1" fill="#FDF7ED" />
<rect x="116" y="11" width="1" height="1" fill="#1C1117" />
<rect x="11" y="12" width="1" height="1" fill="#1C1117" />
<rect x="12" y="12" width="1" height="1" fill="#417089" />
<rect x="13" y="12" width="1" height="1" fill="#72D6CE" />
<rect x="14" y="12" width="1" height="1" fill="#72D6CE" />
<rect x="15" y="12" width="1" height="1" fill="#72D6CE" />
<rect x="16" y="12" width="1" height="1" fill="#72D6CE" />
<rect x="17" y="12" width="1" height="1" fill="#72D6CE" />
<rect x="18" y="12" width="1" height="1" fill="#72D6CE" />
<rect x="19" y="12" width="1" height="1" fill="#FDF7ED" />
<rect x="20" y="12" width="1" height="1" fill="#1C1117" />
<rect x="43" y="12" width="1" height="1" fill="#1C1117" />
<rect x="44" y="12" width="1" height="1" fill="#417089" />
<rect x="45" y="12" width="1" height="1" fill="#72D6CE" />
<rect x="46" y="12" width="1" height="1" fill="#72D6CE" />
<rect x="47" y="12" width="1" height="1" fill="#72D6CE" />
<rect x="48" y="12" width="1" height="1" fill="#72D6CE" />
<rect x="49" y="12" width="1" height="1" fill="#72D6CE" />
<rect x="50" y="12" width="1" height="1" fill="#72D6CE" />
<rect x="51" y="12" width="1" height="1" fill="#FDF7ED" />
<rect x="52" y="12" width="1" height="1" fill="#1C1117" />
<rect x="75" y="12" width="1" height="1" fill="#1C1117" />
<rect x="76" y="12" width="1" height="1" fill="#417089" />
<rect x="77" y="12" width="1" height="1" fill="#72D6CE" />
<rect x="78" y="12" width="1" height="1" fill="#72D6CE" />
<rect x="79" y="12" width="1" height="1" fill="#72D6CE" />
<rect x="80" y="12" width="1" height="1" fill="#72D6CE" />
<rect x="81" y="12" width="1" height="1" fill="#72D6CE" />
<rect x="82" y="12" width="1" height="1" fill="#72D6CE" />
<rect x="83" y="12" width="1" height="1" fill="#FDF7ED" />
<rect x="84" y="12" width="1" height="1" fill="#1C1117" />
<rect x="107" y="12" width="1" height="1" fill="#1C1117" />
<rect x="108" y="12" width="1" height="1" fill="#417089" />
<rect x="109" y="12" width="1" height="1" fill="#72D6CE" />
<rect x="110" y="12" width="1" height="1" fill="#72D6CE" />
<rect x="111" y="12" width="1" height="1" fill="#72D6CE" />
<rect x="112" y="12" width="1" height="1" fill="#72D6CE" />
<rect x="113" y="12" width="1" height="1" fill="#72D6CE" />
<rect x="114" y="12" width="1" height="1" fill="#72D6CE" />
<rect x="115" y="12" width="1" height="1" fill="#FDF7ED" />
<rect x="116" y="12" width="1" height="1" fill="#1C1117" />
<rect x="11" y="13" width="1" height="1" fill="#1C1117" />
<rect x="12" y="13" width="1" height="1" fill="#417089" />
<rect x="13" y="13" width="1" height="1" fill="#72D6CE" />
<rect x="14" y="13" width="1" height="1" fill="#1C1117" />
<rect x="15" y="13" width="1" height="1" fill="#1C1117" />
<rect x="16" y="13" width="1" height="1" fill="#1C1117" />
<rect x="17" y="13" width="1" height="1" fill="#1C1117" />
<rect x="18" y="13" width="1" height="1" fill="#1C1117" />
<rect x="19" y="13" width="1" height="1" fill="#1C1117" />
<rect x="20" y="13" width="1" height="1" fill="#1C1117" />
<rect x="43" y="13" width="1" height="1" fill="#1C1117" />
<rect x="44" y="13" width="1" height="1" fill="#417089" />
<rect x="45" y="13" width="1" height="1" fill="#72D6CE" />
<rect x="46" y="13" width="1" height="1" fill="#72D6CE" />
<rect x="47" y="13" width="1" height="1" fill="#72D6CE" />
<rect x="48" y="13" width="1" height="1" fill="#72D6CE" />
<rect x="49" y="13" width="1" height="1" fill="#72D6CE" />
<rect x="50" y="13" width="1" height="1" fill="#72D6CE" />
<rect x="51" y="13" width="1" height="1" fill="#FDF7ED" />
<rect x="52" y="13" width="1" height="1" fill="#1C1117" />
<rect x="75" y="13" width="1" height="1" fill="#1C1117" />
<rect x="76" y="13" width="1" height="1" fill="#417089" />
<rect x="77" y="13" width="1" height="1" fill="#72D6CE" />
<rect x="78" y="13" width="1" height="1" fill="#72D6CE" />
<rect x="79" y="13" width="1" height="1" fill="#72D6CE" />
<rect x="80" y="13" width="1" height="1" fill="#72D6CE" />
<rect x="81" y="13" width="1" height="1" fill="#72D6CE" />
<rect x="82" y="13" width="1" height="1" fill="#72D6CE" />
<rect x="83" y="13" width="1" height="1" fill="#FDF7ED" />
<rect x="84" y="13" width="1" height="1" fill="#1C1117" />
<rect x="107" y="13" width="1" height="1" fill="#1C1117" />
<rect x="108" y="13" width="1" height="1" fill="#417089" />
<rect x="109" y="13" width="1" height="1" fill="#72D6CE" />
<rect x="110" y="13" width="1" height="1" fill="#72D6CE" />
<rect x="111" y="13" width="1" height="1" fill="#72D6CE" />
<rect x="112" y="13" width="1" height="1" fill="#72D6CE" />
<rect x="113" y="13" width="1" height="1" fill="#72D6CE" />
<rect x="114" y="13" width="1" height="1" fill="#72D6CE" />
<rect x="115" y="13" width="1" height="1" fill="#FDF7ED" />
<rect x="116" y="13" width="1" height="1" fill="#1C1117" />
<rect x="11" y="14" width="1" height="1" fill="#1C1117" />
<rect x="12" y="14" width="1" height="1" fill="#417089" />
<rect x="13" y="14" width="1" height="1" fill="#72D6CE" />
<rect x="14" y="14" width="1" height="1" fill="#72D6CE" />
<rect x="15" y="14" width="1" height="1" fill="#72D6CE" />
<rect x="16" y="14" width="1" height="1" fill="#72D6CE" />
<rect x="17" y="14" width="1" height="1" fill="#1C1117" />
<rect x="18" y="14" width="1" height="1" fill="#1C1117" />
<rect x="19" y="14" width="1" height="1" fill="#FDF7ED" />
<rect x="20" y="14" width="1" height="1" fill="#1C1117" />
<rect x="43" y="14" width="1" height="1" fill="#1C1117" />
<rect x="44" y="14" width="1" height="1" fill="#417089" />
<rect x="45" y="14" width="1" height="1" fill="#72D6CE" />
<rect x="46" y="14" width="1" height="1" fill="#1C1117" />
<rect x="47" y="14" width="1" height="1" fill="#1C1117" />
<rect x="48" y="14" width="1" height="1" fill="#1C1117" />
<rect x="49" y="14" width="1" height="1" fill="#1C1117" />
<rect x="50" y="14" width="1" height="1" fill="#1C1117" />
<rect x="51" y="14" width="1" height="1" fill="#1C1117" />
<rect x="52" y="14" width="1" height="1" fill="#1C1117" />
<rect x="75" y="14" width="1" height="1" fill="#1C1117" />
<rect x="76" y="14" width="1" height="1" fill="#417089" />
<rect x="77" y="14" width="1" height="1" fill="#72D6CE" />
<rect x="78" y="14" width="1" height="1" fill="#72D6CE" />
<rect x="79" y="14" width="1" height="1" fill="#72D6CE" />
<rect x="80" y="14" width="1" height="1" fill="#72D6CE" />
<rect x="81" y="14" width="1" height="1" fill="#72D6CE" />
<rect x="82" y="14" width="1" height="1" fill="#72D6CE" />
<rect x="83" y="14" width="1" height="1" fill="#FDF7ED" />
<rect x="84" y="14" width="1" height="1" fill="#1C1117" />
<rect x="107" y="14" width="1" height="1" fill="#1C1117" />
<rect x="108" y="14" width="1" height="1" fill="#417089" />
<rect x="109" y="14" width="1" height="1" fill="#72D6CE" />
<rect x="110" y="14" width="1" height="1" fill="#1C1117" />
<rect x="111" y="14" width="1" height="1" fill="#1C1117" />
<rect x="112" y="14" width="1" height="1" fill="#1C1117" />
<rect x="113" y="14" width="1" height="1" fill="#1C1117" />
<rect x="114" y="14" width="1" height="1" fill="#1C1117" />
<rect x="115" y="14" width="1" height="1" fill="#1C1117" />
<rect x="116" y="14" width="1" height="1" fill="#1C1117" />
<rect x="10" y="15" width="1" height="1" fill="#1C1117" />
<rect x="11" y="15" width="1" height="1" fill="#1C1117" />
<rect x="12" y="15" width="1" height="1" fill="#417089" />
<rect x="13" y="15" width="1" height="1" fill="#72D6CE" />
<rect x="14" y="15" width="1" height="1" fill="#72D6CE" />
<rect x="15" y="15" width="1" height="1" fill="#72D6CE" />
<rect x="16" y="15" width="1" height="1" fill="#72D6CE" />
<rect x="17" y="15" width="1" height="1" fill="#1C1117" />
<rect x="18" y="15" width="1" height="1" fill="#1C1117" />
<rect x="19" y="15" width="1" height="1" fill="#FDF7ED" />
<rect x="20" y="15" width="1" height="1" fill="#1C1117" />
<rect x="21" y="15" width="1" height="1" fill="#1C1117" />
<rect x="42" y="15" width="1" height="1" fill="#1C1117" />
<rect x="43" y="15" width="1" height="1" fill="#1C1117" />
<rect x="44" y="15" width="1" height="1" fill="#417089" />
<rect x="45" y="15" width="1" height="1" fill="#72D6CE" />
<rect x="46" y="15" width="1" height="1" fill="#72D6CE" />
<rect x="47" y="15" width="1" height="1" fill="#72D6CE" />
<rect x="48" y="15" width="1" height="1" fill="#72D6CE" />
<rect x="49" y="15" width="1" height="1" fill="#1C1117" />
<rect x="50" y="15" width="1" height="1" fill="#1C1117" />
<rect x="51" y="15" width="1" height="1" fill="#FDF7ED" />
<rect x="52" y="15" width="1" height="1" fill="#1C1117" />
<rect x="53" y="15" width="1" height="1" fill="#1C1117" />
<rect x="75" y="15" width="1" height="1" fill="#1C1117" />
<rect x="76" y="15" width="1" height="1" fill="#417089" />
<rect x="77" y="15" width="1" height="1" fill="#72D6CE" />
<rect x="78" y="15" width="1" height="1" fill="#1C1117" />
<rect x="79" y="15" width="1" height="1" fill="#1C1117" />
<rect x="80" y="15" width="1" height="1" fill="#1C1117" />
<rect x="81" y="15" width="1" height="1" fill="#1C1117" />
<rect x="82" y="15" width="1" height="1" fill="#1C1117" />
<rect x="83" y="15" width="1" height="1" fill="#1C1117" />
<rect x="84" y="15" width="1" height="1" fill="#1C1117" />
<rect x="106" y="15" width="1" height="1" fill="#1C1117" />
<rect x="107" y="15" width="1" height="1" fill="#1C1117" />
<rect x="108" y="15" width="1" height="1" fill="#417089" />
<rect x="109" y="15" width="1" height="1" fill="#72D6CE" />
<rect x="110" y="15" width="1" height="1" fill="#72D6CE" />
<rect x="111" y="15" width="1" height="1" fill="#72D6CE" />
<rect x="112" y="15" width="1" height="1" fill="#72D6CE" />
<rect x="113" y="15" width="1" height="1" fill="#1C1117" />
<rect x="114" y="15" width="1" height="1" fill="#1C1117" />
<rect x="115" y="15" width="1" height="1" fill="#FDF7ED" />
<rect x="116" y="15" width="1" height="1" fill="#1C1117" />
<rect x="117" y="15" width="1" height="1" fill="#1C1117" />
<rect x="10" y="16" width="1" height="1" fill="#1C1117" />
<rect x="11" y="16" width="1" height="1" fill="#9F294E" />
<rect x="12" y="16" width="1" height="1" fill="#1C1117" />
<rect x="13" y="16" width="1" height="1" fill="#1C1117" />
<rect x="14" y="16" width="1" height="1" fill="#417089" />
<rect x="15" y="16" width="1" height="1" fill="#417089" />
<rect x="16" y="16" width="1" height="1" fill="#417089" />
<rect x="17" y="16" width="1" height="1" fill="#1C1117" />
<rect x="18" y="16" width="1" height="1" fill="#1C1117" />
<rect x="19" y="16" width="1" height="1" fill="#72D6CE" />
<rect x="20" y="16" width="1" height="1" fill="#1C1117" />
<rect x="21" y="16" width="1" height="1" fill="#1C1117" />
<rect x="42" y="16" width="1" height="1" fill="#1C1117" />
<rect x="43" y="16" width="1" height="1" fill="#1C1117" />
<rect x="44" y="16" width="1" height="1" fill="#417089" />
<rect x="45" y="16" width="1" height="1" fill="#72D6CE" />
<rect x="46" y="16" width="1" height="1" fill="#72D6CE" />
<rect x="47" y="16" width="1" height="1" fill="#72D6CE" />
<rect x="48" y="16" width="1" height="1" fill="#72D6CE" />
<rect x="49" y="16" width="1" height="1" fill="#1C1117" />
<rect x="50" y="16" width="1" height="1" fill="#1C1117" />
<rect x="51" y="16" width="1" height="1" fill="#FDF7ED" />
<rect x="52" y="16" width="1" height="1" fill="#1C1117" />
<rect x="53" y="16" width="1" height="1" fill="#1C1117" />
<rect x="74" y="16" width="1" height="1" fill="#1C1117" />
<rect x="75" y="16" width="1" height="1" fill="#1C1117" />
<rect x="76" y="16" width="1" height="1" fill="#417089" />
<rect x="77" y="16" width="1" height="1" fill="#72D6CE" />
<rect x="78" y="16" width="1" height="1" fill="#72D6CE" />
<rect x="79" y="16" width="1" height="1" fill="#72D6CE" />
<rect x="80" y="16" width="1" height="1" fill="#72D6CE" />
<rect x="81" y="16" width="1" height="1" fill="#1C1117" />
<rect x="82" y="16" width="1" height="1" fill="#1C1117" />
<rect x="83" y="16" width="1" height="1" fill="#FDF7ED" />
<rect x="84" y="16" width="1" height="1" fill="#1C1117" />
<rect x="85" y="16" width="1" height="1" fill="#1C1117" />
<rect x="106" y="16" width="1" height="1" fill="#1C1117" />
<rect x="107" y="16" width="1" height="1" fill="#1C1117" />
<rect x="108" y="16" width="1" height="1" fill="#417089" />
<rect x="109" y="16" width="1" height="1" fill="#72D6CE" />
<rect x="110" y="16" width="1" height="1" fill="#72D6CE" />
<rect x="111" y="16" width="1" height="1" fill="#72D6CE" />
<rect x="112" y="16" width="1" height="1" fill="#72D6CE" />
<rect x="113" y="16" width="1" height="1" fill="#1C1117" />
<rect x="114" y="16" width="1" height="1" fill="#1C1117" />
<rect x="115" y="16" width="1" height="1" fill="#FDF7ED" />
<rect x="116" y="16" width="1" height="1" fill="#1C1117" />
<rect x="117" y="16" width="1" height="1" fill="#1C1117" />
<rect x="10" y="17" width="1" height="1" fill="#1C1117" />
<rect x="11" y="17" width="1" height="1" fill="#9F294E" />
<rect x="12" y="17" width="1" height="1" fill="#9F294E" />
<rect x="13" y="17" width="1" height="1" fill="#9F294E" />
<rect x="14" y="17" width="1" height="1" fill="#1C1117" />
<rect x="15" y="17" width="1" height="1" fill="#1C1117" />
<rect x="16" y="17" width="1" height="1" fill="#1C1117" />
<rect x="17" y="17" width="1" height="1" fill="#1C1117" />
<rect x="18" y="17" width="1" height="1" fill="#1C1117" />
<rect x="19" y="17" width="1" height="1" fill="#1C1117" />
<rect x="20" y="17" width="1" height="1" fill="#DA4E38" />
<rect x="21" y="17" width="1" height="1" fill="#1C1117" />
<rect x="42" y="17" width="1" height="1" fill="#1C1117" />
<rect x="43" y="17" width="1" height="1" fill="#9F294E" />
<rect x="44" y="17" width="1" height="1" fill="#1C1117" />
<rect x="45" y="17" width="1" height="1" fill="#1C1117" />
<rect x="46" y="17" width="1" height="1" fill="#417089" />
<rect x="47" y="17" width="1" height="1" fill="#417089" />
<rect x="48" y="17" width="1" height="1" fill="#417089" />
<rect x="49" y="17" width="1" height="1" fill="#1C1117" />
<rect x="50" y="17" width="1" height="1" fill="#1C1117" />
<rect x="51" y="17" width="1" height="1" fill="#72D6CE" />
<rect x="52" y="17" width="1" height="1" fill="#1C1117" />
<rect x="53" y="17" width="1" height="1" fill="#1C1117" />
<rect x="74" y="17" width="1" height="1" fill="#1C1117" />
<rect x="75" y="17" width="1" height="1" fill="#1C1117" />
<rect x="76" y="17" width="1" height="1" fill="#417089" />
<rect x="77" y="17" width="1" height="1" fill="#72D6CE" />
<rect x="78" y="17" width="1" height="1" fill="#72D6CE" />
<rect x="79" y="17" width="1" height="1" fill="#72D6CE" />
<rect x="80" y="17" width="1" height="1" fill="#72D6CE" />
<rect x="81" y="17" width="1" height="1" fill="#1C1117" />
<rect x="82" y="17" width="1" height="1" fill="#1C1117" />
<rect x="83" y="17" width="1" height="1" fill="#FDF7ED" />
<rect x="84" y="17" width="1" height="1" fill="#1C1117" />
<rect x="85" y="17" width="1" height="1" fill="#1C1117" />
<rect x="106" y="17" width="1" height="1" fill="#1C1117" />
<rect x="107" y="17" width="1" height="1" fill="#9F294E" />
<rect x="108" y="17" width="1" height="1" fill="#1C1117" />
<rect x="109" y="17" width="1" height="1" fill="#1C1117" />
<rect x="110" y="17" width="1" height="1" fill="#417089" />
<rect x="111" y="17" width="1" height="1" fill="#417089" />
<rect x="112" y="17" width="1" height="1" fill="#417089" />
<rect x="113" y="17" width="1" height="1" fill="#1C1117" />
<rect x="114" y="17" width="1" height="1" fill="#1C1117" />
<rect x="115" y="17" width="1" height="1" fill="#72D6CE" />
<rect x="116" y="17" width="1" height="1" fill="#1C1117" />
<rect x="117" y="17" width="1" height="1" fill="#1C1117" />
<rect x="11" y="18" width="1" height="1" fill="#1C1117" />
<rect x="12" y="18" width="1" height="1" fill="#9F294E" />
<rect x="13" y="18" width="1" height="1" fill="#DA4E38" />
<rect x="14" y="18" width="1" height="1" fill="#DA4E38" />
<rect x="15" y="18" width="1" height="1" fill="#DA4E38" />
<rect x="16" y="18" width="1" height="1" fill="#9F294E" />
<rect x="17" y="18" width="1" height="1" fill="#FACB3E" />
<rect x="18" y="18" width="1" height="1" fill="#9F294E" />
<rect x="19" y="18" width="1" height="1" fill="#DA4E38" />
<rect x="20" y="18" width="1" height="1" fill="#1C1117" />
<rect x="42" y="18" width="1" height="1" fill="#1C1117" />
<rect x="43" y="18" width="1" height="1" fill="#9F294E" />
<rect x="44" y="18" width="1" height="1" fill="#9F294E" />
<rect x="45" y="18" width="1" height="1" fill="#9F294E" />
<rect x="46" y="18" width="1" height="1" fill="#1C1117" />
<rect x="47" y="18" width="1" height="1" fill="#1C1117" />
<rect x="48" y="18" width="1" height="1" fill="#1C1117" />
<rect x="49" y="18" width="1" height="1" fill="#1C1117" />
<rect x="50" y="18" width="1" height="1" fill="#1C1117" />
<rect x="51" y="18" width="1" height="1" fill="#1C1117" />
<rect x="52" y="18" width="1" height="1" fill="#DA4E38" />
<rect x="53" y="18" width="1" height="1" fill="#1C1117" />
<rect x="74" y="18" width="1" height="1" fill="#1C1117" />
<rect x="75" y="18" width="1" height="1" fill="#9F294E" />
<rect x="76" y="18" width="1" height="1" fill="#1C1117" />
<rect x="77" y="18" width="1" height="1" fill="#1C1117" />
<rect x="78" y="18" width="1" height="1" fill="#417089" />
<rect x="79" y="18" width="1" height="1" fill="#417089" />
<rect x="80" y="18" width="1" height="1" fill="#417089" />
<rect x="81" y="18" width="1" height="1" fill="#1C1117" />
<rect x="82" y="18" width="1" height="1" fill="#1C1117" />
<rect x="83" y="18" width="1" height="1" fill="#72D6CE" />
<rect x="84" y="18" width="1" height="1" fill="#1C1117" />
<rect x="85" y="18" width="1" height="1" fill="#1C1117" />
<rect x="106" y="18" width="1" height="1" fill="#1C1117" />
<rect x="107" y="18" width="1" height="1" fill="#9F294E" />
<rect x="108" y="18" width="1" height="1" fill="#9F294E" />
<rect x="109" y="18" width="1" height="1" fill="#9F294E" />
<rect x="110" y="18" width="1" height="1" fill="#1C1117" />
<rect x="111" y="18" width="1" height="1" fill="#1C1117" />
<rect x="112" y="18" width="1" height="1" fill="#1C1117" />
<rect x="113" y="18" width="1" height="1" fill="#1C1117" />
<rect x="114" y="18" width="1" height="1" fill="#1C1117" />
<rect x="115" y="18" width="1" height="1" fill="#1C1117" />
<rect x="116" y="18" width="1" height="1" fill="#DA4E38" />
<rect x="117" y="18" width="1" height="1" fill="#1C1117" />
<rect x="11" y="19" width="1" height="1" fill="#1C1117" />
<rect x="12" y="19" width="1" height="1" fill="#9F294E" />
<rect x="13" y="19" width="1" height="1" fill="#DA4E38" />
<rect x="14" y="19" width="1" height="1" fill="#DA4E38" />
<rect x="15" y="19" width="1" height="1" fill="#DA4E38" />
<rect x="16" y="19" width="1" height="1" fill="#9F294E" />
<rect x="17" y="19" width="1" height="1" fill="#417089" />
<rect x="18" y="19" width="1" height="1" fill="#9F294E" />
<rect x="19" y="19" width="1" height="1" fill="#DA4E38" />
<rect x="20" y="19" width="1" height="1" fill="#1C1117" />
<rect x="43" y="19" width="1" height="1" fill="#1C1117" />
<rect x="44" y="19" width="1" height="1" fill="#9F294E" />
<rect x="45" y="19" width="1" height="1" fill="#DA4E38" />
<rect x="46" y="19" width="1" height="1" fill="#DA4E38" />
<rect x="47" y="19" width="1" height="1" fill="#DA4E38" />
<rect x="48" y="19" width="1" height="1" fill="#9F294E" />
<rect x="49" y="19" width="1" height="1" fill="#FACB3E" />
<rect x="50" y="19" width="1" height="1" fill="#9F294E" />
<rect x="51" y="19" width="1" height="1" fill="#DA4E38" />
<rect x="52" y="19" width="1" height="1" fill="#1C1117" />
<rect x="74" y="19" width="1" height="1" fill="#1C1117" />
<rect x="75" y="19" width="1" height="1" fill="#9F294E" />
<rect x="76" y="19" width="1" height="1" fill="#9F294E" />
<rect x="77" y="19" width="1" height="1" fill="#9F294E" />
<rect x="78" y="19" width="1" height="1" fill="#1C1117" />
<rect x="79" y="19" width="1" height="1" fill="#1C1117" />
<rect x="80" y="19" width="1" height="1" fill="#1C1117" />
<rect x="81" y="19" width="1" height="1" fill="#1C1117" />
<rect x="82" y="19" width="1" height="1" fill="#1C1117" />
<rect x="83" y="19" width="1" height="1" fill="#1C1117" />
<rect x="84" y="19" width="1" height="1" fill="#DA4E38" />
<rect x="85" y="19" width="1" height="1" fill="#1C1117" />
<rect x="107" y="19" width="1" height="1" fill="#1C1117" />
<rect x="108" y="19" width="1" height="1" fill="#9F294E" />
<rect x="109" y="19" width="1" height="1" fill="#DA4E38" />
<rect x="110" y="19" width="1" height="1" fill="#DA4E38" />
<rect x="111" y="19" width="1" height="1" fill="#DA4E38" />
<rect x="112" y="19" width="1" height="1" fill="#9F294E" />
<rect x="113" y="19" width="1" height="1" fill="#FACB3E" />
<rect x="114" y="19" width="1" height="1" fill="#9F294E" />
<rect x="115" y="19" width="1" height="1" fill="#DA4E38" />
<rect x="116" y="19" width="1" height="1" fill="#1C1117" />
<rect x="11" y="20" width="1" height="1" fill="#1C1117" />
<rect x="12" y="20" width="1" height="1" fill="#9F294E" />
<rect x="13" y="20" width="1" height="1" fill="#DA4E38" />
<rect x="14" y="20" width="1" height="1" fill="#DA4E38" />
<rect x="15" y="20" width="1" height="1" fill="#DA4E38" />
<rect x="16" y="20" width="1" height="1" fill="#9F294E" />
<rect x="17" y="20" width="1" height="1" fill="#72D6CE" />
<rect x="18" y="20" width="1" height="1" fill="#72D6CE" />
<rect x="19" y="20" width="1" height="1" fill="#9F294E" />
<rect x="20" y="20" width="1" height="1" fill="#1C1117" />
<rect x="43" y="20" width="1" height="1" fill="#1C1117" />
<rect x="44" y="20" width="1" height="1" fill="#9F294E" />
<rect x="45" y="20" width="1" height="1" fill="#DA4E38" />
<rect x="46" y="20" width="1" height="1" fill="#DA4E38" />
<rect x="47" y="20" width="1" height="1" fill="#DA4E38" />
<rect x="48" y="20" width="1" height="1" fill="#9F294E" />
<rect x="49" y="20" width="1" height="1" fill="#417089" />
<rect x="50" y="20" width="1" height="1" fill="#9F294E" />
<rect x="51" y="20" width="1" height="1" fill="#DA4E38" />
<rect x="52" y="20" width="1" height="1" fill="#1C1117" />
<rect x="75" y="20" width="1" height="1" fill="#1C1117" />
<rect x="76" y="20" width="1" height="1" fill="#9F294E" />
<rect x="77" y="20" width="1" height="1" fill="#DA4E38" />
<rect x="78" y="20" width="1" height="1" fill="#DA4E38" />
<rect x="79" y="20" width="1" height="1" fill="#DA4E38" />
<rect x="80" y="20" width="1" height="1" fill="#9F294E" />
<rect x="81" y="20" width="1" height="1" fill="#FACB3E" />
<rect x="82" y="20" width="1" height="1" fill="#9F294E" />
<rect x="83" y="20" width="1" height="1" fill="#DA4E38" />
<rect x="84" y="20" width="1" height="1" fill="#1C1117" />
<rect x="107" y="20" width="1" height="1" fill="#1C1117" />
<rect x="108" y="20" width="1" height="1" fill="#9F294E" />
<rect x="109" y="20" width="1" height="1" fill="#DA4E38" />
<rect x="110" y="20" width="1" height="1" fill="#DA4E38" />
<rect x="111" y="20" width="1" height="1" fill="#DA4E38" />
<rect x="112" y="20" width="1" height="1" fill="#9F294E" />
<rect x="113" y="20" width="1" height="1" fill="#417089" />
<rect x="114" y="20" width="1" height="1" fill="#9F294E" />
<rect x="115" y="20" width="1" height="1" fill="#DA4E38" />
<rect x="116" y="20" width="1" height="1" fill="#1C1117" />
<rect x="11" y="21" width="1" height="1" fill="#1C1117" />
<rect x="12" y="21" width="1" height="1" fill="#9F294E" />
<rect x="13" y="21" width="1" height="1" fill="#DA4E38" />
<rect x="14" y="21" width="1" height="1" fill="#DA4E38" />
<rect x="15" y="21" width="1" height="1" fill="#9F294E" />
<rect x="16" y="21" width="1" height="1" fill="#72D6CE" />
<rect x="17" y="21" width="1" height="1" fill="#72D6CE" />
<rect x="18" y="21" width="1" height="1" fill="#72D6CE" />
<rect x="19" y="21" width="1" height="1" fill="#FDF7ED" />
<rect x="20" y="21" width="1" height="1" fill="#1C1117" />
<rect x="43" y="21" width="1" height="1" fill="#1C1117" />
<rect x="44" y="21" width="1" height="1" fill="#9F294E" />
<rect x="45" y="21" width="1" height="1" fill="#DA4E38" />
<rect x="46" y="21" width="1" height="1" fill="#DA4E38" />
<rect x="47" y="21" width="1" height="1" fill="#DA4E38" />
<rect x="48" y="21" width="1" height="1" fill="#9F294E" />
<rect x="49" y="21" width="1" height="1" fill="#72D6CE" />
<rect x="50" y="21" width="1" height="1" fill="#72D6CE" />
<rect x="51" y="21" width="1" height="1" fill="#9F294E" />
<rect x="52" y="21" width="1" height="1" fill="#1C1117" />
<rect x="75" y="21" width="1" height="1" fill="#1C1117" />
<rect x="76" y="21" width="1" height="1" fill="#9F294E" />
<rect x="77" y="21" width="1" height="1" fill="#DA4E38" />
<rect x="78" y="21" width="1" height="1" fill="#DA4E38" />
<rect x="79" y="21" width="1" height="1" fill="#DA4E38" />
<rect x="80" y="21" width="1" height="1" fill="#9F294E" />
<rect x="81" y="21" width="1" height="1" fill="#417089" />
<rect x="82" y="21" width="1" height="1" fill="#9F294E" />
<rect x="83" y="21" width="1" height="1" fill="#DA4E38" />
<rect x="84" y="21" width="1" height="1" fill="#1C1117" />
<rect x="107" y="21" width="1" height="1" fill="#1C1117" />
<rect x="108" y="21" width="1" height="1" fill="#9F294E" />
<rect x="109" y="21" width="1" height="1" fill="#DA4E38" />
<rect x="110" y="21" width="1" height="1" fill="#DA4E38" />
<rect x="111" y="21" width="1" height="1" fill="#DA4E38" />
<rect x="112" y="21" width="1" height="1" fill="#9F294E" />
<rect x="113" y="21" width="1" height="1" fill="#72D6CE" />
<rect x="114" y="21" width="1" height="1" fill="#72D6CE" />
<rect x="115" y="21" width="1" height="1" fill="#9F294E" />
<rect x="116" y="21" width="1" height="1" fill="#1C1117" />
<rect x="10" y="22" width="1" height="1" fill="#1C1117" />
<rect x="11" y="22" width="1" height="1" fill="#9F294E" />
<rect x="12" y="22" width="1" height="1" fill="#DA4E38" />
<rect x="13" y="22" width="1" height="1" fill="#DA4E38" />
<rect x="14" y="22" width="1" height="1" fill="#DA4E38" />
<rect x="15" y="22" width="1" height="1" fill="#9F294E" />
<rect x="16" y="22" width="1" height="1" fill="#72D6CE" />
<rect x="17" y="22" width="1" height="1" fill="#72D6CE" />
<rect x="18" y="22" width="1" height="1" fill="#72D6CE" />
<rect x="19" y="22" width="1" height="1" fill="#FDF7ED" />
<rect x="20" y="22" width="1" height="1" fill="#1C1117" />
<rect x="43" y="22" width="1" height="1" fill="#1C1117" />
<rect x="44" y="22" width="1" height="1" fill="#9F294E" />
<rect x="45" y="22" width="1" height="1" fill="#DA4E38" />
<rect x="46" y="22" width="1" height="1" fill="#DA4E38" />
<rect x="47" y="22" width="1" height="1" fill="#9F294E" />
<rect x="48" y="22" width="1" height="1" fill="#72D6CE" />
<rect x="49" y="22" width="1" height="1" fill="#72D6CE" />
<rect x="50" y="22" width="1" height="1" fill="#72D6CE" />
<rect x="51" y="22" width="1" height="1" fill="#FDF7ED" />
<rect x="52" y="22" width="1" height="1" fill="#1C1117" />
<rect x="75" y="22" width="1" height="1" fill="#1C1117" />
<rect x="76" y="22" width="1" height="1" fill="#9F294E" />
<rect x="77" y="22" width="1" height="1" fill="#DA4E38" />
<rect x="78" y="22" width="1" height="1" fill="#DA4E38" />
<rect x="79" y="22" width="1" height="1" fill="#DA4E38" />
<rect x="80" y="22" width="1" height="1" fill="#9F294E" />
<rect x="81" y="22" width="1" height="1" fill="#72D6CE" />
<rect x="82" y="22" width="1" height="1" fill="#72D6CE" />
<rect x="83" y="22" width="1" height="1" fill="#9F294E" />
<rect x="84" y="22" width="1" height="1" fill="#1C1117" />
<rect x="107" y="22" width="1" height="1" fill="#1C1117" />
<rect x="108" y="22" width="1" height="1" fill="#9F294E" />
<rect x="109" y="22" width="1" height="1" fill="#DA4E38" />
<rect x="110" y="22" width="1" height="1" fill="#DA4E38" />
<rect x="111" y="22" width="1" height="1" fill="#9F294E" />
<rect x="112" y="22" width="1" height="1" fill="#72D6CE" />
<rect x="113" y="22" width="1" height="1" fill="#72D6CE" />
<rect x="114" y="22" width="1" height="1" fill="#72D6CE" />
<rect x="115" y="22" width="1" height="1" fill="#FDF7ED" />
<rect x="116" y="22" width="1" height="1" fill="#1C1117" />
<rect x="10" y="23" width="1" height="1" fill="#1C1117" />
<rect x="11" y="23" width="1" height="1" fill="#9F294E" />
<rect x="12" y="23" width="1" height="1" fill="#DA4E38" />
<rect x="13" y="23" width="1" height="1" fill="#DA4E38" />
<rect x="14" y="23" width="1" height="1" fill="#DA4E38" />
<rect x="15" y="23" width="1" height="1" fill="#9F294E" />
<rect x="16" y="23" width="1" height="1" fill="#417089" />
<rect x="17" y="23" width="1" height="1" fill="#417089" />
<rect x="18" y="23" width="1" height="1" fill="#417089" />
<rect x="19" y="23" width="1" height="1" fill="#72D6CE" />
<rect x="20" y="23" width="1" height="1" fill="#1C1117" />
<rect x="42" y="23" width="1" height="1" fill="#1C1117" />
<rect x="43" y="23" width="1" height="1" fill="#9F294E" />
<rect x="44" y="23" width="1" height="1" fill="#DA4E38" />
<rect x="45" y="23" width="1" height="1" fill="#DA4E38" />
<rect x="46" y="23" width="1" height="1" fill="#DA4E38" />
<rect x="47" y="23" width="1" height="1" fill="#9F294E" />
<rect x="48" y="23" width="1" height="1" fill="#72D6CE" />
<rect x="49" y="23" width="1" height="1" fill="#72D6CE" />
<rect x="50" y="23" width="1" height="1" fill="#72D6CE" />
<rect x="51" y="23" width="1" height="1" fill="#FDF7ED" />
<rect x="52" y="23" width="1" height="1" fill="#1C1117" />
<rect x="75" y="23" width="1" height="1" fill="#1C1117" />
<rect x="76" y="23" width="1" height="1" fill="#9F294E" />
<rect x="77" y="23" width="1" height="1" fill="#DA4E38" />
<rect x="78" y="23" width="1" height="1" fill="#DA4E38" />
<rect x="79" y="23" width="1" height="1" fill="#9F294E" />
<rect x="80" y="23" width="1" height="1" fill="#72D6CE" />
<rect x="81" y="23" width="1" height="1" fill="#72D6CE" />
<rect x="82" y="23" width="1" height="1" fill="#72D6CE" />
<rect x="83" y="23" width="1" height="1" fill="#FDF7ED" />
<rect x="84" y="23" width="1" height="1" fill="#1C1117" />
<rect x="106" y="23" width="1" height="1" fill="#1C1117" />
<rect x="107" y="23" width="1" height="1" fill="#9F294E" />
<rect x="108" y="23" width="1" height="1" fill="#DA4E38" />
<rect x="109" y="23" width="1" height="1" fill="#DA4E38" />
<rect x="110" y="23" width="1" height="1" fill="#DA4E38" />
<rect x="111" y="23" width="1" height="1" fill="#9F294E" />
<rect x="112" y="23" width="1" height="1" fill="#72D6CE" />
<rect x="113" y="23" width="1" height="1" fill="#72D6CE" />
<rect x="114" y="23" width="1" height="1" fill="#72D6CE" />
<rect x="115" y="23" width="1" height="1" fill="#FDF7ED" />
<rect x="116" y="23" width="1" height="1" fill="#1C1117" />
<rect x="10" y="24" width="1" height="1" fill="#1C1117" />
<rect x="11" y="24" width="1" height="1" fill="#9F294E" />
<rect x="12" y="24" width="1" height="1" fill="#DA4E38" />
<rect x="13" y="24" width="1" height="1" fill="#DA4E38" />
<rect x="14" y="24" width="1" height="1" fill="#9F294E" />
<rect x="15" y="24" width="1" height="1" fill="#1C1117" />
<rect x="16" y="24" width="1" height="1" fill="#1C1117" />
<rect x="17" y="24" width="1" height="1" fill="#1C1117" />
<rect x="18" y="24" width="1" height="1" fill="#417089" />
<rect x="19" y="24" width="1" height="1" fill="#1C1117" />
<rect x="20" y="24" width="1" height="1" fill="#1C1117" />
<rect x="42" y="24" width="1" height="1" fill="#1C1117" />
<rect x="43" y="24" width="1" height="1" fill="#9F294E" />
<rect x="44" y="24" width="1" height="1" fill="#DA4E38" />
<rect x="45" y="24" width="1" height="1" fill="#DA4E38" />
<rect x="46" y="24" width="1" height="1" fill="#9F294E" />
<rect x="47" y="24" width="1" height="1" fill="#72D6CE" />
<rect x="48" y="24" width="1" height="1" fill="#72D6CE" />
<rect x="49" y="24" width="1" height="1" fill="#72D6CE" />
<rect x="50" y="24" width="1" height="1" fill="#72D6CE" />
<rect x="51" y="24" width="1" height="1" fill="#FDF7ED" />
<rect x="52" y="24" width="1" height="1" fill="#1C1117" />
<rect x="74" y="24" width="1" height="1" fill="#1C1117" />
<rect x="75" y="24" width="1" height="1" fill="#1C1117" />
<rect x="76" y="24" width="1" height="1" fill="#9F294E" />
<rect x="77" y="24" width="1" height="1" fill="#DA4E38" />
<rect x="78" y="24" width="1" height="1" fill="#DA4E38" />
<rect x="79" y="24" width="1" height="1" fill="#9F294E" />
<rect x="80" y="24" width="1" height="1" fill="#72D6CE" />
<rect x="81" y="24" width="1" height="1" fill="#72D6CE" />
<rect x="82" y="24" width="1" height="1" fill="#72D6CE" />
<rect x="83" y="24" width="1" height="1" fill="#FDF7ED" />
<rect x="84" y="24" width="1" height="1" fill="#1C1117" />
<rect x="106" y="24" width="1" height="1" fill="#1C1117" />
<rect x="107" y="24" width="1" height="1" fill="#9F294E" />
<rect x="108" y="24" width="1" height="1" fill="#DA4E38" />
<rect x="109" y="24" width="1" height="1" fill="#DA4E38" />
<rect x="110" y="24" width="1" height="1" fill="#9F294E" />
<rect x="111" y="24" width="1" height="1" fill="#72D6CE" />
<rect x="112" y="24" width="1" height="1" fill="#72D6CE" />
<rect x="113" y="24" width="1" height="1" fill="#72D6CE" />
<rect x="114" y="24" width="1" height="1" fill="#72D6CE" />
<rect x="115" y="24" width="1" height="1" fill="#FDF7ED" />
<rect x="116" y="24" width="1" height="1" fill="#1C1117" />
<rect x="10" y="25" width="1" height="1" fill="#1C1117" />
<rect x="11" y="25" width="1" height="1" fill="#9F294E" />
<rect x="12" y="25" width="1" height="1" fill="#9F294E" />
<rect x="13" y="25" width="1" height="1" fill="#DA4E38" />
<rect x="14" y="25" width="1" height="1" fill="#9F294E" />
<rect x="15" y="25" width="1" height="1" fill="#1C1117" />
<rect x="16" y="25" width="1" height="1" fill="#9F294E" />
<rect x="17" y="25" width="1" height="1" fill="#1C1117" />
<rect x="18" y="25" width="1" height="1" fill="#1C1117" />
<rect x="19" y="25" width="1" height="1" fill="#1C1117" />
<rect x="42" y="25" width="1" height="1" fill="#1C1117" />
<rect x="43" y="25" width="1" height="1" fill="#9F294E" />
<rect x="44" y="25" width="1" height="1" fill="#DA4E38" />
<rect x="45" y="25" width="1" height="1" fill="#DA4E38" />
<rect x="46" y="25" width="1" height="1" fill="#9F294E" />
<rect x="47" y="25" width="1" height="1" fill="#1C1117" />
<rect x="48" y="25" width="1" height="1" fill="#1C1117" />
<rect x="49" y="25" width="1" height="1" fill="#1C1117" />
<rect x="50" y="25" width="1" height="1" fill="#417089" />
<rect x="51" y="25" width="1" height="1" fill="#417089" />
<rect x="52" y="25" width="1" height="1" fill="#1C1117" />
<rect x="73" y="25" width="1" height="1" fill="#1C1117" />
<rect x="74" y="25" width="1" height="1" fill="#9F294E" />
<rect x="75" y="25" width="1" height="1" fill="#9F294E" />
<rect x="76" y="25" width="1" height="1" fill="#DA4E38" />
<rect x="77" y="25" width="1" height="1" fill="#DA4E38" />
<rect x="78" y="25" width="1" height="1" fill="#DA4E38" />
<rect x="79" y="25" width="1" height="1" fill="#9F294E" />
<rect x="80" y="25" width="1" height="1" fill="#72D6CE" />
<rect x="81" y="25" width="1" height="1" fill="#72D6CE" />
<rect x="82" y="25" width="1" height="1" fill="#72D6CE" />
<rect x="83" y="25" width="1" height="1" fill="#417089" />
<rect x="84" y="25" width="1" height="1" fill="#417089" />
<rect x="85" y="25" width="1" height="1" fill="#1C1117" />
<rect x="106" y="25" width="1" height="1" fill="#1C1117" />
<rect x="107" y="25" width="1" height="1" fill="#9F294E" />
<rect x="108" y="25" width="1" height="1" fill="#DA4E38" />
<rect x="109" y="25" width="1" height="1" fill="#DA4E38" />
<rect x="110" y="25" width="1" height="1" fill="#9F294E" />
<rect x="111" y="25" width="1" height="1" fill="#1C1117" />
<rect x="112" y="25" width="1" height="1" fill="#1C1117" />
<rect x="113" y="25" width="1" height="1" fill="#1C1117" />
<rect x="114" y="25" width="1" height="1" fill="#417089" />
<rect x="115" y="25" width="1" height="1" fill="#417089" />
<rect x="116" y="25" width="1" height="1" fill="#1C1117" />
<rect x="10" y="26" width="1" height="1" fill="#1C1117" />
<rect x="11" y="26" width="1" height="1" fill="#1C1117" />
<rect x="12" y="26" width="1" height="1" fill="#1C1117" />
<rect x="13" y="26" width="1" height="1" fill="#1C1117" />
<rect x="14" y="26" width="1" height="1" fill="#1C1117" />
<rect x="15" y="26" width="1" height="1" fill="#1C1117" />
<rect x="16" y="26" width="1" height="1" fill="#1C1117" />
<rect x="17" y="26" width="1" height="1" fill="#1C1117" />
<rect x="18" y="26" width="1" height="1" fill="#1C1117" />
<rect x="42" y="26" width="1" height="1" fill="#1C1117" />
<rect x="43" y="26" width="1" height="1" fill="#1C1117" />
<rect x="44" y="26" width="1" height="1" fill="#1C1117" />
<rect x="45" y="26" width="1" height="1" fill="#1C1117" />
<rect x="46" y="26" width="1" height="1" fill="#1C1117" />
<rect x="47" y="26" width="1" height="1" fill="#9F294E" />
<rect x="48" y="26" width="1" height="1" fill="#9F294E" />
<rect x="49" y="26" width="1" height="1" fill="#1C1117" />
<rect x="50" y="26" width="1" height="1" fill="#1C1117" />
<rect x="51" y="26" width="1" height="1" fill="#1C1117" />
<rect x="73" y="26" width="1" height="1" fill="#1C1117" />
<rect x="74" y="26" width="1" height="1" fill="#1C1117" />
<rect x="75" y="26" width="1" height="1" fill="#1C1117" />
<rect x="76" y="26" width="1" height="1" fill="#1C1117" />
<rect x="77" y="26" width="1" height="1" fill="#1C1117" />
<rect x="78" y="26" width="1" height="1" fill="#1C1117" />
<rect x="79" y="26" width="1" height="1" fill="#1C1117" />
<rect x="80" y="26" width="1" height="1" fill="#1C1117" />
<rect x="81" y="26" width="1" height="1" fill="#1C1117" />
<rect x="82" y="26" width="1" height="1" fill="#1C1117" />
<rect x="83" y="26" width="1" height="1" fill="#1C1117" />
<rect x="84" y="26" width="1" height="1" fill="#1C1117" />
<rect x="85" y="26" width="1" height="1" fill="#1C1117" />
<rect x="106" y="26" width="1" height="1" fill="#1C1117" />
<rect x="107" y="26" width="1" height="1" fill="#1C1117" />
<rect x="108" y="26" width="1" height="1" fill="#1C1117" />
<rect x="109" y="26" width="1" height="1" fill="#1C1117" />
<rect x="110" y="26" width="1" height="1" fill="#1C1117" />
<rect x="111" y="26" width="1" height="1" fill="#9F294E" />
<rect x="112" y="26" width="1" height="1" fill="#9F294E" />
<rect x="113" y="26" width="1" height="1" fill="#1C1117" />
<rect x="114" y="26" width="1" height="1" fill="#1C1117" />
<rect x="115" y="26" width="1" height="1" fill="#1C1117" />
</svg>