<?xml version="1.0" encoding="UTF-8" ?>
<svg version="1.1" width="32" height="8" xmlns="http://www.w3.org/2000/svg" shape-rendering="crispEdges">
<rect x="3" y="1" width="1" height="1" fill="#EE8E2E" />
<rect x="4" y="1" width="1" height="1" fill="#FDF7ED" />
<rect x="11" y="1" width="1" height="1" fill="#FDF7ED" />
<rect x="12" y="1" width="1" height="1" fill="#FDF7ED" />
<rect x="19" y="1" width="1" height="1" fill="#FACB3E" />
<rect x="20" y="1" width="1" height="1" fill="#EE8E2E" />
<rect x="27" y="1" width="1" height="1" fill="#EE8E2E" />
<rect x="28" y="1" width="1" height="1" fill="#FDF7ED" />
<rect x="2" y="2" width="1" height="1" fill="#EE8E2E" />
<rect x="3" y="2" width="1" height="1" fill="#FACB3E" />
<rect x="4" y="2" width="1" height="1" fill="#FACB3E" />
<rect x="5" y="2" width="1" height="1" fill="#FDF7ED" />
<rect x="10" y="2" width="1" height="1" fill="#FDF7ED" />
<rect x="11" y="2" width="1" height="1" fill="#FDF7ED" />
<rect x="12" y="2" width="1" height="1" fill="#FDF7ED" />
<rect x="13" y="2" width="1" height="1" fill="#FDF7ED" />
<rect x="19" y="2" width="1" height="1" fill="#FACB3E" />
<rect x="20" y="2" width="1" height="1" fill="#EE8E2E" />
<rect x="26" y="2" width="1" height="1" fill="#EE8E2E" />
<rect x="27" y="2" width="1" height="1" fill="#FACB3E" />
<rect x="28" y="2" width="1" height="1" fill="#FACB3E" />
<rect x="29" y="2" width="1" height="1" fill="#FDF7ED" />
<rect x="1" y="3" width="1" height="1" fill="#EE8E2E" />
<rect x="2" y="3" width="1" height="1" fill="#FACB3E" />
<rect x="3" y="3" width="1" height="1" fill="#FACB3E" />
<rect x="4" y="3" width="1" height="1" fill="#FACB3E" />
<rect x="5" y="3" width="1" height="1" fill="#FACB3E" />
<rect x="6" y="3" width="1" height="1" fill="#FDF7ED" />
<rect x="10" y="3" width="1" height="1" fill="#FDF7ED" />
<rect x="11" y="3" width="1" height="1" fill="#FDF7ED" />
<rect x="12" y="3" width="1" height="1" fill="#FDF7ED" />
<rect x="13" y="3" width="1" height="1" fill="#FDF7ED" />
<rect x="19" y="3" width="1" height="1" fill="#FACB3E" />
<rect x="20" y="3" width="1" height="1" fill="#EE8E2E" />
<rect x="26" y="3" width="1" height="1" fill="#EE8E2E" />
<rect x="27" y="3" width="1" height="1" fill="#FACB3E" />
<rect x="28" y="3" width="1" height="1" fill="#FACB3E" />
<rect x="29" y="3" width="1" height="1" fill="#FDF7ED" />
<rect x="1" y="4" width="1" height="1" fill="#EE8E2E" />
<rect x="2" y="4" width="1" height="1" fill="#FACB3E" />
<rect x="3" y="4" width="1" height="1" fill="#FACB3E" />
<rect x="4" y="4" width="1" height="1" fill="#FACB3E" />
<rect x="5" y="4" width="1" height="1" fill="#FACB3E" />
<rect x="6" y="4" width="1" height="1" fill="#FDF7ED" />
<rect x="10" y="4" width="1" height="1" fill="#FDF7ED" />
<rect x="11" y="4" width="1" height="1" fill="#FDF7ED" />
<rect x="12" y="4" width="1" height="1" fill="#FDF7ED" />
<rect x="13" y="4" width="1" height="1" fill="#FDF7ED" />
<rect x="19" y="4" width="1" height="1" fill="#FACB3E" />
<rect x="20" y="4" width="1" height="1" fill="#EE8E2E" />
<rect x="26" y="4" width="1" height="1" fill="#EE8E2E" />
<rect x="27" y="4" width="1" height="1" fill="#FACB3E" />
<rect x="28" y="4" width="1" height="1" fill="#FACB3E" />
<rect x="29" y="4" width="1" height="1" fill="#FDF7ED" />
<rect x="1" y="5" width="1" height="1" fill="#EE8E2E" />
<rect x="2" y="5" width="1" height="1" fill="#FACB3E" />
<rect x="3" y="5" width="1" height="1" fill="#FACB3E" />
<rect x="4" y="5" width="1" height="1" fill="#FACB3E" />
<rect x="5" y="5" width="1" height="1" fill="#FACB3E" />
<rect x="6" y="5" width="1" height="1" fill="#FDF7ED" />
<rect x="10" y="5" width="1" height="1" fill="#FDF7ED" />
<rect x="11" y="5" width="1" height="1" fill="#FDF7ED" />
<rect x="12" y="5" width="1" height="1" fill="#FDF7ED" />
<rect x="13" y="5" width="1" height="1" fill="#FDF7ED" />
<rect x="19" y="5" width="1" height="1" fill="#FACB3E" />
<rect x="20" y="5" width="1" height="1" fill="#EE8E2E" />
<rect x="26" y="5" width="1" height="1" fill="#EE8E2E" />
<rect x="27" y="5" width="1" height="1" fill="#FACB3E" />
<rect x="28" y="5" width="1" height="1" fill="#FACB3E" />
<rect x="29" y="5" width="1" height="1" fill="#FDF7ED" />
<rect x="2" y="6" width="1" height="1" fill="#EE8E2E" />
<rect x="3" y="6" width="1" height="1" fill="#FACB3E" />
<rect x="4" y="6" width="1" height="1" fill="#FACB3E" />
<rect x="5" y="6" width="1" height="1" fill="#FDF7ED" />
<rect x="10" y="6" width="1" height="1" fill="#FDF7ED" />
<rect x="11" y="6" width="1" height="1" fill="#FDF7ED" />
<rect x="12" y="6" width="1" height="1" fill="#FDF7ED" />
<rect x="13" y="6" width="1" height="1" fill="#FDF7ED" />
<rect x="19" y="6" width="1" height="1" fill="#FACB3E" />
<rect x="20" y="6" width="1" height="1" fill="#EE8E2E" />
<rect x="26" y="6" width="1" height="1" fill="#EE8E2E" />
<rect x="27" y="6" width="1" height="1" fill="#FACB3E" />
<rect x="28" y="6" width="1" height="1" fill="#FACB3E" />
<rect x="29" y="6" width="1" height="1" fill="#FDF7ED" />
<rect x="3" y="7" width="1" height="1" fill="#EE8E2E" />
<rect x="4" y="7" width="1" height="1" fill="#FDF7ED" />
<rect x="11" y="7" width="1" height="1" fill="#FDF7ED" />
<rect x="12" y="7" width="1" height="1" fill="#FDF7ED" />
<rect x="19" y="7" width="1" height="1" fill="#FACB3E" />
<rect x="20" y="7" width="1" height="1" fill="#EE8E2E" />
<rect x="27" y="7" width="1" height="1" fill="#EE8E2E" />
<rect x="28" y="7" width="1" height="1" fill="#FDF7ED" />
</svg>