<?xml version="1.0" encoding="UTF-8" ?>
<svg version="1.1" width="128" height="32" xmlns="http://www.w3.org/2000/svg" shape-rendering="crispEdges">
<rect x="44" y="12" width="1" height="1" fill="#222222" />
<rect x="45" y="12" width="1" height="1" fill="#222222" />
<rect x="46" y="12" width="1" height="1" fill="#222222" />
<rect x="47" y="12" width="1" height="1" fill="#222222" />
<rect x="48" y="12" width="1" height="1" fill="#222222" />
<rect x="49" y="12" width="1" height="1" fill="#222222" />
<rect x="50" y="12" width="1" height="1" fill="#222222" />
<rect x="51" y="12" width="1" height="1" fill="#222222" />
<rect x="52" y="12" width="1" height="1" fill="#222222" />
<rect x="12" y="13" width="1" height="1" fill="#222222" />
<rect x="13" y="13" width="1" height="1" fill="#222222" />
<rect x="14" y="13" width="1" height="1" fill="#222222" />
<rect x="15" y="13" width="1" height="1" fill="#222222" />
<rect x="16" y="13" width="1" height="1" fill="#222222" />
<rect x="17" y="13" width="1" height="1" fill="#222222" />
<rect x="18" y="13" width="1" height="1" fill="#222222" />
<rect x="19" y="13" width="1" height="1" fill="#222222" />
<rect x="20" y="13" width="1" height="1" fill="#222222" />
<rect x="44" y="13" width="1" height="1" fill="#222222" />
<rect x="45" y="13" width="1" height="1" fill="#314152" />
<rect x="46" y="13" width="1" height="1" fill="#3D734F" />
<rect x="47" y="13" width="1" height="1" fill="#3D734F" />
<rect x="48" y="13" width="1" height="1" fill="#3D734F" />
<rect x="49" y="13" width="1" height="1" fill="#3D734F" />
<rect x="50" y="13" width="1" height="1" fill="#3D734F" />
<rect x="51" y="13" width="1" height="1" fill="#3D734F" />
<rect x="52" y="13" width="1" height="1" fill="#222222" />
<rect x="76" y="13" width="1" height="1" fill="#222222" />
<rect x="77" y="13" width="1" height="1" fill="#222222" />
<rect x="78" y="13" width="1" height="1" fill="#222222" />
<rect x="79" y="13" width="1" height="1" fill="#222222" />
<rect x="80" y="13" width="1" height="1" fill="#222222" />
<rect x="81" y="13" width="1" height="1" fill="#222222" />
<rect x="82" y="13" width="1" height="1" fill="#222222" />
<rect x="83" y="13" width="1" height="1" fill="#222222" />
<rect x="84" y="13" width="1" height="1" fill="#222222" />
<rect x="12" y="14" width="1" height="1" fill="#222222" />
<rect x="13" y="14" width="1" height="1" fill="#314152" />
<rect x="14" y="14" width="1" height="1" fill="#3D734F" />
<rect x="15" y="14" width="1" height="1" fill="#3D734F" />
<rect x="16" y="14" width="1" height="1" fill="#3D734F" />
<rect x="17" y="14" width="1" height="1" fill="#3D734F" />
<rect x="18" y="14" width="1" height="1" fill="#3D734F" />
<rect x="19" y="14" width="1" height="1" fill="#3D734F" />
<rect x="20" y="14" width="1" height="1" fill="#222222" />
<rect x="44" y="14" width="1" height="1" fill="#222222" />
<rect x="45" y="14" width="1" height="1" fill="#314152" />
<rect x="46" y="14" width="1" height="1" fill="#3D734F" />
<rect x="47" y="14" width="1" height="1" fill="#3D734F" />
<rect x="48" y="14" width="1" height="1" fill="#3D734F" />
<rect x="49" y="14" width="1" height="1" fill="#3D734F" />
<rect x="50" y="14" width="1" height="1" fill="#3D734F" />
<rect x="51" y="14" width="1" height="1" fill="#3D734F" />
<rect x="52" y="14" width="1" height="1" fill="#222222" />
<rect x="76" y="14" width="1" height="1" fill="#222222" />
<rect x="77" y="14" width="1" height="1" fill="#314152" />
<rect x="78" y="14" width="1" height="1" fill="#3D734F" />
<rect x="79" y="14" width="1" height="1" fill="#3D734F" />
<rect x="80" y="14" width="1" height="1" fill="#3D734F" />
<rect x="81" y="14" width="1" height="1" fill="#3D734F" />
<rect x="82" y="14" width="1" height="1" fill="#3D734F" />
<rect x="83" y="14" width="1" height="1" fill="#3D734F" />
<rect x="84" y="14" width="1" height="1" fill="#222222" />
<rect x="108" y="14" width="1" height="1" fill="#222222" />
<rect x="109" y="14" width="1" height="1" fill="#222222" />
<rect x="110" y="14" width="1" height="1" fill="#222222" />
<rect x="111" y="14" width="1" height="1" fill="#222222" />
<rect x="112" y="14" width="1" height="1" fill="#222222" />
<rect x="113" y="14" width="1" height="1" fill="#222222" />
<rect x="114" y="14" width="1" height="1" fill="#222222" />
<rect x="115" y="14" width="1" height="1" fill="#222222" />
<rect x="116" y="14" width="1" height="1" fill="#222222" />
<rect x="12" y="15" width="1" height="1" fill="#222222" />
<rect x="13" y="15" width="1" height="1" fill="#314152" />
<rect x="14" y="15" width="1" height="1" fill="#3D734F" />
<rect x="15" y="15" width="1" height="1" fill="#3D734F" />
<rect x="16" y="15" width="1" height="1" fill="#3D734F" />
<rect x="17" y="15" width="1" height="1" fill="#3D734F" />
<rect x="18" y="15" width="1" height="1" fill="#3D734F" />
<rect x="19" y="15" width="1" height="1" fill="#3D734F" />
<rect x="20" y="15" width="1" height="1" fill="#222222" />
<rect x="44" y="15" width="1" height="1" fill="#222222" />
<rect x="45" y="15" width="1" height="1" fill="#314152" />
<rect x="46" y="15" width="1" height="1" fill="#3D734F" />
<rect x="47" y="15" width="1" height="1" fill="#222222" />
<rect x="48" y="15" width="1" height="1" fill="#222222" />
<rect x="49" y="15" width="1" height="1" fill="#3D734F" />
<rect x="50" y="15" width="1" height="1" fill="#3D734F" />
<rect x="51" y="15" width="1" height="1" fill="#222222" />
<rect x="52" y="15" width="1" height="1" fill="#222222" />
<rect x="76" y="15" width="1" height="1" fill="#222222" />
<rect x="77" y="15" width="1" height="1" fill="#314152" />
<rect x="78" y="15" width="1" height="1" fill="#3D734F" />
<rect x="79" y="15" width="1" height="1" fill="#222222" />
<rect x="80" y="15" width="1" height="1" fill="#222222" />
<rect x="81" y="15" width="1" height="1" fill="#3D734F" />
<rect x="82" y="15" width="1" height="1" fill="#3D734F" />
<rect x="83" y="15" width="1" height="1" fill="#222222" />
<rect x="84" y="15" width="1" height="1" fill="#222222" />
<rect x="108" y="15" width="1" height="1" fill="#222222" />
<rect x="109" y="15" width="1" height="1" fill="#314152" />
<rect x="110" y="15" width="1" height="1" fill="#3D734F" />
<rect x="111" y="15" width="1" height="1" fill="#3D734F" />
<rect x="112" y="15" width="1" height="1" fill="#3D734F" />
<rect x="113" y="15" width="1" height="1" fill="#3D734F" />
<rect x="114" y="15" width="1" height="1" fill="#3D734F" />
<rect x="115" y="15" width="1" height="1" fill="#5C7A56" />
<rect x="116" y="15" width="1" height="1" fill="#222222" />
<rect x="12" y="16" width="1" height="1" fill="#222222" />
<rect x="13" y="16" width="1" height="1" fill="#314152" />
<rect x="14" y="16" width="1" height="1" fill="#3D734F" />
<rect x="15" y="16" width="1" height="1" fill="#222222" />
<rect x="16" y="16" width="1" height="1" fill="#222222" />
<rect x="17" y="16" width="1" height="1" fill="#3D734F" />
<rect x="18" y="16" width="1" height="1" fill="#3D734F" />
<rect x="19" y="16" width="1" height="1" fill="#222222" />
<rect x="20" y="16" width="1" height="1" fill="#222222" />
<rect x="44" y="16" width="1" height="1" fill="#222222" />
<rect x="45" y="16" width="1" height="1" fill="#314152" />
<rect x="46" y="16" width="1" height="1" fill="#3D734F" />
<rect x="47" y="16" width="1" height="1" fill="#222222" />
<rect x="48" y="16" width="1" height="1" fill="#222222" />
<rect x="49" y="16" width="1" height="1" fill="#3D734F" />
<rect x="50" y="16" width="1" height="1" fill="#3D734F" />
<rect x="51" y="16" width="1" height="1" fill="#222222" />
<rect x="52" y="16" width="1" height="1" fill="#222222" />
<rect x="53" y="16" width="1" height="1" fill="#222222" />
<rect x="76" y="16" width="1" height="1" fill="#222222" />
<rect x="77" y="16" width="1" height="1" fill="#314152" />
<rect x="78" y="16" width="1" height="1" fill="#3D734F" />
<rect x="79" y="16" width="1" height="1" fill="#222222" />
<rect x="80" y="16" width="1" height="1" fill="#222222" />
<rect x="81" y="16" width="1" height="1" fill="#3D734F" />
<rect x="82" y="16" width="1" height="1" fill="#3D734F" />
<rect x="83" y="16" width="1" height="1" fill="#222222" />
<rect x="84" y="16" width="1" height="1" fill="#222222" />
<rect x="85" y="16" width="1" height="1" fill="#222222" />
<rect x="108" y="16" width="1" height="1" fill="#222222" />
<rect x="109" y="16" width="1" height="1" fill="#314152" />
<rect x="110" y="16" width="1" height="1" fill="#3D734F" />
<rect x="111" y="16" width="1" height="1" fill="#222222" />
<rect x="112" y="16" width="1" height="1" fill="#222222" />
<rect x="113" y="16" width="1" height="1" fill="#3D734F" />
<rect x="114" y="16" width="1" height="1" fill="#3D734F" />
<rect x="115" y="16" width="1" height="1" fill="#222222" />
<rect x="116" y="16" width="1" height="1" fill="#222222" />
<rect x="12" y="17" width="1" height="1" fill="#222222" />
<rect x="13" y="17" width="1" height="1" fill="#314152" />
<rect x="14" y="17" width="1" height="1" fill="#3D734F" />
<rect x="15" y="17" width="1" height="1" fill="#222222" />
<rect x="16" y="17" width="1" height="1" fill="#222222" />
<rect x="17" y="17" width="1" height="1" fill="#3D734F" />
<rect x="18" y="17" width="1" height="1" fill="#3D734F" />
<rect x="19" y="17" width="1" height="1" fill="#222222" />
<rect x="20" y="17" width="1" height="1" fill="#222222" />
<rect x="21" y="17" width="1" height="1" fill="#222222" />
<rect x="44" y="17" width="1" height="1" fill="#222222" />
<rect x="45" y="17" width="1" height="1" fill="#314152" />
<rect x="46" y="17" width="1" height="1" fill="#FDF7ED" />
<rect x="47" y="17" width="1" height="1" fill="#314152" />
<rect x="48" y="17" width="1" height="1" fill="#314152" />
<rect x="49" y="17" width="1" height="1" fill="#3D734F" />
<rect x="50" y="17" width="1" height="1" fill="#3D734F" />
<rect x="51" y="17" width="1" height="1" fill="#314152" />
<rect x="52" y="17" width="1" height="1" fill="#FDF7ED" />
<rect x="53" y="17" width="1" height="1" fill="#222222" />
<rect x="76" y="17" width="1" height="1" fill="#222222" />
<rect x="77" y="17" width="1" height="1" fill="#314152" />
<rect x="78" y="17" width="1" height="1" fill="#FDF7ED" />
<rect x="79" y="17" width="1" height="1" fill="#314152" />
<rect x="80" y="17" width="1" height="1" fill="#314152" />
<rect x="81" y="17" width="1" height="1" fill="#3D734F" />
<rect x="82" y="17" width="1" height="1" fill="#3D734F" />
<rect x="83" y="17" width="1" height="1" fill="#314152" />
<rect x="84" y="17" width="1" height="1" fill="#FDF7ED" />
<rect x="85" y="17" width="1" height="1" fill="#222222" />
<rect x="108" y="17" width="1" height="1" fill="#222222" />
<rect x="109" y="17" width="1" height="1" fill="#314152" />
<rect x="110" y="17" width="1" height="1" fill="#3D734F" />
<rect x="111" y="17" width="1" height="1" fill="#222222" />
<rect x="112" y="17" width="1" height="1" fill="#222222" />
<rect x="113" y="17" width="1" height="1" fill="#3D734F" />
<rect x="114" y="17" width="1" height="1" fill="#3D734F" />
<rect x="115" y="17" width="1" height="1" fill="#222222" />
<rect x="116" y="17" width="1" height="1" fill="#222222" />
<rect x="117" y="17" width="1" height="1" fill="#222222" />
<rect x="12" y="18" width="1" height="1" fill="#222222" />
<rect x="13" y="18" width="1" height="1" fill="#314152" />
<rect x="14" y="18" width="1" height="1" fill="#FDF7ED" />
<rect x="15" y="18" width="1" height="1" fill="#314152" />
<rect x="16" y="18" width="1" height="1" fill="#314152" />
<rect x="17" y="18" width="1" height="1" fill="#3D734F" />
<rect x="18" y="18" width="1" height="1" fill="#3D734F" />
<rect x="19" y="18" width="1" height="1" fill="#314152" />
<rect x="20" y="18" width="1" height="1" fill="#FDF7ED" />
<rect x="21" y="18" width="1" height="1" fill="#222222" />
<rect x="43" y="18" width="1" height="1" fill="#222222" />
<rect x="44" y="18" width="1" height="1" fill="#222222" />
<rect x="45" y="18" width="1" height="1" fill="#314152" />
<rect x="46" y="18" width="1" height="1" fill="#FDF7ED" />
<rect x="47" y="18" width="1" height="1" fill="#FDF7ED" />
<rect x="48" y="18" width="1" height="1" fill="#3D734F" />
<rect x="49" y="18" width="1" height="1" fill="#3D734F" />
<rect x="50" y="18" width="1" height="1" fill="#3D734F" />
<rect x="51" y="18" width="1" height="1" fill="#FDF7ED" />
<rect x="52" y="18" width="1" height="1" fill="#FDF7ED" />
<rect x="53" y="18" width="1" height="1" fill="#222222" />
<rect x="76" y="18" width="1" height="1" fill="#222222" />
<rect x="77" y="18" width="1" height="1" fill="#314152" />
<rect x="78" y="18" width="1" height="1" fill="#FDF7ED" />
<rect x="79" y="18" width="1" height="1" fill="#FDF7ED" />
<rect x="80" y="18" width="1" height="1" fill="#3D734F" />
<rect x="81" y="18" width="1" height="1" fill="#3D734F" />
<rect x="82" y="18" width="1" height="1" fill="#3D734F" />
<rect x="83" y="18" width="1" height="1" fill="#FDF7ED" />
<rect x="84" y="18" width="1" height="1" fill="#FDF7ED" />
<rect x="85" y="18" width="1" height="1" fill="#222222" />
<rect x="108" y="18" width="1" height="1" fill="#222222" />
<rect x="109" y="18" width="1" height="1" fill="#314152" />
<rect x="110" y="18" width="1" height="1" fill="#FDF7ED" />
<rect x="111" y="18" width="1" height="1" fill="#314152" />
<rect x="112" y="18" width="1" height="1" fill="#314152" />
<rect x="113" y="18" width="1" height="1" fill="#3D734F" />
<rect x="114" y="18" width="1" height="1" fill="#3D734F" />
<rect x="115" y="18" width="1" height="1" fill="#3E5442" />
<rect x="116" y="18" width="1" height="1" fill="#FDF7ED" />
<rect x="117" y="18" width="1" height="1" fill="#222222" />
<rect x="12" y="19" width="1" height="1" fill="#222222" />
<rect x="13" y="19" width="1" height="1" fill="#314152" />
<rect x="14" y="19" width="1" height="1" fill="#FDF7ED" />
<rect x="15" y="19" width="1" height="1" fill="#FDF7ED" />
<rect x="16" y="19" width="1" height="1" fill="#3D734F" />
<rect x="17" y="19" width="1" height="1" fill="#3D734F" />
<rect x="18" y="19" width="1" height="1" fill="#3D734F" />
<rect x="19" y="19" width="1" height="1" fill="#FDF7ED" />
<rect x="20" y="19" width="1" height="1" fill="#FDF7ED" />
<rect x="21" y="19" width="1" height="1" fill="#222222" />
<rect x="43" y="19" width="1" height="1" fill="#222222" />
<rect x="44" y="19" width="1" height="1" fill="#314152" />
<rect x="45" y="19" width="1" height="1" fill="#314152" />
<rect x="46" y="19" width="1" height="1" fill="#314152" />
<rect x="47" y="19" width="1" height="1" fill="#222222" />
<rect x="48" y="19" width="1" height="1" fill="#222222" />
<rect x="49" y="19" width="1" height="1" fill="#222222" />
<rect x="50" y="19" width="1" height="1" fill="#314152" />
<rect x="51" y="19" width="1" height="1" fill="#314152" />
<rect x="52" y="19" width="1" height="1" fill="#314152" />
<rect x="53" y="19" width="1" height="1" fill="#222222" />
<rect x="76" y="19" width="1" height="1" fill="#222222" />
<rect x="77" y="19" width="1" height="1" fill="#314152" />
<rect x="78" y="19" width="1" height="1" fill="#3D734F" />
<rect x="79" y="19" width="1" height="1" fill="#3D734F" />
<rect x="80" y="19" width="1" height="1" fill="#3D734F" />
<rect x="81" y="19" width="1" height="1" fill="#3D734F" />
<rect x="82" y="19" width="1" height="1" fill="#3D734F" />
<rect x="83" y="19" width="1" height="1" fill="#3D734F" />
<rect x="84" y="19" width="1" height="1" fill="#3D734F" />
<rect x="85" y="19" width="1" height="1" fill="#222222" />
<rect x="108" y="19" width="1" height="1" fill="#222222" />
<rect x="109" y="19" width="1" height="1" fill="#314152" />
<rect x="110" y="19" width="1" height="1" fill="#FDF7ED" />
<rect x="111" y="19" width="1" height="1" fill="#FDF7ED" />
<rect x="112" y="19" width="1" height="1" fill="#3D734F" />
<rect x="113" y="19" width="1" height="1" fill="#3D734F" />
<rect x="114" y="19" width="1" height="1" fill="#3D734F" />
<rect x="115" y="19" width="1" height="1" fill="#FDF7ED" />
<rect x="116" y="19" width="1" height="1" fill="#FDF7ED" />
<rect x="117" y="19" width="1" height="1" fill="#222222" />
<rect x="12" y="20" width="1" height="1" fill="#222222" />
<rect x="13" y="20" width="1" height="1" fill="#314152" />
<rect x="14" y="20" width="1" height="1" fill="#314152" />
<rect x="15" y="20" width="1" height="1" fill="#222222" />
<rect x="16" y="20" width="1" height="1" fill="#222222" />
<rect x="17" y="20" width="1" height="1" fill="#222222" />
<rect x="18" y="20" width="1" height="1" fill="#314152" />
<rect x="19" y="20" width="1" height="1" fill="#314152" />
<rect x="20" y="20" width="1" height="1" fill="#222222" />
<rect x="43" y="20" width="1" height="1" fill="#222222" />
<rect x="44" y="20" width="1" height="1" fill="#314152" />
<rect x="45" y="20" width="1" height="1" fill="#222222" />
<rect x="46" y="20" width="1" height="1" fill="#222222" />
<rect x="50" y="20" width="1" height="1" fill="#222222" />
<rect x="51" y="20" width="1" height="1" fill="#222222" />
<rect x="52" y="20" width="1" height="1" fill="#222222" />
<rect x="53" y="20" width="1" height="1" fill="#222222" />
<rect x="76" y="20" width="1" height="1" fill="#222222" />
<rect x="77" y="20" width="1" height="1" fill="#314152" />
<rect x="78" y="20" width="1" height="1" fill="#314152" />
<rect x="79" y="20" width="1" height="1" fill="#222222" />
<rect x="80" y="20" width="1" height="1" fill="#222222" />
<rect x="81" y="20" width="1" height="1" fill="#222222" />
<rect x="82" y="20" width="1" height="1" fill="#314152" />
<rect x="83" y="20" width="1" height="1" fill="#314152" />
<rect x="84" y="20" width="1" height="1" fill="#222222" />
<rect x="108" y="20" width="1" height="1" fill="#222222" />
<rect x="109" y="20" width="1" height="1" fill="#314152" />
<rect x="110" y="20" width="1" height="1" fill="#3D734F" />
<rect x="111" y="20" width="1" height="1" fill="#3D734F" />
<rect x="112" y="20" width="1" height="1" fill="#3D734F" />
<rect x="113" y="20" width="1" height="1" fill="#3D734F" />
<rect x="114" y="20" width="1" height="1" fill="#3D734F" />
<rect x="115" y="20" width="1" height="1" fill="#5C7A56" />
<rect x="116" y="20" width="1" height="1" fill="#222222" />
<rect x="13" y="21" width="1" height="1" fill="#222222" />
<rect x="14" y="21" width="1" height="1" fill="#314152" />
<rect x="15" y="21" width="1" height="1" fill="#222222" />
<rect x="17" y="21" width="1" height="1" fill="#222222" />
<rect x="18" y="21" width="1" height="1" fill="#222222" />
<rect x="19" y="21" width="1" height="1" fill="#222222" />
<rect x="20" y="21" width="1" height="1" fill="#222222" />
<rect x="43" y="21" width="1" height="1" fill="#222222" />
<rect x="44" y="21" width="1" height="1" fill="#222222" />
<rect x="76" y="21" width="1" height="1" fill="#222222" />
<rect x="77" y="21" width="1" height="1" fill="#222222" />
<rect x="78" y="21" width="1" height="1" fill="#222222" />
<rect x="81" y="21" width="1" height="1" fill="#222222" />
<rect x="82" y="21" width="1" height="1" fill="#314152" />
<rect x="83" y="21" width="1" height="1" fill="#314152" />
<rect x="84" y="21" width="1" height="1" fill="#222222" />
<rect x="108" y="21" width="1" height="1" fill="#222222" />
<rect x="109" y="21" width="1" height="1" fill="#222222" />
<rect x="110" y="21" width="1" height="1" fill="#222222" />
<rect x="111" y="21" width="1" height="1" fill="#314152" />
<rect x="112" y="21" width="1" height="1" fill="#314152" />
<rect x="113" y="21" width="1" height="1" fill="#222222" />
<rect x="114" y="21" width="1" height="1" fill="#222222" />
<rect x="115" y="21" width="1" height="1" fill="#222222" />
<rect x="116" y="21" width="1" height="1" fill="#222222" />
<rect x="14" y="22" width="1" height="1" fill="#222222" />
<rect x="15" y="22" width="1" height="1" fill="#222222" />
<rect x="82" y="22" width="1" height="1" fill="#222222" />
<rect x="83" y="22" width="1" height="1" fill="#314152" />
<rect x="84" y="22" width="1" height="1" fill="#222222" />
<rect x="110" y="22" width="1" height="1" fill="#222222" />
<rect x="111" y="22" width="1" height="1" fill="#222222" />
<rect x="112" y="22" width="1" height="1" fill="#314152" />
<rect x="113" y="22" width="1" height="1" fill="#222222" />
<rect x="83" y="23" width="1" height="1" fill="#222222" />
<rect x="84" y="23" width="1" height="1" fill="#222222" />
<rect x="111" y="23" width="1" height="1" fill="#222222" />
<rect x="112" y="23" width="1" height="1" fill="#222222" />
<rect x="113" y="23" width="1" height="1" fill="#222222" />
</svg>